{"glyphs":{"0":{"ha":878,"x_min":56,"x_max":821,"o":"m 356 -29 q 193 17 261 -29 q 90 140 125 63 q 56 310 56 217 q 65 407 56 360 q 226 774 108 636 q 554 911 344 911 q 753 828 685 911 q 821 586 821 746 q 771 299 821 440 q 616 65 721 158 q 356 -29 511 -29 m 351 103 q 502 179 435 103 q 606 372 569 256 q 643 604 643 489 q 513 761 643 761 q 371 687 436 761 q 267 503 306 613 q 229 300 229 394 q 260 152 229 201 q 351 103 292 103 z "},"1":{"ha":596,"x_min":90,"x_max":547,"o":"m 188 47 q 192 76 188 63 l 350 690 q 259 631 310 660 q 193 603 208 603 q 149 615 174 603 q 108 644 125 628 q 90 672 90 661 q 92 678 90 676 q 165 738 106 696 q 318 843 224 781 q 426 917 410 904 q 454 925 439 925 q 515 899 486 925 q 543 838 543 872 q 545 830 543 836 q 547 814 547 824 q 544 794 547 811 q 470 466 524 679 q 410 222 417 253 q 375 85 379 106 q 341 10 364 36 q 267 -17 318 -17 q 206 -3 225 -17 q 188 47 188 11 z "},"2":{"ha":801,"x_min":24,"x_max":768,"o":"m 579 711 q 551 766 579 744 q 478 788 522 788 q 397 776 432 788 q 329 739 361 765 q 304 711 311 725 q 292 676 297 697 q 274 644 285 654 q 233 635 264 635 q 158 656 186 635 q 129 714 129 676 q 179 808 129 760 q 313 889 229 857 q 490 921 396 921 q 634 895 571 921 q 733 825 697 869 q 768 725 768 781 q 719 591 768 661 q 599 456 669 521 q 422 303 529 390 q 360 250 404 288 q 285 184 315 213 q 235 132 254 156 q 418 169 299 147 q 610 199 538 192 q 636 200 619 200 q 681 187 663 200 q 699 161 699 174 q 672 83 699 124 q 582 38 646 42 q 343 11 490 32 q 229 -5 272 0 q 140 -10 186 -10 q 54 11 85 -10 q 24 74 24 32 q 51 160 24 119 q 131 250 79 201 q 358 450 210 324 q 531 607 482 554 q 579 711 579 660 z "},"3":{"ha":763,"x_min":8,"x_max":732,"o":"m 693 328 q 631 142 693 221 q 471 21 569 63 q 265 -21 372 -21 q 143 0 203 -21 q 46 58 83 21 q 8 139 8 94 q 28 188 8 171 q 82 204 47 204 q 119 194 101 204 q 164 164 136 185 q 223 126 197 139 q 281 113 249 113 q 408 143 351 113 q 495 222 464 174 q 526 317 526 269 q 490 398 526 364 q 390 442 454 432 q 353 422 369 426 q 315 418 338 418 q 251 436 281 418 q 222 482 222 454 q 256 531 222 514 q 364 572 289 549 q 511 631 458 600 q 568 722 564 663 q 538 772 568 753 q 463 790 507 790 q 304 739 371 790 q 276 710 285 725 q 264 676 268 694 q 247 644 257 654 q 206 635 236 635 q 140 654 161 635 q 119 714 119 674 q 172 808 119 760 q 308 889 224 857 q 485 921 392 921 q 667 868 601 921 q 732 725 732 815 q 677 601 732 661 q 536 510 622 540 q 653 444 613 496 q 693 328 693 393 z "},"4":{"ha":868,"x_min":25,"x_max":828,"o":"m 432 40 q 471 222 446 115 l 372 214 q 117 194 153 194 q 49 210 74 194 q 25 268 25 225 q 49 318 25 290 q 467 755 353 639 q 625 906 581 871 q 699 942 669 942 q 772 926 744 942 q 800 881 800 910 q 799 860 800 864 q 679 365 738 635 l 774 374 q 813 346 797 364 q 828 306 828 328 q 746 246 828 258 l 653 239 l 610 42 q 583 -13 610 7 q 518 -33 557 -33 q 458 -19 482 -33 q 432 40 435 -4 m 271 329 q 500 353 335 339 q 585 671 546 543 l 271 329 z "},"5":{"ha":849,"x_min":36,"x_max":806,"o":"m 311 103 q 442 133 383 103 q 534 222 500 164 q 568 356 568 279 q 425 472 568 472 q 317 447 358 472 q 233 379 275 421 q 197 351 208 351 q 127 371 157 351 q 97 429 97 390 q 103 458 97 440 q 196 781 196 736 q 203 849 196 825 q 231 886 210 874 q 294 899 251 899 q 316 897 306 899 q 338 896 326 896 l 667 924 l 731 929 q 784 911 763 929 q 806 864 806 893 q 789 808 806 831 q 708 779 772 786 l 351 743 q 332 676 353 747 q 296 561 301 578 q 492 615 386 615 q 615 588 558 615 q 707 504 672 560 q 742 369 742 449 q 685 150 742 242 q 529 10 629 58 q 300 -37 429 -37 q 178 -15 240 -37 q 76 46 117 7 q 36 131 36 85 q 56 174 36 157 q 108 190 76 190 q 140 181 121 190 q 192 153 158 172 q 259 116 231 129 q 311 103 288 103 z "},"6":{"ha":789,"x_min":24,"x_max":725,"o":"m 318 -40 q 101 23 179 -40 q 24 208 24 86 q 147 556 24 393 q 494 894 271 718 q 579 935 547 935 q 642 918 617 935 q 667 874 667 901 q 643 832 667 856 q 565 764 619 808 q 438 654 493 706 q 333 538 383 603 q 483 588 421 588 q 661 526 597 588 q 725 340 725 464 q 672 145 725 232 q 526 9 619 58 q 318 -40 433 -40 m 242 381 q 206 235 206 303 q 237 131 206 167 q 324 96 268 96 q 428 125 378 96 q 509 209 478 154 q 540 336 540 264 q 503 422 540 388 q 411 456 465 456 q 323 433 371 456 q 242 381 275 410 z "},"7":{"ha":793,"x_min":106,"x_max":861,"o":"m 613 754 q 360 735 483 747 q 149 696 236 722 q 117 744 129 711 q 106 801 106 778 q 158 865 106 840 q 447 897 281 882 q 682 913 613 913 l 746 913 q 827 897 793 913 q 861 846 861 881 q 829 772 861 811 q 793 725 826 764 q 543 407 686 600 q 458 285 493 340 q 371 144 422 229 q 283 10 314 49 q 215 -28 251 -28 q 153 -11 174 -28 q 132 33 132 6 q 214 208 132 75 q 410 497 296 340 q 613 754 525 654 z "},"8":{"ha":838,"x_min":21,"x_max":810,"o":"m 331 -32 q 168 -2 239 -32 q 59 79 97 28 q 21 194 21 131 q 86 374 21 300 q 265 482 151 447 q 212 526 236 494 q 174 593 188 558 q 160 651 160 628 q 211 802 160 739 q 347 898 263 865 q 532 931 432 931 q 737 881 664 931 q 810 740 810 832 q 758 587 810 656 q 618 475 707 518 q 764 290 764 400 q 331 -32 764 -32 m 522 793 q 397 756 450 793 q 343 654 343 719 q 469 544 343 583 q 575 613 533 567 q 617 711 617 660 q 592 769 617 746 q 522 793 567 793 m 565 281 q 531 357 565 321 q 431 415 496 393 q 275 338 332 399 q 218 196 218 276 q 257 133 218 156 q 353 110 296 110 q 505 155 444 110 q 565 281 565 200 z "},"9":{"ha":853,"x_min":60,"x_max":800,"o":"m 167 -47 q 91 -35 122 -47 q 60 3 60 -24 q 81 46 60 29 q 139 67 101 63 q 372 144 258 81 q 563 336 485 208 q 401 289 489 289 q 266 322 333 289 q 156 419 199 356 q 113 571 113 483 q 164 764 113 683 q 304 886 215 844 q 503 928 393 928 q 732 836 664 928 q 800 613 800 744 q 715 290 800 443 q 483 45 629 138 q 167 -47 338 -47 m 500 789 q 344 730 404 789 q 285 563 285 671 q 328 472 285 511 q 433 433 372 433 q 570 486 513 433 q 628 642 628 539 q 597 747 628 706 q 500 789 565 789 z "},"\r":{"ha":361,"x_min":0,"x_max":0,"o":""}," ":{"ha":361,"x_min":0,"x_max":0,"o":""},"A":{"ha":911,"x_min":-24,"x_max":822,"o":"m 607 308 q 317 253 425 278 q 274 182 283 200 q 222 97 244 131 q 172 36 199 63 q 124 -6 143 7 q 81 -18 106 -18 q 8 1 39 -18 q -24 39 -24 19 q 7 101 -21 42 q 110 249 35 160 q 103 276 110 260 q 96 296 96 293 q 222 393 96 336 q 372 601 293 499 q 564 844 450 704 q 635 901 592 879 q 721 924 678 924 q 788 915 765 924 q 816 893 810 907 q 822 854 822 879 q 815 792 817 813 q 784 503 794 624 q 774 264 774 383 q 783 63 774 154 q 754 2 779 29 q 696 -25 729 -25 q 612 7 632 -25 q 592 115 592 39 q 607 308 592 171 m 426 413 q 503 425 451 418 l 614 442 q 643 719 626 635 q 426 413 589 656 z "},"Á":{"ha":911,"x_min":-24,"x_max":1050,"o":"m 694 1085 q 769 1167 714 1114 q 877 1260 824 1219 q 946 1301 931 1301 q 1013 1275 975 1301 q 1050 1226 1050 1249 q 1031 1190 1050 1208 q 951 1131 1011 1172 q 822 1048 867 1071 q 742 1025 778 1025 q 703 1035 715 1025 q 690 1068 690 1044 q 694 1085 690 1079 m 607 308 q 317 253 425 278 q 274 182 283 200 q 222 97 244 131 q 172 36 199 63 q 124 -6 143 7 q 81 -18 106 -18 q 8 1 39 -18 q -24 39 -24 19 q 7 101 -21 42 q 110 249 35 160 q 103 276 110 260 q 96 296 96 293 q 222 393 96 336 q 372 601 293 499 q 564 844 450 704 q 635 901 592 879 q 721 924 678 924 q 788 915 765 924 q 816 893 810 907 q 822 854 822 879 q 815 792 817 813 q 784 503 794 624 q 774 264 774 383 q 783 63 774 154 q 754 2 779 29 q 696 -25 729 -25 q 612 7 632 -25 q 592 115 592 39 q 607 308 592 171 m 426 413 q 503 425 451 418 l 614 442 q 643 719 626 635 q 426 413 589 656 z "},"Ă":{"ha":911,"x_min":-24,"x_max":1003,"o":"m 742 990 q 606 1024 657 990 q 554 1121 554 1058 q 628 1197 554 1197 q 675 1153 674 1197 q 690 1114 676 1125 q 753 1103 704 1103 q 822 1112 797 1103 q 862 1138 847 1121 q 894 1190 876 1156 q 917 1204 904 1199 q 942 1210 931 1210 q 1003 1190 990 1210 q 915 1043 989 1093 q 742 990 842 993 m 607 308 q 317 253 425 278 q 274 182 283 200 q 222 97 244 131 q 172 36 199 63 q 124 -6 143 7 q 81 -18 106 -18 q 8 1 39 -18 q -24 39 -24 19 q 7 101 -21 42 q 110 249 35 160 q 103 276 110 260 q 96 296 96 293 q 222 393 96 336 q 372 601 293 499 q 564 844 450 704 q 635 901 592 879 q 721 924 678 924 q 788 915 765 924 q 816 893 810 907 q 822 854 822 879 q 815 792 817 813 q 784 503 794 624 q 774 264 774 383 q 783 63 774 154 q 754 2 779 29 q 696 -25 729 -25 q 612 7 632 -25 q 592 115 592 39 q 607 308 592 171 m 426 413 q 503 425 451 418 l 614 442 q 643 719 626 635 q 426 413 589 656 z "},"Ắ":{"ha":911,"x_min":-24,"x_max":1031,"o":"m 740 1208 q 815 1310 772 1257 q 872 1363 857 1363 q 935 1344 894 1363 q 976 1311 976 1325 q 963 1285 976 1299 q 907 1244 949 1272 l 860 1211 q 809 1176 826 1186 q 774 1167 792 1167 q 746 1174 754 1167 q 738 1197 738 1181 q 740 1208 738 1203 m 769 985 q 633 1019 685 985 q 582 1115 582 1053 q 656 1192 582 1192 q 694 1142 693 1192 q 712 1103 696 1115 q 778 1092 728 1092 q 848 1102 822 1092 q 889 1131 874 1113 q 922 1185 904 1150 q 945 1199 932 1193 q 969 1204 958 1204 q 1031 1185 1018 1204 q 943 1038 1017 1088 q 769 985 869 988 m 607 308 q 317 253 425 278 q 274 182 283 200 q 222 97 244 131 q 172 36 199 63 q 124 -6 143 7 q 81 -18 106 -18 q 8 1 39 -18 q -24 39 -24 19 q 7 101 -21 42 q 110 249 35 160 q 103 276 110 260 q 96 296 96 293 q 222 393 96 336 q 372 601 293 499 q 564 844 450 704 q 635 901 592 879 q 721 924 678 924 q 788 915 765 924 q 816 893 810 907 q 822 854 822 879 q 815 792 817 813 q 784 503 794 624 q 774 264 774 383 q 783 63 774 154 q 754 2 779 29 q 696 -25 729 -25 q 612 7 632 -25 q 592 115 592 39 q 607 308 592 171 m 426 413 q 503 425 451 418 l 614 442 q 643 719 626 635 q 426 413 589 656 z "},"Ặ":{"ha":911,"x_min":-24,"x_max":1031,"o":"m 769 985 q 633 1019 685 985 q 582 1115 582 1053 q 656 1192 582 1192 q 703 1147 701 1192 q 718 1108 704 1119 q 781 1097 732 1097 q 850 1106 825 1097 q 890 1133 875 1115 q 922 1185 904 1150 q 945 1199 932 1193 q 969 1204 958 1204 q 1031 1185 1018 1204 q 943 1038 1017 1088 q 769 985 869 988 m 607 308 q 317 253 425 278 q 274 182 283 200 q 222 97 244 131 q 172 36 199 63 q 124 -6 143 7 q 81 -18 106 -18 q 8 1 39 -18 q -24 39 -24 19 q 7 101 -21 42 q 110 249 35 160 q 103 276 110 260 q 96 296 96 293 q 222 393 96 336 q 372 601 293 499 q 564 844 450 704 q 635 901 592 879 q 721 924 678 924 q 788 915 765 924 q 816 893 810 907 q 822 854 822 879 q 815 792 817 813 q 784 503 794 624 q 774 264 774 383 q 783 63 774 154 q 754 2 779 29 q 696 -25 729 -25 q 612 7 632 -25 q 592 115 592 39 q 607 308 592 171 m 426 413 q 503 425 451 418 l 614 442 q 643 719 626 635 q 426 413 589 656 m 342 -299 q 281 -273 310 -299 q 251 -215 251 -247 q 290 -133 251 -168 q 376 -99 329 -99 q 439 -128 411 -99 q 467 -193 467 -158 q 429 -268 467 -237 q 342 -299 392 -299 z "},"Ằ":{"ha":911,"x_min":-24,"x_max":1031,"o":"m 851 1208 q 854 1197 854 1203 q 846 1174 854 1181 q 818 1167 838 1167 q 783 1176 800 1167 q 732 1211 765 1186 l 685 1244 q 629 1285 643 1272 q 615 1311 615 1299 q 656 1344 615 1325 q 719 1363 697 1363 q 777 1310 735 1363 q 851 1208 819 1257 m 769 985 q 633 1019 685 985 q 582 1115 582 1053 q 656 1192 582 1192 q 694 1142 693 1192 q 712 1103 696 1115 q 778 1092 728 1092 q 848 1102 822 1092 q 889 1131 874 1113 q 922 1185 904 1150 q 945 1199 932 1193 q 969 1204 958 1204 q 1031 1185 1018 1204 q 943 1038 1017 1088 q 769 985 869 988 m 607 308 q 317 253 425 278 q 274 182 283 200 q 222 97 244 131 q 172 36 199 63 q 124 -6 143 7 q 81 -18 106 -18 q 8 1 39 -18 q -24 39 -24 19 q 7 101 -21 42 q 110 249 35 160 q 103 276 110 260 q 96 296 96 293 q 222 393 96 336 q 372 601 293 499 q 564 844 450 704 q 635 901 592 879 q 721 924 678 924 q 788 915 765 924 q 816 893 810 907 q 822 854 822 879 q 815 792 817 813 q 784 503 794 624 q 774 264 774 383 q 783 63 774 154 q 754 2 779 29 q 696 -25 729 -25 q 612 7 632 -25 q 592 115 592 39 q 607 308 592 171 m 426 413 q 503 425 451 418 l 614 442 q 643 719 626 635 q 426 413 589 656 z "},"Ẳ":{"ha":911,"x_min":-24,"x_max":1031,"o":"m 851 1200 q 825 1174 833 1194 q 811 1157 818 1163 q 788 1151 804 1151 q 756 1156 772 1151 q 740 1174 740 1161 l 753 1208 q 774 1234 760 1225 q 814 1251 789 1243 q 855 1271 842 1261 q 868 1301 868 1281 q 859 1317 868 1310 q 828 1325 850 1325 q 779 1314 799 1325 q 750 1306 763 1306 q 731 1317 739 1306 q 722 1340 722 1328 q 758 1385 722 1372 q 843 1397 794 1397 q 928 1376 892 1397 q 964 1314 964 1354 q 851 1200 964 1244 m 769 985 q 633 1019 685 985 q 582 1115 582 1053 q 656 1192 582 1192 q 694 1142 693 1192 q 712 1103 696 1115 q 778 1092 728 1092 q 848 1102 822 1092 q 889 1131 874 1113 q 922 1185 904 1150 q 945 1199 932 1193 q 969 1204 958 1204 q 1031 1185 1018 1204 q 943 1038 1017 1088 q 769 985 869 988 m 607 308 q 317 253 425 278 q 274 182 283 200 q 222 97 244 131 q 172 36 199 63 q 124 -6 143 7 q 81 -18 106 -18 q 8 1 39 -18 q -24 39 -24 19 q 7 101 -21 42 q 110 249 35 160 q 103 276 110 260 q 96 296 96 293 q 222 393 96 336 q 372 601 293 499 q 564 844 450 704 q 635 901 592 879 q 721 924 678 924 q 788 915 765 924 q 816 893 810 907 q 822 854 822 879 q 815 792 817 813 q 784 503 794 624 q 774 264 774 383 q 783 63 774 154 q 754 2 779 29 q 696 -25 729 -25 q 612 7 632 -25 q 592 115 592 39 q 607 308 592 171 m 426 413 q 503 425 451 418 l 614 442 q 643 719 626 635 q 426 413 589 656 z "},"Ẵ":{"ha":911,"x_min":-24,"x_max":1050,"o":"m 739 1304 q 632 1239 700 1304 q 613 1260 618 1246 q 607 1304 607 1274 q 632 1350 607 1326 q 693 1389 657 1374 q 760 1404 729 1404 q 869 1365 814 1404 q 911 1342 894 1349 q 949 1335 928 1335 q 976 1342 964 1335 q 1001 1360 989 1350 q 1019 1376 1013 1371 q 1031 1381 1026 1381 q 1041 1375 1036 1381 q 1047 1369 1046 1369 q 1050 1360 1050 1369 q 1026 1300 1050 1328 q 972 1256 1003 1272 q 921 1239 940 1239 q 873 1247 893 1239 q 817 1275 853 1254 q 776 1298 793 1292 q 739 1304 758 1304 m 769 985 q 633 1019 685 985 q 582 1115 582 1053 q 656 1192 582 1192 q 694 1142 693 1192 q 712 1103 696 1115 q 778 1092 728 1092 q 848 1102 822 1092 q 889 1131 874 1113 q 922 1185 904 1150 q 945 1199 932 1193 q 969 1204 958 1204 q 1031 1185 1018 1204 q 943 1038 1017 1088 q 769 985 869 988 m 607 308 q 317 253 425 278 q 274 182 283 200 q 222 97 244 131 q 172 36 199 63 q 124 -6 143 7 q 81 -18 106 -18 q 8 1 39 -18 q -24 39 -24 19 q 7 101 -21 42 q 110 249 35 160 q 103 276 110 260 q 96 296 96 293 q 222 393 96 336 q 372 601 293 499 q 564 844 450 704 q 635 901 592 879 q 721 924 678 924 q 788 915 765 924 q 816 893 810 907 q 822 854 822 879 q 815 792 817 813 q 784 503 794 624 q 774 264 774 383 q 783 63 774 154 q 754 2 779 29 q 696 -25 729 -25 q 612 7 632 -25 q 592 115 592 39 q 607 308 592 171 m 426 413 q 503 425 451 418 l 614 442 q 643 719 626 635 q 426 413 589 656 z "},"Ǎ":{"ha":911,"x_min":-24,"x_max":1025,"o":"m 760 990 q 710 1003 732 990 q 657 1058 689 1017 l 586 1150 q 572 1185 572 1168 q 594 1223 572 1207 q 644 1239 615 1239 q 697 1210 672 1239 l 774 1118 q 897 1219 857 1190 q 954 1249 936 1249 q 1003 1236 982 1249 q 1025 1203 1025 1224 q 1020 1175 1025 1188 q 996 1147 1015 1163 l 965 1122 q 822 1007 861 1036 q 760 990 801 990 m 607 308 q 317 253 425 278 q 274 182 283 200 q 222 97 244 131 q 172 36 199 63 q 124 -6 143 7 q 81 -18 106 -18 q 8 1 39 -18 q -24 39 -24 19 q 7 101 -21 42 q 110 249 35 160 q 103 276 110 260 q 96 296 96 293 q 222 393 96 336 q 372 601 293 499 q 564 844 450 704 q 635 901 592 879 q 721 924 678 924 q 788 915 765 924 q 816 893 810 907 q 822 854 822 879 q 815 792 817 813 q 784 503 794 624 q 774 264 774 383 q 783 63 774 154 q 754 2 779 29 q 696 -25 729 -25 q 612 7 632 -25 q 592 115 592 39 q 607 308 592 171 m 426 413 q 503 425 451 418 l 614 442 q 643 719 626 635 q 426 413 589 656 z "},"Â":{"ha":911,"x_min":-24,"x_max":1006,"o":"m 818 1282 q 867 1269 846 1282 q 921 1214 889 1256 l 992 1122 q 1006 1088 1006 1104 q 984 1049 1006 1065 q 933 1033 963 1033 q 881 1063 906 1033 l 804 1154 q 681 1053 721 1082 q 624 1024 642 1024 q 574 1036 596 1024 q 553 1069 553 1049 q 558 1097 553 1085 q 582 1125 563 1110 l 613 1150 q 756 1265 717 1236 q 818 1282 776 1282 m 607 308 q 317 253 425 278 q 274 182 283 200 q 222 97 244 131 q 172 36 199 63 q 124 -6 143 7 q 81 -18 106 -18 q 8 1 39 -18 q -24 39 -24 19 q 7 101 -21 42 q 110 249 35 160 q 103 276 110 260 q 96 296 96 293 q 222 393 96 336 q 372 601 293 499 q 564 844 450 704 q 635 901 592 879 q 721 924 678 924 q 788 915 765 924 q 816 893 810 907 q 822 854 822 879 q 815 792 817 813 q 784 503 794 624 q 774 264 774 383 q 783 63 774 154 q 754 2 779 29 q 696 -25 729 -25 q 612 7 632 -25 q 592 115 592 39 q 607 308 592 171 m 426 413 q 503 425 451 418 l 614 442 q 643 719 626 635 q 426 413 589 656 z "},"Ấ":{"ha":911,"x_min":-24,"x_max":1188,"o":"m 951 1196 q 1026 1297 983 1244 q 1083 1350 1068 1350 q 1147 1331 1106 1350 q 1188 1299 1188 1313 q 1174 1273 1188 1286 q 1118 1232 1160 1260 l 1071 1199 q 1020 1164 1038 1174 q 985 1154 1003 1154 q 957 1161 965 1154 q 949 1185 949 1168 q 951 1196 949 1190 m 806 1233 q 855 1220 833 1233 q 908 1165 876 1207 l 979 1074 q 993 1039 993 1056 q 972 1001 993 1017 q 921 985 950 985 q 868 1014 893 985 l 792 1106 q 669 1004 708 1033 q 611 975 629 975 q 562 988 583 975 q 540 1021 540 1000 q 545 1049 540 1036 q 569 1076 550 1061 l 600 1101 q 743 1217 704 1188 q 806 1233 764 1233 m 607 308 q 317 253 425 278 q 274 182 283 200 q 222 97 244 131 q 172 36 199 63 q 124 -6 143 7 q 81 -18 106 -18 q 8 1 39 -18 q -24 39 -24 19 q 7 101 -21 42 q 110 249 35 160 q 103 276 110 260 q 96 296 96 293 q 222 393 96 336 q 372 601 293 499 q 564 844 450 704 q 635 901 592 879 q 721 924 678 924 q 788 915 765 924 q 816 893 810 907 q 822 854 822 879 q 815 792 817 813 q 784 503 794 624 q 774 264 774 383 q 783 63 774 154 q 754 2 779 29 q 696 -25 729 -25 q 612 7 632 -25 q 592 115 592 39 q 607 308 592 171 m 426 413 q 503 425 451 418 l 614 442 q 643 719 626 635 q 426 413 589 656 z "},"Ậ":{"ha":911,"x_min":-24,"x_max":993,"o":"m 806 1233 q 855 1220 833 1233 q 908 1165 876 1207 l 979 1074 q 993 1039 993 1056 q 972 1001 993 1017 q 921 985 950 985 q 868 1014 893 985 l 792 1106 q 669 1004 708 1033 q 611 975 629 975 q 562 988 583 975 q 540 1021 540 1000 q 545 1049 540 1036 q 569 1076 550 1061 l 600 1101 q 743 1217 704 1188 q 806 1233 764 1233 m 607 308 q 317 253 425 278 q 274 182 283 200 q 222 97 244 131 q 172 36 199 63 q 124 -6 143 7 q 81 -18 106 -18 q 8 1 39 -18 q -24 39 -24 19 q 7 101 -21 42 q 110 249 35 160 q 103 276 110 260 q 96 296 96 293 q 222 393 96 336 q 372 601 293 499 q 564 844 450 704 q 635 901 592 879 q 721 924 678 924 q 788 915 765 924 q 816 893 810 907 q 822 854 822 879 q 815 792 817 813 q 784 503 794 624 q 774 264 774 383 q 783 63 774 154 q 754 2 779 29 q 696 -25 729 -25 q 612 7 632 -25 q 592 115 592 39 q 607 308 592 171 m 426 413 q 503 425 451 418 l 614 442 q 643 719 626 635 q 426 413 589 656 m 342 -299 q 281 -273 310 -299 q 251 -215 251 -247 q 290 -133 251 -168 q 376 -99 329 -99 q 439 -128 411 -99 q 467 -193 467 -158 q 429 -268 467 -237 q 342 -299 392 -299 z "},"Ầ":{"ha":911,"x_min":-24,"x_max":993,"o":"m 597 1196 q 600 1185 600 1190 q 592 1161 600 1168 q 564 1154 583 1154 q 528 1164 546 1154 q 478 1199 511 1174 l 431 1232 q 375 1273 389 1260 q 361 1299 361 1286 q 402 1331 361 1313 q 465 1350 443 1350 q 523 1297 481 1350 q 597 1196 565 1244 m 806 1233 q 855 1220 833 1233 q 908 1165 876 1207 l 979 1074 q 993 1039 993 1056 q 972 1001 993 1017 q 921 985 950 985 q 868 1014 893 985 l 792 1106 q 669 1004 708 1033 q 611 975 629 975 q 562 988 583 975 q 540 1021 540 1000 q 545 1049 540 1036 q 569 1076 550 1061 l 600 1101 q 743 1217 704 1188 q 806 1233 764 1233 m 607 308 q 317 253 425 278 q 274 182 283 200 q 222 97 244 131 q 172 36 199 63 q 124 -6 143 7 q 81 -18 106 -18 q 8 1 39 -18 q -24 39 -24 19 q 7 101 -21 42 q 110 249 35 160 q 103 276 110 260 q 96 296 96 293 q 222 393 96 336 q 372 601 293 499 q 564 844 450 704 q 635 901 592 879 q 721 924 678 924 q 788 915 765 924 q 816 893 810 907 q 822 854 822 879 q 815 792 817 813 q 784 503 794 624 q 774 264 774 383 q 783 63 774 154 q 754 2 779 29 q 696 -25 729 -25 q 612 7 632 -25 q 592 115 592 39 q 607 308 592 171 m 426 413 q 503 425 451 418 l 614 442 q 643 719 626 635 q 426 413 589 656 z "},"Ẩ":{"ha":911,"x_min":-24,"x_max":1203,"o":"m 1063 1181 q 1013 1150 1047 1150 q 984 1156 994 1150 q 974 1172 974 1163 q 992 1244 974 1178 q 1011 1272 996 1263 q 1053 1289 1026 1281 q 1094 1308 1081 1299 q 1107 1338 1107 1317 q 1098 1353 1107 1346 q 1067 1361 1089 1361 q 1018 1350 1038 1361 q 989 1342 1001 1342 q 969 1353 978 1342 q 961 1376 961 1364 q 997 1421 961 1408 q 1082 1433 1033 1433 q 1167 1412 1131 1433 q 1203 1350 1203 1390 q 1106 1239 1203 1278 q 1078 1222 1086 1232 q 1068 1199 1071 1211 q 1063 1181 1065 1188 m 806 1233 q 855 1220 833 1233 q 908 1165 876 1207 l 979 1074 q 993 1039 993 1056 q 972 1001 993 1017 q 921 985 950 985 q 868 1014 893 985 l 792 1106 q 669 1004 708 1033 q 611 975 629 975 q 562 988 583 975 q 540 1021 540 1000 q 545 1049 540 1036 q 569 1076 550 1061 l 600 1101 q 743 1217 704 1188 q 806 1233 764 1233 m 607 308 q 317 253 425 278 q 274 182 283 200 q 222 97 244 131 q 172 36 199 63 q 124 -6 143 7 q 81 -18 106 -18 q 8 1 39 -18 q -24 39 -24 19 q 7 101 -21 42 q 110 249 35 160 q 103 276 110 260 q 96 296 96 293 q 222 393 96 336 q 372 601 293 499 q 564 844 450 704 q 635 901 592 879 q 721 924 678 924 q 788 915 765 924 q 816 893 810 907 q 822 854 822 879 q 815 792 817 813 q 784 503 794 624 q 774 264 774 383 q 783 63 774 154 q 754 2 779 29 q 696 -25 729 -25 q 612 7 632 -25 q 592 115 592 39 q 607 308 592 171 m 426 413 q 503 425 451 418 l 614 442 q 643 719 626 635 q 426 413 589 656 z "},"Ẫ":{"ha":911,"x_min":-24,"x_max":1074,"o":"m 763 1336 q 656 1271 724 1336 q 636 1292 642 1278 q 631 1336 631 1306 q 656 1382 631 1358 q 717 1421 681 1406 q 783 1436 753 1436 q 893 1397 838 1436 q 935 1374 918 1381 q 972 1367 951 1367 q 1000 1374 988 1367 q 1024 1392 1013 1382 q 1043 1408 1036 1403 q 1054 1413 1050 1413 q 1065 1407 1060 1413 q 1071 1401 1069 1401 q 1074 1392 1074 1401 q 1050 1332 1074 1360 q 995 1288 1026 1304 q 944 1271 964 1271 q 897 1278 917 1271 q 840 1307 876 1286 q 799 1330 817 1324 q 763 1336 782 1336 m 806 1233 q 855 1220 833 1233 q 908 1165 876 1207 l 979 1074 q 993 1039 993 1056 q 972 1001 993 1017 q 921 985 950 985 q 868 1014 893 985 l 792 1106 q 669 1004 708 1033 q 611 975 629 975 q 562 988 583 975 q 540 1021 540 1000 q 545 1049 540 1036 q 569 1076 550 1061 l 600 1101 q 743 1217 704 1188 q 806 1233 764 1233 m 607 308 q 317 253 425 278 q 274 182 283 200 q 222 97 244 131 q 172 36 199 63 q 124 -6 143 7 q 81 -18 106 -18 q 8 1 39 -18 q -24 39 -24 19 q 7 101 -21 42 q 110 249 35 160 q 103 276 110 260 q 96 296 96 293 q 222 393 96 336 q 372 601 293 499 q 564 844 450 704 q 635 901 592 879 q 721 924 678 924 q 788 915 765 924 q 816 893 810 907 q 822 854 822 879 q 815 792 817 813 q 784 503 794 624 q 774 264 774 383 q 783 63 774 154 q 754 2 779 29 q 696 -25 729 -25 q 612 7 632 -25 q 592 115 592 39 q 607 308 592 171 m 426 413 q 503 425 451 418 l 614 442 q 643 719 626 635 q 426 413 589 656 z "},"Ȁ":{"ha":911,"x_min":-24,"x_max":963,"o":"m 719 1039 q 713 1002 719 1022 q 692 982 706 982 l 686 983 q 658 1002 672 988 q 622 1043 643 1017 q 569 1099 589 1081 q 525 1126 550 1118 q 501 1140 510 1132 q 493 1165 493 1147 q 510 1228 493 1197 q 557 1258 528 1258 q 711 1075 631 1258 q 719 1039 719 1057 m 963 1039 q 956 1002 963 1022 q 935 982 949 982 l 929 983 q 901 1002 915 988 q 865 1043 886 1017 q 813 1099 832 1081 q 768 1126 793 1118 q 744 1140 753 1132 q 736 1165 736 1147 q 753 1228 736 1197 q 800 1258 771 1258 q 954 1075 874 1258 q 963 1039 963 1057 m 607 308 q 317 253 425 278 q 274 182 283 200 q 222 97 244 131 q 172 36 199 63 q 124 -6 143 7 q 81 -18 106 -18 q 8 1 39 -18 q -24 39 -24 19 q 7 101 -21 42 q 110 249 35 160 q 103 276 110 260 q 96 296 96 293 q 222 393 96 336 q 372 601 293 499 q 564 844 450 704 q 635 901 592 879 q 721 924 678 924 q 788 915 765 924 q 816 893 810 907 q 822 854 822 879 q 815 792 817 813 q 784 503 794 624 q 774 264 774 383 q 783 63 774 154 q 754 2 779 29 q 696 -25 729 -25 q 612 7 632 -25 q 592 115 592 39 q 607 308 592 171 m 426 413 q 503 425 451 418 l 614 442 q 643 719 626 635 q 426 413 589 656 z "},"Ä":{"ha":911,"x_min":-24,"x_max":1032,"o":"m 908 997 q 844 1025 876 997 q 813 1083 813 1053 q 849 1163 813 1132 q 932 1194 885 1194 q 1000 1167 968 1194 q 1032 1106 1032 1139 q 995 1029 1032 1061 q 908 997 958 997 m 592 992 q 531 1017 560 992 q 501 1075 501 1043 q 540 1157 501 1122 q 626 1192 579 1192 q 689 1162 661 1192 q 717 1097 717 1132 q 679 1022 717 1053 q 592 992 642 992 m 607 308 q 317 253 425 278 q 274 182 283 200 q 222 97 244 131 q 172 36 199 63 q 124 -6 143 7 q 81 -18 106 -18 q 8 1 39 -18 q -24 39 -24 19 q 7 101 -21 42 q 110 249 35 160 q 103 276 110 260 q 96 296 96 293 q 222 393 96 336 q 372 601 293 499 q 564 844 450 704 q 635 901 592 879 q 721 924 678 924 q 788 915 765 924 q 816 893 810 907 q 822 854 822 879 q 815 792 817 813 q 784 503 794 624 q 774 264 774 383 q 783 63 774 154 q 754 2 779 29 q 696 -25 729 -25 q 612 7 632 -25 q 592 115 592 39 q 607 308 592 171 m 426 413 q 503 425 451 418 l 614 442 q 643 719 626 635 q 426 413 589 656 z "},"Ạ":{"ha":911,"x_min":-24,"x_max":822,"o":"m 607 308 q 317 253 425 278 q 274 182 283 200 q 222 97 244 131 q 172 36 199 63 q 124 -6 143 7 q 81 -18 106 -18 q 8 1 39 -18 q -24 39 -24 19 q 7 101 -21 42 q 110 249 35 160 q 103 276 110 260 q 96 296 96 293 q 222 393 96 336 q 372 601 293 499 q 564 844 450 704 q 635 901 592 879 q 721 924 678 924 q 788 915 765 924 q 816 893 810 907 q 822 854 822 879 q 815 792 817 813 q 784 503 794 624 q 774 264 774 383 q 783 63 774 154 q 754 2 779 29 q 696 -25 729 -25 q 612 7 632 -25 q 592 115 592 39 q 607 308 592 171 m 426 413 q 503 425 451 418 l 614 442 q 643 719 626 635 q 426 413 589 656 m 342 -299 q 281 -273 310 -299 q 251 -215 251 -247 q 290 -133 251 -168 q 376 -99 329 -99 q 439 -128 411 -99 q 467 -193 467 -158 q 429 -268 467 -237 q 342 -299 392 -299 z "},"À":{"ha":911,"x_min":-24,"x_max":857,"o":"m 853 1050 q 857 1033 857 1044 q 844 1000 857 1010 q 806 990 832 990 q 725 1013 769 990 q 596 1096 681 1036 q 517 1156 536 1138 q 497 1192 497 1174 q 535 1240 497 1214 q 601 1267 572 1267 q 670 1226 617 1267 q 778 1132 724 1185 q 853 1050 833 1079 m 607 308 q 317 253 425 278 q 274 182 283 200 q 222 97 244 131 q 172 36 199 63 q 124 -6 143 7 q 81 -18 106 -18 q 8 1 39 -18 q -24 39 -24 19 q 7 101 -21 42 q 110 249 35 160 q 103 276 110 260 q 96 296 96 293 q 222 393 96 336 q 372 601 293 499 q 564 844 450 704 q 635 901 592 879 q 721 924 678 924 q 788 915 765 924 q 816 893 810 907 q 822 854 822 879 q 815 792 817 813 q 784 503 794 624 q 774 264 774 383 q 783 63 774 154 q 754 2 779 29 q 696 -25 729 -25 q 612 7 632 -25 q 592 115 592 39 q 607 308 592 171 m 426 413 q 503 425 451 418 l 614 442 q 643 719 626 635 q 426 413 589 656 z "},"Ả":{"ha":911,"x_min":-24,"x_max":992,"o":"m 817 1014 q 753 976 796 976 q 718 983 731 976 q 706 1003 706 990 q 728 1094 706 1013 q 751 1128 733 1117 q 804 1150 769 1139 q 856 1173 839 1161 q 872 1210 872 1185 q 860 1231 872 1221 q 821 1240 849 1240 q 777 1234 792 1240 q 761 1226 763 1228 q 749 1220 760 1225 q 724 1215 739 1215 q 699 1229 710 1215 q 689 1258 689 1243 q 734 1314 689 1299 q 840 1329 779 1329 q 946 1303 900 1329 q 992 1225 992 1276 q 958 1141 992 1172 q 872 1089 925 1110 q 838 1065 847 1079 q 824 1037 828 1051 q 817 1014 819 1022 m 607 308 q 317 253 425 278 q 274 182 283 200 q 222 97 244 131 q 172 36 199 63 q 124 -6 143 7 q 81 -18 106 -18 q 8 1 39 -18 q -24 39 -24 19 q 7 101 -21 42 q 110 249 35 160 q 103 276 110 260 q 96 296 96 293 q 222 393 96 336 q 372 601 293 499 q 564 844 450 704 q 635 901 592 879 q 721 924 678 924 q 788 915 765 924 q 816 893 810 907 q 822 854 822 879 q 815 792 817 813 q 784 503 794 624 q 774 264 774 383 q 783 63 774 154 q 754 2 779 29 q 696 -25 729 -25 q 612 7 632 -25 q 592 115 592 39 q 607 308 592 171 m 426 413 q 503 425 451 418 l 614 442 q 643 719 626 635 q 426 413 589 656 z "},"Ȃ":{"ha":903,"x_min":-24,"x_max":982,"o":"m 785 1189 q 924 1158 867 1189 q 982 1068 982 1128 q 914 990 982 990 q 854 1029 857 990 q 776 1076 851 1076 q 632 999 656 1076 q 612 980 629 988 q 582 972 594 972 q 529 979 547 972 q 511 1006 511 986 q 785 1189 511 1176 m 607 308 q 317 253 425 278 q 274 182 283 200 q 222 97 244 131 q 172 36 199 63 q 124 -6 143 7 q 81 -18 106 -18 q 8 1 39 -18 q -24 39 -24 19 q 7 101 -21 42 q 110 249 35 160 q 103 276 110 260 q 96 296 96 293 q 222 393 96 336 q 372 601 293 499 q 564 844 450 704 q 635 901 592 879 q 721 924 678 924 q 788 915 765 924 q 816 893 810 907 q 822 854 822 879 q 815 792 817 813 q 784 503 794 624 q 774 264 774 383 q 783 63 774 154 q 754 2 779 29 q 696 -25 729 -25 q 612 7 632 -25 q 592 115 592 39 q 607 308 592 171 m 426 413 q 503 425 451 418 l 614 442 q 643 719 626 635 q 426 413 589 656 z "},"Ā":{"ha":911,"x_min":-24,"x_max":982,"o":"m 982 1079 q 954 1026 981 1044 q 886 1006 928 1008 l 596 990 q 536 985 557 985 q 471 1040 475 989 l 471 1051 q 491 1099 474 1082 q 546 1123 508 1115 q 653 1133 583 1131 l 915 1144 q 982 1089 981 1140 l 982 1079 m 607 308 q 317 253 425 278 q 274 182 283 200 q 222 97 244 131 q 172 36 199 63 q 124 -6 143 7 q 81 -18 106 -18 q 8 1 39 -18 q -24 39 -24 19 q 7 101 -21 42 q 110 249 35 160 q 103 276 110 260 q 96 296 96 293 q 222 393 96 336 q 372 601 293 499 q 564 844 450 704 q 635 901 592 879 q 721 924 678 924 q 788 915 765 924 q 816 893 810 907 q 822 854 822 879 q 815 792 817 813 q 784 503 794 624 q 774 264 774 383 q 783 63 774 154 q 754 2 779 29 q 696 -25 729 -25 q 612 7 632 -25 q 592 115 592 39 q 607 308 592 171 m 426 413 q 503 425 451 418 l 614 442 q 643 719 626 635 q 426 413 589 656 z "},"Ą":{"ha":888,"x_min":-24,"x_max":822,"o":"m 785 -215 q 804 -243 804 -229 q 758 -292 804 -278 q 665 -306 713 -306 q 552 -271 599 -306 q 506 -161 506 -236 q 541 -84 506 -125 q 635 -12 576 -43 q 601 31 610 0 q 592 115 592 61 q 607 308 592 171 q 317 253 425 278 q 274 182 283 200 q 222 97 244 131 q 172 36 199 63 q 124 -6 143 7 q 81 -18 106 -18 q 8 1 39 -18 q -24 39 -24 19 q 7 101 -21 42 q 110 249 35 160 q 103 276 110 260 q 96 296 96 293 q 222 393 96 336 q 372 601 293 499 q 564 844 450 704 q 635 901 592 879 q 721 924 678 924 q 788 915 765 924 q 816 893 810 907 q 822 854 822 879 q 815 792 817 813 q 784 503 794 624 q 774 264 774 383 q 783 63 774 154 q 751 0 779 25 l 754 0 q 679 -84 703 -47 q 656 -161 656 -121 q 718 -224 656 -224 q 785 -215 750 -224 m 614 442 q 643 719 626 635 q 426 413 589 656 q 503 425 451 418 l 614 442 z "},"Å":{"ha":911,"x_min":-24,"x_max":953,"o":"m 757 956 q 662 994 697 956 q 626 1089 626 1032 q 681 1207 626 1163 q 822 1251 736 1251 q 913 1211 874 1251 q 953 1110 953 1171 q 926 1033 953 1068 q 853 976 899 997 q 757 956 808 956 m 774 1028 q 832 1051 807 1028 q 857 1117 857 1074 q 842 1156 857 1142 q 806 1171 828 1171 q 717 1083 717 1171 q 735 1043 717 1058 q 774 1028 753 1028 m 607 308 q 317 253 425 278 q 274 182 283 200 q 222 97 244 131 q 172 36 199 63 q 124 -6 143 7 q 81 -18 106 -18 q 8 1 39 -18 q -24 39 -24 19 q 7 101 -21 42 q 110 249 35 160 q 103 276 110 260 q 96 296 96 293 q 222 393 96 336 q 372 601 293 499 q 564 844 450 704 q 635 901 592 879 q 721 924 678 924 q 788 915 765 924 q 816 893 810 907 q 822 854 822 879 q 815 792 817 813 q 784 503 794 624 q 774 264 774 383 q 783 63 774 154 q 754 2 779 29 q 696 -25 729 -25 q 612 7 632 -25 q 592 115 592 39 q 607 308 592 171 m 426 413 q 503 425 451 418 l 614 442 q 643 719 626 635 q 426 413 589 656 z "},"Ǻ":{"ha":911,"x_min":-24,"x_max":1122,"o":"m 1017 1461 q 1084 1437 1046 1461 q 1122 1394 1122 1413 q 1102 1361 1122 1378 q 1022 1308 1082 1344 q 894 1236 939 1257 q 811 1215 849 1215 q 771 1224 783 1215 q 758 1253 758 1232 q 763 1268 758 1263 q 838 1340 782 1293 q 947 1424 893 1388 q 1017 1461 1001 1461 m 804 1181 q 895 1140 856 1181 q 935 1039 935 1100 q 901 953 935 992 q 814 897 867 915 q 822 854 822 883 q 815 792 817 813 q 784 503 794 624 q 774 264 774 383 q 783 63 774 154 q 754 2 779 29 q 696 -25 729 -25 q 612 7 632 -25 q 592 115 592 39 q 607 308 592 171 q 317 253 425 278 q 274 182 283 200 q 222 97 244 131 q 172 36 199 63 q 124 -6 143 7 q 81 -18 106 -18 q 8 1 39 -18 q -24 39 -24 19 q 7 101 -21 42 q 110 249 35 160 q 103 276 110 260 q 96 296 96 293 q 222 393 96 336 q 372 601 293 499 q 564 844 450 704 q 657 911 603 890 q 621 957 633 929 q 608 1018 608 985 q 663 1136 608 1092 q 804 1181 718 1181 m 756 957 q 814 980 789 957 q 839 1046 839 1003 q 824 1085 839 1071 q 788 1100 810 1100 q 699 1013 699 1100 q 717 972 699 988 q 756 957 735 957 m 614 442 q 643 719 626 635 q 426 413 589 656 q 503 425 451 418 l 614 442 z "},"Ã":{"ha":911,"x_min":-24,"x_max":1024,"o":"m 672 1085 q 551 1003 626 1085 q 528 1027 535 1013 q 521 1078 521 1042 q 550 1136 521 1106 q 620 1187 579 1167 q 694 1207 661 1207 q 819 1158 756 1207 q 867 1129 846 1138 q 911 1121 888 1121 q 942 1130 928 1121 q 969 1152 956 1139 q 990 1172 983 1165 q 1003 1178 996 1178 q 1014 1171 1008 1178 q 1021 1164 1019 1164 q 1024 1151 1024 1164 q 997 1078 1024 1113 q 936 1024 971 1044 q 881 1003 901 1003 q 823 1013 849 1003 q 761 1047 797 1024 q 715 1076 735 1068 q 672 1085 694 1085 m 607 308 q 317 253 425 278 q 274 182 283 200 q 222 97 244 131 q 172 36 199 63 q 124 -6 143 7 q 81 -18 106 -18 q 8 1 39 -18 q -24 39 -24 19 q 7 101 -21 42 q 110 249 35 160 q 103 276 110 260 q 96 296 96 293 q 222 393 96 336 q 372 601 293 499 q 564 844 450 704 q 635 901 592 879 q 721 924 678 924 q 788 915 765 924 q 816 893 810 907 q 822 854 822 879 q 815 792 817 813 q 784 503 794 624 q 774 264 774 383 q 783 63 774 154 q 754 2 779 29 q 696 -25 729 -25 q 612 7 632 -25 q 592 115 592 39 q 607 308 592 171 m 426 413 q 503 425 451 418 l 614 442 q 643 719 626 635 q 426 413 589 656 z "},"Æ":{"ha":1189,"x_min":-24,"x_max":1276,"o":"m 960 404 q 756 376 839 390 l 713 203 l 696 140 q 1049 189 851 171 q 1103 125 1103 165 q 1078 76 1103 100 q 1021 43 1053 53 l 935 32 q 651 -7 758 13 q 594 -17 638 -17 q 528 19 556 -17 q 500 94 500 56 q 504 124 500 110 l 547 297 l 517 292 q 318 253 369 265 q 275 182 285 200 q 223 97 246 131 q 174 36 200 63 q 125 -6 144 7 q 81 -18 106 -18 q 8 1 39 -18 q -24 39 -24 19 q 7 101 -21 42 q 110 249 35 160 q 103 276 110 260 q 96 296 96 293 q 222 393 96 336 q 372 601 293 499 q 564 844 450 704 q 632 890 589 875 q 724 904 675 904 q 880 911 786 904 q 1057 926 974 918 q 1147 934 1092 929 q 1226 939 1203 939 q 1276 872 1276 913 q 1249 826 1276 847 q 1189 796 1222 804 q 1167 794 1179 794 q 1143 793 1156 794 q 840 769 893 774 q 782 522 815 671 q 929 544 871 536 q 1060 558 988 553 q 1114 494 1114 535 q 1089 446 1114 469 q 1032 413 1064 422 l 960 404 m 424 413 q 492 422 442 418 q 582 435 533 426 l 660 739 q 547 589 617 685 q 424 413 476 493 z "},"Ǽ":{"ha":1189,"x_min":-24,"x_max":1276,"o":"m 801 1050 q 876 1132 821 1079 q 984 1226 931 1185 q 1053 1267 1038 1267 q 1119 1240 1082 1267 q 1157 1192 1157 1214 q 1138 1156 1157 1174 q 1058 1096 1118 1138 q 929 1013 974 1036 q 849 990 885 990 q 810 1000 822 990 q 797 1033 797 1010 q 801 1050 797 1044 m 960 404 q 756 376 839 390 l 713 203 l 696 140 q 1049 189 851 171 q 1103 125 1103 165 q 1078 76 1103 100 q 1021 43 1053 53 l 935 32 q 651 -7 758 13 q 594 -17 638 -17 q 528 19 556 -17 q 500 94 500 56 q 504 124 500 110 l 547 297 l 517 292 q 318 253 369 265 q 275 182 285 200 q 223 97 246 131 q 174 36 200 63 q 125 -6 144 7 q 81 -18 106 -18 q 8 1 39 -18 q -24 39 -24 19 q 7 101 -21 42 q 110 249 35 160 q 103 276 110 260 q 96 296 96 293 q 222 393 96 336 q 372 601 293 499 q 564 844 450 704 q 632 890 589 875 q 724 904 675 904 q 880 911 786 904 q 1057 926 974 918 q 1147 934 1092 929 q 1226 939 1203 939 q 1276 872 1276 913 q 1249 826 1276 847 q 1189 796 1222 804 q 1167 794 1179 794 q 1143 793 1156 794 q 840 769 893 774 q 782 522 815 671 q 929 544 871 536 q 1060 558 988 553 q 1114 494 1114 535 q 1089 446 1114 469 q 1032 413 1064 422 l 960 404 m 424 413 q 492 422 442 418 q 582 435 533 426 l 660 739 q 547 589 617 685 q 424 413 476 493 z "},"B":{"ha":876,"x_min":57,"x_max":843,"o":"m 631 476 q 755 412 724 461 q 786 296 786 363 q 785 275 786 282 q 643 34 758 106 q 371 -37 528 -37 q 284 -28 331 -37 q 208 -3 238 -19 q 131 -18 188 -18 q 78 12 93 -18 q 63 85 63 42 q 67 114 63 100 l 222 736 q 100 667 124 703 q 57 751 57 713 q 81 814 57 782 q 261 882 136 850 q 290 922 272 911 q 342 933 307 933 q 397 928 371 933 q 433 911 422 922 q 568 919 500 919 q 776 863 710 919 q 843 707 843 807 q 783 562 843 622 q 631 476 724 501 m 349 513 q 653 690 653 538 q 626 758 653 733 q 536 782 600 782 q 410 775 479 782 l 349 513 m 353 97 q 474 120 415 97 q 571 185 533 143 q 608 285 608 228 q 576 366 608 332 q 485 400 543 400 q 326 392 375 400 q 253 114 304 317 q 353 97 297 97 z "},"C":{"ha":867,"x_min":19,"x_max":853,"o":"m 790 242 q 708 116 769 179 q 552 12 646 53 q 347 -29 458 -29 q 99 53 178 -29 q 19 265 19 136 q 101 598 19 449 q 322 833 183 747 q 622 918 461 918 q 739 889 686 918 q 822 805 792 860 q 853 676 853 750 q 822 606 853 635 q 738 576 790 576 q 681 599 696 576 q 667 656 667 621 l 668 700 q 640 749 668 725 q 589 772 613 772 q 418 702 511 772 q 261 513 325 632 q 197 256 197 394 q 247 151 197 192 q 374 111 297 111 q 439 128 399 111 q 513 169 479 144 q 558 218 547 194 q 606 296 575 253 q 667 339 636 339 q 763 308 738 339 q 790 242 789 278 z "},"Ć":{"ha":867,"x_min":19,"x_max":853,"o":"m 489 1050 q 563 1132 508 1079 q 672 1226 618 1185 q 740 1267 725 1267 q 807 1240 769 1267 q 844 1192 844 1214 q 825 1156 844 1174 q 746 1096 806 1138 q 617 1013 661 1036 q 536 990 572 990 q 497 1000 510 990 q 485 1033 485 1010 q 489 1050 485 1044 m 790 242 q 708 116 769 179 q 552 12 646 53 q 347 -29 458 -29 q 99 53 178 -29 q 19 265 19 136 q 101 598 19 449 q 322 833 183 747 q 622 918 461 918 q 739 889 686 918 q 822 805 792 860 q 853 676 853 750 q 822 606 853 635 q 738 576 790 576 q 681 599 696 576 q 667 656 667 621 l 668 700 q 640 749 668 725 q 589 772 613 772 q 418 702 511 772 q 261 513 325 632 q 197 256 197 394 q 247 151 197 192 q 374 111 297 111 q 439 128 399 111 q 513 169 479 144 q 558 218 547 194 q 606 296 575 253 q 667 339 636 339 q 763 308 738 339 q 790 242 789 278 z "},"Č":{"ha":867,"x_min":19,"x_max":889,"o":"m 624 990 q 574 1003 596 990 q 521 1058 553 1017 l 450 1150 q 436 1185 436 1168 q 458 1223 436 1207 q 508 1239 479 1239 q 561 1210 536 1239 l 638 1118 q 760 1219 721 1190 q 818 1249 800 1249 q 867 1236 846 1249 q 889 1203 889 1224 q 884 1175 889 1188 q 860 1147 879 1163 l 829 1122 q 686 1007 725 1036 q 624 990 665 990 m 790 242 q 708 116 769 179 q 552 12 646 53 q 347 -29 458 -29 q 99 53 178 -29 q 19 265 19 136 q 101 598 19 449 q 322 833 183 747 q 622 918 461 918 q 739 889 686 918 q 822 805 792 860 q 853 676 853 750 q 822 606 853 635 q 738 576 790 576 q 681 599 696 576 q 667 656 667 621 l 668 700 q 640 749 668 725 q 589 772 613 772 q 418 702 511 772 q 261 513 325 632 q 197 256 197 394 q 247 151 197 192 q 374 111 297 111 q 439 128 399 111 q 513 169 479 144 q 558 218 547 194 q 606 296 575 253 q 667 339 636 339 q 763 308 738 339 q 790 242 789 278 z "},"Ç":{"ha":867,"x_min":19,"x_max":853,"o":"m 738 576 q 681 599 696 576 q 667 656 667 621 l 668 700 q 640 749 668 725 q 589 772 613 772 q 418 702 511 772 q 261 513 325 632 q 197 256 197 394 q 247 151 197 192 q 374 111 297 111 q 439 128 399 111 q 513 169 479 144 q 558 218 547 194 q 606 296 575 253 q 667 339 636 339 q 763 308 738 339 q 790 242 789 278 q 708 116 769 179 q 552 12 646 53 q 347 -29 458 -29 l 343 -29 q 304 -94 311 -79 q 351 -90 329 -90 q 449 -122 404 -90 q 493 -194 493 -153 q 428 -307 493 -267 q 251 -347 363 -347 q 140 -317 193 -347 q 88 -244 88 -286 q 105 -233 88 -239 q 143 -226 122 -226 q 178 -231 164 -226 q 210 -244 192 -236 q 237 -257 226 -253 q 263 -261 247 -261 q 333 -246 308 -261 q 358 -203 358 -231 q 343 -174 358 -183 q 304 -164 328 -164 q 285 -167 296 -164 q 271 -171 275 -169 q 236 -178 253 -178 q 176 -173 197 -178 q 156 -160 156 -168 q 231 -17 156 -121 q 71 86 122 10 q 19 265 19 163 q 101 598 19 449 q 322 833 183 747 q 622 918 461 918 q 739 889 686 918 q 822 805 792 860 q 853 676 853 750 q 822 606 853 635 q 738 576 790 576 z "},"Ĉ":{"ha":867,"x_min":19,"x_max":907,"o":"m 719 1249 q 769 1235 747 1249 q 822 1181 790 1222 l 893 1089 q 907 1054 907 1071 q 885 1016 907 1032 q 835 1000 864 1000 q 782 1029 807 1000 l 706 1121 q 583 1019 622 1049 q 525 990 543 990 q 476 1003 497 990 q 454 1036 454 1015 q 459 1064 454 1051 q 483 1092 464 1076 l 514 1117 q 657 1232 618 1203 q 719 1249 678 1249 m 790 242 q 708 116 769 179 q 552 12 646 53 q 347 -29 458 -29 q 99 53 178 -29 q 19 265 19 136 q 101 598 19 449 q 322 833 183 747 q 622 918 461 918 q 739 889 686 918 q 822 805 792 860 q 853 676 853 750 q 822 606 853 635 q 738 576 790 576 q 681 599 696 576 q 667 656 667 621 l 668 700 q 640 749 668 725 q 589 772 613 772 q 418 702 511 772 q 261 513 325 632 q 197 256 197 394 q 247 151 197 192 q 374 111 297 111 q 439 128 399 111 q 513 169 479 144 q 558 218 547 194 q 606 296 575 253 q 667 339 636 339 q 763 308 738 339 q 790 242 789 278 z "},"Ċ":{"ha":867,"x_min":19,"x_max":853,"o":"m 643 989 q 582 1015 611 989 q 553 1072 553 1040 q 592 1154 553 1119 q 678 1189 631 1189 q 740 1159 713 1189 q 768 1094 768 1129 q 731 1019 768 1050 q 643 989 693 989 m 790 242 q 708 116 769 179 q 552 12 646 53 q 347 -29 458 -29 q 99 53 178 -29 q 19 265 19 136 q 101 598 19 449 q 322 833 183 747 q 622 918 461 918 q 739 889 686 918 q 822 805 792 860 q 853 676 853 750 q 822 606 853 635 q 738 576 790 576 q 681 599 696 576 q 667 656 667 621 l 668 700 q 640 749 668 725 q 589 772 613 772 q 418 702 511 772 q 261 513 325 632 q 197 256 197 394 q 247 151 197 192 q 374 111 297 111 q 439 128 399 111 q 513 169 479 144 q 558 218 547 194 q 606 296 575 253 q 667 339 636 339 q 763 308 738 339 q 790 242 789 278 z "},"D":{"ha":831,"x_min":56,"x_max":826,"o":"m 347 953 q 408 942 388 953 q 429 913 429 931 q 476 918 456 917 q 521 919 496 919 q 690 871 621 919 q 792 743 758 822 q 826 572 826 664 q 825 538 826 549 q 742 244 813 371 q 555 47 671 117 q 294 -22 439 -22 q 196 -12 254 -22 q 144 17 174 -8 q 93 76 114 43 q 72 136 72 110 q 76 165 72 151 l 222 728 q 89 667 143 704 q 64 708 72 683 q 56 760 56 733 q 81 814 56 790 q 261 885 146 856 q 347 953 288 953 m 250 132 q 322 124 283 124 q 489 177 419 124 q 598 313 558 231 q 650 482 638 394 q 656 560 656 517 q 613 713 656 657 q 479 769 569 769 q 408 764 440 769 q 303 340 383 656 q 250 132 260 171 z "},"Ǳ":{"ha":1656,"x_min":56,"x_max":1660,"o":"m 521 919 q 690 871 621 919 q 792 743 758 822 q 826 572 826 664 q 825 538 826 549 q 742 244 813 371 q 555 47 671 117 q 294 -22 439 -22 q 196 -12 254 -22 q 144 17 174 -8 q 93 76 114 43 q 72 136 72 110 q 76 165 72 151 l 222 728 q 89 667 143 704 q 64 708 72 683 q 56 760 56 733 q 81 814 56 790 q 261 885 146 856 q 347 953 288 953 q 408 942 388 953 q 429 913 429 931 q 476 918 456 917 q 521 919 496 919 m 1454 171 q 1489 133 1481 151 q 1497 89 1497 114 q 1442 24 1497 50 q 1150 -3 1338 10 q 882 -18 963 -17 q 832 49 832 8 q 849 86 832 65 l 1139 444 l 1406 774 q 1040 721 1108 765 q 1009 765 1021 736 q 997 817 997 793 q 1050 881 997 856 q 1342 908 1154 894 q 1610 922 1529 921 q 1660 856 1660 896 q 1643 818 1660 839 l 1093 138 q 1454 171 1338 153 m 650 482 q 656 560 656 517 q 613 713 656 657 q 479 769 569 769 q 408 764 440 769 q 303 340 383 656 q 250 132 260 171 q 322 124 283 124 q 489 177 419 124 q 598 313 558 231 q 650 482 638 394 m 1032 61 z "},"Ǆ":{"ha":1603,"x_min":56,"x_max":1594,"o":"m 1126 1142 q 1113 1176 1113 1160 q 1134 1215 1113 1199 q 1185 1231 1156 1231 q 1238 1201 1213 1231 l 1314 1110 q 1437 1211 1397 1182 q 1494 1240 1476 1240 q 1544 1228 1522 1240 q 1565 1194 1565 1215 q 1560 1167 1565 1179 q 1536 1139 1556 1154 l 1506 1114 q 1363 999 1401 1028 q 1300 982 1342 982 q 1251 995 1272 982 q 1197 1050 1229 1008 l 1126 1142 m 826 572 q 825 538 826 549 q 742 244 813 371 q 555 47 671 117 q 294 -22 439 -22 q 196 -12 254 -22 q 144 17 174 -8 q 93 76 114 43 q 72 136 72 110 q 76 165 72 151 l 222 728 q 89 667 143 704 q 64 708 72 683 q 56 760 56 733 q 81 814 56 790 q 261 885 146 856 q 347 953 288 953 q 408 942 388 953 q 429 913 429 931 q 476 918 456 917 q 521 919 496 919 q 690 871 621 919 q 792 743 758 822 q 826 572 826 664 m 1389 171 q 1424 133 1415 151 q 1432 89 1432 114 q 1376 24 1432 50 q 1085 -3 1272 10 q 817 -18 897 -17 q 767 49 767 8 q 783 86 767 65 l 1074 444 l 1340 774 q 975 721 1043 765 q 944 765 956 736 q 932 817 932 793 q 985 881 932 856 q 1276 908 1089 894 q 1544 922 1464 921 q 1594 856 1594 896 q 1578 818 1594 839 l 1028 138 q 1389 171 1272 153 m 650 482 q 656 560 656 517 q 613 713 656 657 q 479 769 569 769 q 408 764 440 769 q 303 340 383 656 q 250 132 260 171 q 322 124 283 124 q 489 177 419 124 q 598 313 558 231 q 650 482 638 394 m 967 61 z "},"Ð":{"ha":831,"x_min":4,"x_max":826,"o":"m 521 919 q 690 871 621 919 q 792 743 758 822 q 826 572 826 664 q 825 538 826 549 q 742 244 813 371 q 555 47 671 117 q 294 -22 439 -22 q 196 -12 254 -22 q 144 17 174 -8 q 93 76 114 43 q 72 136 72 110 q 76 165 72 151 l 114 313 l 89 310 l 81 310 q 28 328 49 310 q 6 371 8 346 l 4 388 q 28 444 4 424 q 110 469 51 464 l 157 474 l 222 728 q 89 667 143 704 q 64 708 72 683 q 56 760 56 733 q 81 814 56 790 q 261 885 146 856 q 347 953 288 953 q 408 942 388 953 q 429 913 429 931 q 476 918 456 917 q 521 919 496 919 m 650 482 q 656 560 656 517 q 613 713 656 657 q 479 769 569 769 q 408 764 440 769 l 365 586 l 343 494 q 417 504 397 503 l 425 504 q 479 484 458 504 q 503 435 500 464 l 503 428 q 481 378 503 399 q 422 349 460 357 l 301 332 q 250 132 272 221 q 322 124 283 124 q 489 177 419 124 q 598 313 558 231 q 650 482 638 394 z "},"Ď":{"ha":831,"x_min":56,"x_max":826,"o":"m 542 990 q 492 1003 514 990 q 439 1058 471 1017 l 368 1150 q 354 1185 354 1168 q 376 1223 354 1207 q 426 1239 397 1239 q 479 1210 454 1239 l 556 1118 q 678 1219 639 1190 q 736 1249 718 1249 q 785 1236 764 1249 q 807 1203 807 1224 q 802 1175 807 1188 q 778 1147 797 1163 l 747 1122 q 604 1007 643 1036 q 542 990 583 990 m 347 953 q 408 942 388 953 q 429 913 429 931 q 476 918 456 917 q 521 919 496 919 q 690 871 621 919 q 792 743 758 822 q 826 572 826 664 q 825 538 826 549 q 742 244 813 371 q 555 47 671 117 q 294 -22 439 -22 q 196 -12 254 -22 q 144 17 174 -8 q 93 76 114 43 q 72 136 72 110 q 76 165 72 151 l 222 728 q 89 667 143 704 q 64 708 72 683 q 56 760 56 733 q 81 814 56 790 q 261 885 146 856 q 347 953 288 953 m 250 132 q 322 124 283 124 q 489 177 419 124 q 598 313 558 231 q 650 482 638 394 q 656 560 656 517 q 613 713 656 657 q 479 769 569 769 q 408 764 440 769 q 303 340 383 656 q 250 132 260 171 z "},"Đ":{"ha":831,"x_min":4,"x_max":826,"o":"m 521 919 q 690 871 621 919 q 792 743 758 822 q 826 572 826 664 q 825 538 826 549 q 742 244 813 371 q 555 47 671 117 q 294 -22 439 -22 q 196 -12 254 -22 q 144 17 174 -8 q 93 76 114 43 q 72 136 72 110 q 76 165 72 151 l 114 313 l 89 310 l 81 310 q 28 328 49 310 q 6 371 8 346 l 4 388 q 28 444 4 424 q 110 469 51 464 l 157 474 l 222 728 q 89 667 143 704 q 64 708 72 683 q 56 760 56 733 q 81 814 56 790 q 261 885 146 856 q 347 953 288 953 q 408 942 388 953 q 429 913 429 931 q 476 918 456 917 q 521 919 496 919 m 650 482 q 656 560 656 517 q 613 713 656 657 q 479 769 569 769 q 408 764 440 769 l 365 586 l 343 494 q 417 504 397 503 l 425 504 q 479 484 458 504 q 503 435 500 464 l 503 428 q 481 378 503 399 q 422 349 460 357 l 301 332 q 250 132 272 221 q 322 124 283 124 q 489 177 419 124 q 598 313 558 231 q 650 482 638 394 z "},"Ḍ":{"ha":831,"x_min":56,"x_max":826,"o":"m 347 953 q 408 942 388 953 q 429 913 429 931 q 476 918 456 917 q 521 919 496 919 q 690 871 621 919 q 792 743 758 822 q 826 572 826 664 q 825 538 826 549 q 742 244 813 371 q 555 47 671 117 q 294 -22 439 -22 q 196 -12 254 -22 q 144 17 174 -8 q 93 76 114 43 q 72 136 72 110 q 76 165 72 151 l 222 728 q 89 667 143 704 q 64 708 72 683 q 56 760 56 733 q 81 814 56 790 q 261 885 146 856 q 347 953 288 953 m 250 132 q 322 124 283 124 q 489 177 419 124 q 598 313 558 231 q 650 482 638 394 q 656 560 656 517 q 613 713 656 657 q 479 769 569 769 q 408 764 440 769 q 303 340 383 656 q 250 132 260 171 m 256 -299 q 194 -273 224 -299 q 165 -215 165 -247 q 204 -133 165 -168 q 290 -99 243 -99 q 353 -128 325 -99 q 381 -193 381 -158 q 343 -268 381 -237 q 256 -299 306 -299 z "},"Ḏ":{"ha":831,"x_min":56,"x_max":826,"o":"m 347 953 q 408 942 388 953 q 429 913 429 931 q 476 918 456 917 q 521 919 496 919 q 690 871 621 919 q 792 743 758 822 q 826 572 826 664 q 825 538 826 549 q 742 244 813 371 q 555 47 671 117 q 294 -22 439 -22 q 196 -12 254 -22 q 144 17 174 -8 q 93 76 114 43 q 72 136 72 110 q 76 165 72 151 l 222 728 q 89 667 143 704 q 64 708 72 683 q 56 760 56 733 q 81 814 56 790 q 261 885 146 856 q 347 953 288 953 m 250 132 q 322 124 283 124 q 489 177 419 124 q 598 313 558 231 q 650 482 638 394 q 656 560 656 517 q 613 713 656 657 q 479 769 569 769 q 408 764 440 769 q 303 340 383 656 q 250 132 260 171 m 575 -149 q 547 -201 574 -183 q 479 -222 521 -219 l 189 -237 q 129 -243 150 -243 q 64 -187 68 -239 l 64 -176 q 83 -133 65 -147 q 135 -114 100 -119 q 246 -106 171 -108 l 508 -94 q 558 -106 543 -97 q 575 -139 574 -114 l 575 -149 z "},"ǲ":{"ha":1490,"x_min":56,"x_max":1507,"o":"m 347 953 q 408 942 388 953 q 429 913 429 931 q 476 918 456 917 q 521 919 496 919 q 690 871 621 919 q 792 743 758 822 q 826 572 826 664 q 825 538 826 549 q 742 244 813 371 q 555 47 671 117 q 294 -22 439 -22 q 196 -12 254 -22 q 144 17 174 -8 q 93 76 114 43 q 72 136 72 110 q 76 165 72 151 l 222 728 q 89 667 143 704 q 64 708 72 683 q 56 760 56 733 q 81 814 56 790 q 261 885 146 856 q 347 953 288 953 m 250 132 q 322 124 283 124 q 489 177 419 124 q 598 313 558 231 q 650 482 638 394 q 656 560 656 517 q 613 713 656 657 q 479 769 569 769 q 408 764 440 769 q 303 340 383 656 q 250 132 260 171 m 1329 8 q 924 -39 974 -32 q 871 -44 872 -44 q 826 -37 846 -44 q 803 -19 806 -31 q 792 6 800 -12 q 783 36 783 24 q 790 56 783 49 q 820 68 797 64 q 851 72 843 72 q 1028 263 918 142 q 1260 507 1181 429 l 983 481 q 940 524 940 481 q 965 593 940 558 q 1075 615 972 603 q 1299 638 1178 628 q 1454 649 1421 649 q 1507 588 1507 649 q 1494 553 1507 569 q 1464 529 1482 538 l 1433 503 q 1246 304 1357 425 l 1060 107 q 1340 135 1279 135 q 1393 74 1393 135 q 1373 31 1393 50 q 1329 8 1353 13 z "},"ǅ":{"ha":1490,"x_min":56,"x_max":1540,"o":"m 1275 756 q 1226 769 1247 756 q 1172 824 1204 782 l 1101 915 q 1088 950 1088 933 q 1109 988 1088 972 q 1160 1004 1131 1004 q 1213 975 1188 1004 l 1289 883 q 1412 985 1372 956 q 1469 1014 1451 1014 q 1519 1001 1497 1014 q 1540 968 1540 989 q 1535 940 1540 953 q 1511 913 1531 928 l 1481 888 q 1338 772 1376 801 q 1275 756 1317 756 m 347 953 q 408 942 388 953 q 429 913 429 931 q 476 918 456 917 q 521 919 496 919 q 690 871 621 919 q 792 743 758 822 q 826 572 826 664 q 825 538 826 549 q 742 244 813 371 q 555 47 671 117 q 294 -22 439 -22 q 196 -12 254 -22 q 144 17 174 -8 q 93 76 114 43 q 72 136 72 110 q 76 165 72 151 l 222 728 q 89 667 143 704 q 64 708 72 683 q 56 760 56 733 q 81 814 56 790 q 261 885 146 856 q 347 953 288 953 m 250 132 q 322 124 283 124 q 489 177 419 124 q 598 313 558 231 q 650 482 638 394 q 656 560 656 517 q 613 713 656 657 q 479 769 569 769 q 408 764 440 769 q 303 340 383 656 q 250 132 260 171 m 1326 8 q 921 -39 971 -32 q 868 -44 869 -44 q 823 -37 843 -44 q 800 -19 803 -31 q 789 6 797 -12 q 781 36 781 24 q 788 56 781 49 q 817 68 794 64 q 849 72 840 72 q 1025 263 915 142 q 1257 507 1178 429 l 981 481 q 938 524 938 481 q 963 593 938 558 q 1072 615 969 603 q 1297 638 1175 628 q 1451 649 1418 649 q 1504 588 1504 649 q 1492 553 1504 569 q 1461 529 1479 538 l 1431 503 q 1243 304 1354 425 l 1057 107 q 1338 135 1276 135 q 1390 74 1390 135 q 1370 31 1390 50 q 1326 8 1350 13 z "},"E":{"ha":771,"x_min":60,"x_max":840,"o":"m 790 939 q 840 872 840 913 q 813 826 840 847 q 753 796 786 804 l 692 792 q 579 784 650 789 q 413 771 508 779 l 350 522 q 495 544 438 536 q 624 558 553 553 q 678 494 678 535 q 653 446 678 469 q 596 413 628 422 l 517 404 q 314 376 390 390 q 267 183 297 300 l 256 140 q 613 189 440 175 q 667 125 667 165 q 642 76 667 100 q 585 43 617 53 q 213 -8 321 13 q 158 -17 200 -17 q 90 19 119 -17 q 60 94 60 56 q 64 124 60 110 l 222 750 l 218 750 q 199 788 217 765 q 188 805 197 790 q 178 833 178 819 q 231 897 181 874 q 522 924 335 911 q 790 939 710 938 z "},"É":{"ha":771,"x_min":60,"x_max":840,"o":"m 406 990 q 367 1000 379 990 q 354 1033 354 1010 q 358 1050 354 1044 q 433 1132 378 1079 q 541 1226 488 1185 q 610 1267 594 1267 q 676 1240 639 1267 q 714 1192 714 1214 q 694 1156 714 1174 q 615 1096 675 1138 q 486 1013 531 1036 q 406 990 442 990 m 790 939 q 840 872 840 913 q 813 826 840 847 q 753 796 786 804 l 692 792 q 579 784 650 789 q 413 771 508 779 l 350 522 q 495 544 438 536 q 624 558 553 553 q 678 494 678 535 q 653 446 678 469 q 596 413 628 422 l 517 404 q 314 376 390 390 q 267 183 297 300 l 256 140 q 613 189 440 175 q 667 125 667 165 q 642 76 667 100 q 585 43 617 53 q 213 -8 321 13 q 158 -17 200 -17 q 90 19 119 -17 q 60 94 60 56 q 64 124 60 110 l 222 750 l 218 750 q 199 788 217 765 q 188 805 197 790 q 178 833 178 819 q 231 897 181 874 q 522 924 335 911 q 790 939 710 938 z "},"Ĕ":{"ha":771,"x_min":60,"x_max":840,"o":"m 560 985 q 424 1019 475 985 q 372 1115 372 1053 q 446 1192 372 1192 q 493 1147 492 1192 q 508 1108 494 1119 q 571 1097 522 1097 q 640 1106 615 1097 q 680 1133 665 1115 q 713 1185 694 1150 q 735 1199 722 1193 q 760 1204 749 1204 q 821 1185 808 1204 q 733 1038 807 1088 q 560 985 660 988 m 790 939 q 840 872 840 913 q 813 826 840 847 q 753 796 786 804 l 692 792 q 579 784 650 789 q 413 771 508 779 l 350 522 q 495 544 438 536 q 624 558 553 553 q 678 494 678 535 q 653 446 678 469 q 596 413 628 422 l 517 404 q 314 376 390 390 q 267 183 297 300 l 256 140 q 613 189 440 175 q 667 125 667 165 q 642 76 667 100 q 585 43 617 53 q 213 -8 321 13 q 158 -17 200 -17 q 90 19 119 -17 q 60 94 60 56 q 64 124 60 110 l 222 750 l 218 750 q 199 788 217 765 q 188 805 197 790 q 178 833 178 819 q 231 897 181 874 q 522 924 335 911 q 790 939 710 938 z "},"Ě":{"ha":771,"x_min":60,"x_max":840,"o":"m 385 1144 q 371 1179 371 1163 q 392 1217 371 1201 q 443 1233 414 1233 q 496 1204 471 1233 l 572 1113 q 695 1214 656 1185 q 753 1243 735 1243 q 802 1231 781 1243 q 824 1197 824 1218 q 819 1169 824 1182 q 794 1142 814 1157 l 764 1117 q 621 1001 660 1031 q 558 985 600 985 q 509 998 531 985 q 456 1053 488 1011 l 385 1144 m 790 939 q 840 872 840 913 q 813 826 840 847 q 753 796 786 804 l 692 792 q 579 784 650 789 q 413 771 508 779 l 350 522 q 495 544 438 536 q 624 558 553 553 q 678 494 678 535 q 653 446 678 469 q 596 413 628 422 l 517 404 q 314 376 390 390 q 267 183 297 300 l 256 140 q 613 189 440 175 q 667 125 667 165 q 642 76 667 100 q 585 43 617 53 q 213 -8 321 13 q 158 -17 200 -17 q 90 19 119 -17 q 60 94 60 56 q 64 124 60 110 l 222 750 l 218 750 q 199 788 217 765 q 188 805 197 790 q 178 833 178 819 q 231 897 181 874 q 522 924 335 911 q 790 939 710 938 z "},"Ê":{"ha":771,"x_min":60,"x_max":840,"o":"m 378 976 q 328 989 350 976 q 307 1022 307 1001 q 312 1050 307 1038 q 336 1078 317 1063 l 367 1103 q 510 1218 471 1189 q 572 1235 531 1235 q 622 1222 600 1235 q 675 1167 643 1208 l 746 1075 q 760 1040 760 1057 q 738 1002 760 1018 q 688 986 717 986 q 635 1015 660 986 l 558 1107 q 435 1006 475 1035 q 378 976 396 976 m 790 939 q 840 872 840 913 q 813 826 840 847 q 753 796 786 804 l 692 792 q 579 784 650 789 q 413 771 508 779 l 350 522 q 495 544 438 536 q 624 558 553 553 q 678 494 678 535 q 653 446 678 469 q 596 413 628 422 l 517 404 q 314 376 390 390 q 267 183 297 300 l 256 140 q 613 189 440 175 q 667 125 667 165 q 642 76 667 100 q 585 43 617 53 q 213 -8 321 13 q 158 -17 200 -17 q 90 19 119 -17 q 60 94 60 56 q 64 124 60 110 l 222 750 l 218 750 q 199 788 217 765 q 188 805 197 790 q 178 833 178 819 q 231 897 181 874 q 522 924 335 911 q 790 939 710 938 z "},"Ế":{"ha":771,"x_min":60,"x_max":979,"o":"m 875 1350 q 938 1331 897 1350 q 979 1299 979 1313 q 965 1273 979 1286 q 910 1232 951 1260 l 863 1199 q 812 1164 829 1174 q 776 1154 794 1154 q 749 1161 757 1154 q 740 1185 740 1168 q 743 1196 740 1190 q 817 1297 775 1244 q 875 1350 860 1350 m 403 975 q 353 988 375 975 q 332 1021 332 1000 q 337 1049 332 1036 q 361 1076 342 1061 l 392 1101 q 535 1217 496 1188 q 597 1233 556 1233 q 647 1220 625 1233 q 700 1165 668 1207 l 771 1074 q 785 1039 785 1056 q 763 1001 785 1017 q 713 985 742 985 q 660 1014 685 985 l 583 1106 q 460 1004 500 1033 q 403 975 421 975 m 790 939 q 840 872 840 913 q 813 826 840 847 q 753 796 786 804 l 692 792 q 579 784 650 789 q 413 771 508 779 l 350 522 q 495 544 438 536 q 624 558 553 553 q 678 494 678 535 q 653 446 678 469 q 596 413 628 422 l 517 404 q 314 376 390 390 q 267 183 297 300 l 256 140 q 613 189 440 175 q 667 125 667 165 q 642 76 667 100 q 585 43 617 53 q 213 -8 321 13 q 158 -17 200 -17 q 90 19 119 -17 q 60 94 60 56 q 64 124 60 110 l 222 750 l 218 750 q 199 788 217 765 q 188 805 197 790 q 178 833 178 819 q 231 897 181 874 q 522 924 335 911 q 790 939 710 938 z "},"Ệ":{"ha":771,"x_min":60,"x_max":840,"o":"m 403 975 q 353 988 375 975 q 332 1021 332 1000 q 337 1049 332 1036 q 361 1076 342 1061 l 392 1101 q 535 1217 496 1188 q 597 1233 556 1233 q 647 1220 625 1233 q 700 1165 668 1207 l 771 1074 q 785 1039 785 1056 q 763 1001 785 1017 q 713 985 742 985 q 660 1014 685 985 l 583 1106 q 460 1004 500 1033 q 403 975 421 975 m 790 939 q 840 872 840 913 q 813 826 840 847 q 753 796 786 804 l 692 792 q 579 784 650 789 q 413 771 508 779 l 350 522 q 495 544 438 536 q 624 558 553 553 q 678 494 678 535 q 653 446 678 469 q 596 413 628 422 l 517 404 q 314 376 390 390 q 267 183 297 300 l 256 140 q 613 189 440 175 q 667 125 667 165 q 642 76 667 100 q 585 43 617 53 q 213 -8 321 13 q 158 -17 200 -17 q 90 19 119 -17 q 60 94 60 56 q 64 124 60 110 l 222 750 l 218 750 q 199 788 217 765 q 188 805 197 790 q 178 833 178 819 q 231 897 181 874 q 522 924 335 911 q 790 939 710 938 m 394 -99 q 457 -128 429 -99 q 485 -193 485 -158 q 447 -268 485 -237 q 360 -299 410 -299 q 299 -273 328 -299 q 269 -215 269 -247 q 308 -133 269 -168 q 394 -99 347 -99 z "},"Ề":{"ha":771,"x_min":60,"x_max":840,"o":"m 222 1232 q 167 1273 181 1260 q 153 1299 153 1286 q 194 1331 153 1313 q 257 1350 235 1350 q 315 1297 272 1350 q 389 1196 357 1244 q 392 1185 392 1190 q 383 1161 392 1168 q 356 1154 375 1154 q 320 1164 338 1154 q 269 1199 303 1174 l 222 1232 m 332 1021 q 337 1049 332 1036 q 361 1076 342 1061 l 392 1101 q 535 1217 496 1188 q 597 1233 556 1233 q 647 1220 625 1233 q 700 1165 668 1207 l 771 1074 q 785 1039 785 1056 q 763 1001 785 1017 q 713 985 742 985 q 660 1014 685 985 l 583 1106 q 460 1004 500 1033 q 403 975 421 975 q 353 988 375 975 q 332 1021 332 1000 m 790 939 q 840 872 840 913 q 813 826 840 847 q 753 796 786 804 l 692 792 q 579 784 650 789 q 413 771 508 779 l 350 522 q 495 544 438 536 q 624 558 553 553 q 678 494 678 535 q 653 446 678 469 q 596 413 628 422 l 517 404 q 314 376 390 390 q 267 183 297 300 l 256 140 q 613 189 440 175 q 667 125 667 165 q 642 76 667 100 q 585 43 617 53 q 213 -8 321 13 q 158 -17 200 -17 q 90 19 119 -17 q 60 94 60 56 q 64 124 60 110 l 222 750 l 218 750 q 199 788 217 765 q 188 805 197 790 q 178 833 178 819 q 231 897 181 874 q 522 924 335 911 q 790 939 710 938 z "},"Ể":{"ha":771,"x_min":60,"x_max":994,"o":"m 874 1433 q 958 1412 922 1433 q 994 1350 994 1390 q 897 1239 994 1278 q 870 1222 878 1232 q 860 1199 863 1211 q 854 1181 857 1188 q 804 1150 839 1150 q 776 1156 786 1150 q 765 1172 765 1163 q 783 1244 765 1178 q 803 1272 788 1263 q 844 1289 818 1281 q 885 1308 872 1299 q 899 1338 899 1317 q 890 1353 899 1346 q 858 1361 881 1361 q 810 1350 829 1361 q 781 1342 793 1342 q 761 1353 769 1342 q 753 1376 753 1364 q 789 1421 753 1408 q 874 1433 825 1433 m 403 975 q 353 988 375 975 q 332 1021 332 1000 q 337 1049 332 1036 q 361 1076 342 1061 l 392 1101 q 535 1217 496 1188 q 597 1233 556 1233 q 647 1220 625 1233 q 700 1165 668 1207 l 771 1074 q 785 1039 785 1056 q 763 1001 785 1017 q 713 985 742 985 q 660 1014 685 985 l 583 1106 q 460 1004 500 1033 q 403 975 421 975 m 790 939 q 840 872 840 913 q 813 826 840 847 q 753 796 786 804 l 692 792 q 579 784 650 789 q 413 771 508 779 l 350 522 q 495 544 438 536 q 624 558 553 553 q 678 494 678 535 q 653 446 678 469 q 596 413 628 422 l 517 404 q 314 376 390 390 q 267 183 297 300 l 256 140 q 613 189 440 175 q 667 125 667 165 q 642 76 667 100 q 585 43 617 53 q 213 -8 321 13 q 158 -17 200 -17 q 90 19 119 -17 q 60 94 60 56 q 64 124 60 110 l 222 750 l 218 750 q 199 788 217 765 q 188 805 197 790 q 178 833 178 819 q 231 897 181 874 q 522 924 335 911 q 790 939 710 938 z "},"Ễ":{"ha":771,"x_min":60,"x_max":865,"o":"m 447 1271 q 428 1292 433 1278 q 422 1336 422 1306 q 447 1382 422 1358 q 508 1421 472 1406 q 575 1436 544 1436 q 685 1397 629 1436 q 726 1374 710 1381 q 764 1367 743 1367 q 792 1374 779 1367 q 816 1392 804 1382 q 835 1408 828 1403 q 846 1413 842 1413 q 856 1407 851 1413 q 863 1401 861 1401 q 865 1392 865 1401 q 842 1332 865 1360 q 787 1288 818 1304 q 736 1271 756 1271 q 688 1278 708 1271 q 632 1307 668 1286 q 591 1330 608 1324 q 554 1336 574 1336 q 447 1271 515 1336 m 403 975 q 353 988 375 975 q 332 1021 332 1000 q 337 1049 332 1036 q 361 1076 342 1061 l 392 1101 q 535 1217 496 1188 q 597 1233 556 1233 q 647 1220 625 1233 q 700 1165 668 1207 l 771 1074 q 785 1039 785 1056 q 763 1001 785 1017 q 713 985 742 985 q 660 1014 685 985 l 583 1106 q 460 1004 500 1033 q 403 975 421 975 m 790 939 q 840 872 840 913 q 813 826 840 847 q 753 796 786 804 l 692 792 q 579 784 650 789 q 413 771 508 779 l 350 522 q 495 544 438 536 q 624 558 553 553 q 678 494 678 535 q 653 446 678 469 q 596 413 628 422 l 517 404 q 314 376 390 390 q 267 183 297 300 l 256 140 q 613 189 440 175 q 667 125 667 165 q 642 76 667 100 q 585 43 617 53 q 213 -8 321 13 q 158 -17 200 -17 q 90 19 119 -17 q 60 94 60 56 q 64 124 60 110 l 222 750 l 218 750 q 199 788 217 765 q 188 805 197 790 q 178 833 178 819 q 231 897 181 874 q 522 924 335 911 q 790 939 710 938 z "},"Ȅ":{"ha":771,"x_min":60,"x_max":840,"o":"m 275 1126 q 251 1140 260 1132 q 243 1165 243 1147 q 260 1228 243 1197 q 307 1258 278 1258 q 461 1075 381 1258 q 469 1039 469 1057 q 463 1002 469 1022 q 442 982 456 982 l 436 983 q 408 1002 422 988 q 372 1043 393 1017 q 319 1099 339 1081 q 275 1126 300 1118 m 518 1126 q 494 1140 503 1132 q 486 1165 486 1147 q 503 1228 486 1197 q 550 1258 521 1258 q 704 1075 624 1258 q 713 1039 713 1057 q 706 1002 713 1022 q 685 982 699 982 l 679 983 q 651 1002 665 988 q 615 1043 636 1017 q 563 1099 582 1081 q 518 1126 543 1118 m 790 939 q 840 872 840 913 q 813 826 840 847 q 753 796 786 804 l 692 792 q 579 784 650 789 q 413 771 508 779 l 350 522 q 495 544 438 536 q 624 558 553 553 q 678 494 678 535 q 653 446 678 469 q 596 413 628 422 l 517 404 q 314 376 390 390 q 267 183 297 300 l 256 140 q 613 189 440 175 q 667 125 667 165 q 642 76 667 100 q 585 43 617 53 q 213 -8 321 13 q 158 -17 200 -17 q 90 19 119 -17 q 60 94 60 56 q 64 124 60 110 l 222 750 l 218 750 q 199 788 217 765 q 188 805 197 790 q 178 833 178 819 q 231 897 181 874 q 522 924 335 911 q 790 939 710 938 z "},"Ë":{"ha":771,"x_min":60,"x_max":840,"o":"m 665 976 q 601 1004 633 976 q 569 1063 569 1032 q 606 1142 569 1111 q 689 1174 642 1174 q 757 1146 725 1174 q 789 1085 789 1118 q 752 1008 789 1040 q 665 976 715 976 m 349 971 q 288 997 317 971 q 258 1054 258 1022 q 297 1136 258 1101 q 383 1171 336 1171 q 446 1141 418 1171 q 474 1076 474 1111 q 436 1001 474 1032 q 349 971 399 971 m 790 939 q 840 872 840 913 q 813 826 840 847 q 753 796 786 804 l 692 792 q 579 784 650 789 q 413 771 508 779 l 350 522 q 495 544 438 536 q 624 558 553 553 q 678 494 678 535 q 653 446 678 469 q 596 413 628 422 l 517 404 q 314 376 390 390 q 267 183 297 300 l 256 140 q 613 189 440 175 q 667 125 667 165 q 642 76 667 100 q 585 43 617 53 q 213 -8 321 13 q 158 -17 200 -17 q 90 19 119 -17 q 60 94 60 56 q 64 124 60 110 l 222 750 l 218 750 q 199 788 217 765 q 188 805 197 790 q 178 833 178 819 q 231 897 181 874 q 522 924 335 911 q 790 939 710 938 z "},"Ė":{"ha":771,"x_min":60,"x_max":840,"o":"m 549 990 q 488 1016 517 990 q 458 1074 458 1042 q 497 1156 458 1121 q 583 1190 536 1190 q 646 1160 618 1190 q 674 1096 674 1131 q 636 1021 674 1051 q 549 990 599 990 m 790 939 q 840 872 840 913 q 813 826 840 847 q 753 796 786 804 l 692 792 q 579 784 650 789 q 413 771 508 779 l 350 522 q 495 544 438 536 q 624 558 553 553 q 678 494 678 535 q 653 446 678 469 q 596 413 628 422 l 517 404 q 314 376 390 390 q 267 183 297 300 l 256 140 q 613 189 440 175 q 667 125 667 165 q 642 76 667 100 q 585 43 617 53 q 213 -8 321 13 q 158 -17 200 -17 q 90 19 119 -17 q 60 94 60 56 q 64 124 60 110 l 222 750 l 218 750 q 199 788 217 765 q 188 805 197 790 q 178 833 178 819 q 231 897 181 874 q 522 924 335 911 q 790 939 710 938 z "},"Ẹ":{"ha":771,"x_min":60,"x_max":840,"o":"m 790 939 q 840 872 840 913 q 813 826 840 847 q 753 796 786 804 l 692 792 q 579 784 650 789 q 413 771 508 779 l 350 522 q 495 544 438 536 q 624 558 553 553 q 678 494 678 535 q 653 446 678 469 q 596 413 628 422 l 517 404 q 314 376 390 390 q 267 183 297 300 l 256 140 q 613 189 440 175 q 667 125 667 165 q 642 76 667 100 q 585 43 617 53 q 213 -8 321 13 q 158 -17 200 -17 q 90 19 119 -17 q 60 94 60 56 q 64 124 60 110 l 222 750 l 218 750 q 199 788 217 765 q 188 805 197 790 q 178 833 178 819 q 231 897 181 874 q 522 924 335 911 q 790 939 710 938 m 360 -99 q 422 -128 394 -99 q 450 -193 450 -158 q 413 -268 450 -237 q 325 -299 375 -299 q 264 -273 293 -299 q 235 -215 235 -247 q 274 -133 235 -168 q 360 -99 313 -99 z "},"È":{"ha":771,"x_min":60,"x_max":840,"o":"m 406 1096 q 326 1156 346 1138 q 307 1192 307 1174 q 344 1240 307 1214 q 411 1267 382 1267 q 480 1226 426 1267 q 588 1132 533 1185 q 663 1050 643 1079 q 667 1033 667 1044 q 654 1000 667 1010 q 615 990 642 990 q 535 1013 579 990 q 406 1096 490 1036 m 790 939 q 840 872 840 913 q 813 826 840 847 q 753 796 786 804 l 692 792 q 579 784 650 789 q 413 771 508 779 l 350 522 q 495 544 438 536 q 624 558 553 553 q 678 494 678 535 q 653 446 678 469 q 596 413 628 422 l 517 404 q 314 376 390 390 q 267 183 297 300 l 256 140 q 613 189 440 175 q 667 125 667 165 q 642 76 667 100 q 585 43 617 53 q 213 -8 321 13 q 158 -17 200 -17 q 90 19 119 -17 q 60 94 60 56 q 64 124 60 110 l 222 750 l 218 750 q 199 788 217 765 q 188 805 197 790 q 178 833 178 819 q 231 897 181 874 q 522 924 335 911 q 790 939 710 938 z "},"Ẻ":{"ha":771,"x_min":60,"x_max":840,"o":"m 494 1229 q 470 1243 481 1229 q 460 1272 460 1257 q 505 1328 460 1313 q 611 1343 550 1343 q 717 1317 671 1343 q 763 1239 763 1290 q 729 1155 763 1186 q 643 1103 696 1124 q 608 1079 618 1093 q 594 1051 599 1065 q 588 1028 590 1036 q 524 990 567 990 q 489 997 501 990 q 476 1017 476 1004 q 499 1108 476 1026 q 522 1142 504 1131 q 575 1164 540 1153 q 626 1187 610 1175 q 643 1224 643 1199 q 631 1244 643 1235 q 592 1254 619 1254 q 548 1248 563 1254 q 532 1240 533 1242 q 520 1234 531 1239 q 494 1229 510 1229 m 790 939 q 840 872 840 913 q 813 826 840 847 q 753 796 786 804 l 692 792 q 579 784 650 789 q 413 771 508 779 l 350 522 q 495 544 438 536 q 624 558 553 553 q 678 494 678 535 q 653 446 678 469 q 596 413 628 422 l 517 404 q 314 376 390 390 q 267 183 297 300 l 256 140 q 613 189 440 175 q 667 125 667 165 q 642 76 667 100 q 585 43 617 53 q 213 -8 321 13 q 158 -17 200 -17 q 90 19 119 -17 q 60 94 60 56 q 64 124 60 110 l 222 750 l 218 750 q 199 788 217 765 q 188 805 197 790 q 178 833 178 819 q 231 897 181 874 q 522 924 335 911 q 790 939 710 938 z "},"Ȇ":{"ha":771,"x_min":60,"x_max":840,"o":"m 418 972 q 365 979 383 972 q 347 1006 347 986 q 621 1189 347 1176 q 760 1158 703 1189 q 818 1068 818 1128 q 750 990 818 990 q 690 1029 693 990 q 613 1076 688 1076 q 468 999 492 1076 q 448 980 465 988 q 418 972 431 972 m 790 939 q 840 872 840 913 q 813 826 840 847 q 753 796 786 804 l 692 792 q 579 784 650 789 q 413 771 508 779 l 350 522 q 495 544 438 536 q 624 558 553 553 q 678 494 678 535 q 653 446 678 469 q 596 413 628 422 l 517 404 q 314 376 390 390 q 267 183 297 300 l 256 140 q 613 189 440 175 q 667 125 667 165 q 642 76 667 100 q 585 43 617 53 q 213 -8 321 13 q 158 -17 200 -17 q 90 19 119 -17 q 60 94 60 56 q 64 124 60 110 l 222 750 l 218 750 q 199 788 217 765 q 188 805 197 790 q 178 833 178 819 q 231 897 181 874 q 522 924 335 911 q 790 939 710 938 z "},"Ē":{"ha":771,"x_min":60,"x_max":865,"o":"m 799 1171 q 865 1115 864 1167 l 865 1106 q 838 1053 864 1071 q 769 1032 811 1035 l 479 1017 q 419 1011 440 1011 q 354 1067 358 1015 l 354 1078 q 374 1125 357 1108 q 429 1149 392 1142 q 536 1160 467 1157 l 799 1171 m 790 939 q 840 872 840 913 q 813 826 840 847 q 753 796 786 804 l 692 792 q 579 784 650 789 q 413 771 508 779 l 350 522 q 495 544 438 536 q 624 558 553 553 q 678 494 678 535 q 653 446 678 469 q 596 413 628 422 l 517 404 q 314 376 390 390 q 267 183 297 300 l 256 140 q 613 189 440 175 q 667 125 667 165 q 642 76 667 100 q 585 43 617 53 q 213 -8 321 13 q 158 -17 200 -17 q 90 19 119 -17 q 60 94 60 56 q 64 124 60 110 l 222 750 l 218 750 q 199 788 217 765 q 188 805 197 790 q 178 833 178 819 q 231 897 181 874 q 522 924 335 911 q 790 939 710 938 z "},"Ę":{"ha":771,"x_min":60,"x_max":840,"o":"m 790 939 q 840 872 840 913 q 813 826 840 847 q 753 796 786 804 l 692 792 q 579 784 650 789 q 413 771 508 779 l 350 522 q 495 544 438 536 q 624 558 553 553 q 678 494 678 535 q 653 446 678 469 q 596 413 628 422 l 517 404 q 314 376 390 390 q 267 183 297 300 l 256 140 q 613 189 440 175 q 667 125 667 165 q 644 79 667 104 q 569 -5 593 32 q 546 -82 546 -42 q 608 -144 546 -144 q 675 -136 639 -144 q 694 -164 694 -150 q 649 -212 694 -199 q 556 -226 603 -226 q 442 -192 489 -226 q 396 -82 396 -157 q 415 -27 396 -56 q 467 29 433 1 q 213 -8 322 13 q 158 -17 200 -17 q 90 19 119 -17 q 60 94 60 56 q 64 124 60 110 l 222 750 l 218 750 q 199 788 217 765 q 188 805 197 790 q 178 833 178 819 q 231 897 181 874 q 522 924 335 911 q 790 939 710 938 z "},"Ẽ":{"ha":771,"x_min":60,"x_max":840,"o":"m 353 986 q 329 1010 336 996 q 322 1061 322 1025 q 351 1119 322 1089 q 422 1170 381 1150 q 496 1190 463 1190 q 621 1142 557 1190 q 668 1113 647 1121 q 713 1104 689 1104 q 743 1113 729 1104 q 771 1135 757 1122 q 792 1156 785 1149 q 804 1161 797 1161 q 815 1154 810 1161 q 822 1147 821 1147 q 825 1135 825 1147 q 799 1062 825 1096 q 738 1007 772 1028 q 682 986 703 986 q 624 997 650 986 q 563 1031 599 1007 q 516 1060 536 1051 q 474 1068 496 1068 q 353 986 428 1068 m 790 939 q 840 872 840 913 q 813 826 840 847 q 753 796 786 804 l 692 792 q 579 784 650 789 q 413 771 508 779 l 350 522 q 495 544 438 536 q 624 558 553 553 q 678 494 678 535 q 653 446 678 469 q 596 413 628 422 l 517 404 q 314 376 390 390 q 267 183 297 300 l 256 140 q 613 189 440 175 q 667 125 667 165 q 642 76 667 100 q 585 43 617 53 q 213 -8 321 13 q 158 -17 200 -17 q 90 19 119 -17 q 60 94 60 56 q 64 124 60 110 l 222 750 l 218 750 q 199 788 217 765 q 188 805 197 790 q 178 833 178 819 q 231 897 181 874 q 522 924 335 911 q 790 939 710 938 z "},"F":{"ha":757,"x_min":13,"x_max":804,"o":"m 754 947 q 804 881 804 921 q 778 834 804 856 q 718 803 751 813 l 701 801 q 374 775 522 792 l 296 464 q 478 488 399 481 q 572 496 557 494 l 626 500 q 681 436 681 476 q 656 388 681 411 q 599 354 631 364 l 578 351 q 461 340 515 344 q 260 318 319 328 l 193 50 q 178 8 186 21 q 152 -12 171 -6 q 96 -18 133 -18 q 33 -3 53 -18 q 13 46 13 11 q 17 75 13 61 l 207 826 q 240 908 222 888 q 303 928 257 928 q 382 915 351 928 q 754 947 586 942 z "},"G":{"ha":865,"x_min":25,"x_max":853,"o":"m 671 507 q 755 487 728 507 q 789 438 782 467 q 796 365 796 410 q 732 159 796 249 q 565 20 668 69 q 347 -29 463 -29 q 103 64 181 -29 q 25 292 25 157 q 110 597 25 451 q 322 830 196 742 q 558 918 447 918 q 783 856 714 918 q 853 676 853 794 q 822 606 853 635 q 738 576 790 576 q 681 599 696 576 q 667 656 667 621 l 668 700 q 640 749 668 725 q 589 772 613 772 q 418 702 511 772 q 261 513 325 632 q 197 256 197 394 q 247 151 197 192 q 374 111 297 111 q 488 144 428 111 q 588 233 547 176 q 629 353 629 289 q 572 340 610 350 q 480 319 518 326 q 404 313 442 313 q 338 324 360 313 q 317 367 317 336 q 327 415 317 388 q 353 456 338 443 q 513 490 422 474 q 671 507 604 507 z "},"Ǵ":{"ha":865,"x_min":25,"x_max":936,"o":"m 581 1065 q 655 1147 600 1094 q 763 1241 710 1200 q 832 1282 817 1282 q 899 1256 861 1282 q 936 1207 936 1229 q 917 1171 936 1189 q 838 1111 897 1153 q 708 1028 753 1051 q 628 1006 664 1006 q 589 1015 601 1006 q 576 1049 576 1025 q 581 1065 576 1060 m 671 507 q 755 487 728 507 q 789 438 782 467 q 796 365 796 410 q 732 159 796 249 q 565 20 668 69 q 347 -29 463 -29 q 103 64 181 -29 q 25 292 25 157 q 110 597 25 451 q 322 830 196 742 q 558 918 447 918 q 783 856 714 918 q 853 676 853 794 q 822 606 853 635 q 738 576 790 576 q 681 599 696 576 q 667 656 667 621 l 668 700 q 640 749 668 725 q 589 772 613 772 q 418 702 511 772 q 261 513 325 632 q 197 256 197 394 q 247 151 197 192 q 374 111 297 111 q 488 144 428 111 q 588 233 547 176 q 629 353 629 289 q 572 340 610 350 q 480 319 518 326 q 404 313 442 313 q 338 324 360 313 q 317 367 317 336 q 327 415 317 388 q 353 456 338 443 q 513 490 422 474 q 671 507 604 507 z "},"Ğ":{"ha":865,"x_min":25,"x_max":892,"o":"m 631 982 q 494 1016 546 982 q 443 1113 443 1050 q 517 1189 443 1189 q 564 1144 563 1189 q 579 1106 565 1117 q 642 1094 593 1094 q 711 1103 686 1094 q 751 1130 736 1113 q 783 1182 765 1147 q 806 1196 793 1190 q 831 1201 819 1201 q 892 1182 879 1201 q 804 1035 878 1085 q 631 982 731 985 m 671 507 q 755 487 728 507 q 789 438 782 467 q 796 365 796 410 q 732 159 796 249 q 565 20 668 69 q 347 -29 463 -29 q 103 64 181 -29 q 25 292 25 157 q 110 597 25 451 q 322 830 196 742 q 558 918 447 918 q 783 856 714 918 q 853 676 853 794 q 822 606 853 635 q 738 576 790 576 q 681 599 696 576 q 667 656 667 621 l 668 700 q 640 749 668 725 q 589 772 613 772 q 418 702 511 772 q 261 513 325 632 q 197 256 197 394 q 247 151 197 192 q 374 111 297 111 q 488 144 428 111 q 588 233 547 176 q 629 353 629 289 q 572 340 610 350 q 480 319 518 326 q 404 313 442 313 q 338 324 360 313 q 317 367 317 336 q 327 415 317 388 q 353 456 338 443 q 513 490 422 474 q 671 507 604 507 z "},"Ǧ":{"ha":865,"x_min":25,"x_max":876,"o":"m 611 990 q 562 1003 583 990 q 508 1058 540 1017 l 438 1150 q 424 1185 424 1168 q 445 1223 424 1207 q 496 1239 467 1239 q 549 1210 524 1239 l 625 1118 q 748 1219 708 1190 q 806 1249 788 1249 q 855 1236 833 1249 q 876 1203 876 1224 q 872 1175 876 1188 q 847 1147 867 1163 l 817 1122 q 674 1007 713 1036 q 611 990 653 990 m 671 507 q 755 487 728 507 q 789 438 782 467 q 796 365 796 410 q 732 159 796 249 q 565 20 668 69 q 347 -29 463 -29 q 103 64 181 -29 q 25 292 25 157 q 110 597 25 451 q 322 830 196 742 q 558 918 447 918 q 783 856 714 918 q 853 676 853 794 q 822 606 853 635 q 738 576 790 576 q 681 599 696 576 q 667 656 667 621 l 668 700 q 640 749 668 725 q 589 772 613 772 q 418 702 511 772 q 261 513 325 632 q 197 256 197 394 q 247 151 197 192 q 374 111 297 111 q 488 144 428 111 q 588 233 547 176 q 629 353 629 289 q 572 340 610 350 q 480 319 518 326 q 404 313 442 313 q 338 324 360 313 q 317 367 317 336 q 327 415 317 388 q 353 456 338 443 q 513 490 422 474 q 671 507 604 507 z "},"Ĝ":{"ha":865,"x_min":25,"x_max":856,"o":"m 668 1236 q 717 1223 696 1236 q 771 1168 739 1210 l 842 1076 q 856 1042 856 1058 q 834 1003 856 1019 q 783 988 813 988 q 731 1017 756 988 l 654 1108 q 531 1007 571 1036 q 474 978 492 978 q 424 990 446 978 q 403 1024 403 1003 q 408 1051 403 1039 q 432 1079 413 1064 l 463 1104 q 606 1219 567 1190 q 668 1236 626 1236 m 671 507 q 755 487 728 507 q 789 438 782 467 q 796 365 796 410 q 732 159 796 249 q 565 20 668 69 q 347 -29 463 -29 q 103 64 181 -29 q 25 292 25 157 q 110 597 25 451 q 322 830 196 742 q 558 918 447 918 q 783 856 714 918 q 853 676 853 794 q 822 606 853 635 q 738 576 790 576 q 681 599 696 576 q 667 656 667 621 l 668 700 q 640 749 668 725 q 589 772 613 772 q 418 702 511 772 q 261 513 325 632 q 197 256 197 394 q 247 151 197 192 q 374 111 297 111 q 488 144 428 111 q 588 233 547 176 q 629 353 629 289 q 572 340 610 350 q 480 319 518 326 q 404 313 442 313 q 338 324 360 313 q 317 367 317 336 q 327 415 317 388 q 353 456 338 443 q 513 490 422 474 q 671 507 604 507 z "},"Ģ":{"ha":865,"x_min":25,"x_max":853,"o":"m 671 507 q 755 487 728 507 q 789 438 782 467 q 796 365 796 410 q 732 159 796 249 q 565 20 668 69 q 347 -29 463 -29 q 103 64 181 -29 q 25 292 25 157 q 110 597 25 451 q 322 830 196 742 q 558 918 447 918 q 783 856 714 918 q 853 676 853 794 q 822 606 853 635 q 738 576 790 576 q 681 599 696 576 q 667 656 667 621 l 668 700 q 640 749 668 725 q 589 772 613 772 q 418 702 511 772 q 261 513 325 632 q 197 256 197 394 q 247 151 197 192 q 374 111 297 111 q 488 144 428 111 q 588 233 547 176 q 629 353 629 289 q 572 340 610 350 q 480 319 518 326 q 404 313 442 313 q 338 324 360 313 q 317 367 317 336 q 327 415 317 388 q 353 456 338 443 q 513 490 422 474 q 671 507 604 507 m 247 -419 q 208 -393 208 -419 q 220 -345 208 -367 q 256 -289 232 -324 q 292 -233 281 -257 q 304 -183 304 -210 q 301 -158 304 -174 q 299 -132 299 -143 q 315 -92 299 -107 q 383 -78 332 -78 q 442 -101 419 -78 q 465 -144 465 -124 q 429 -248 465 -193 q 325 -381 393 -303 q 247 -419 286 -419 z "},"Ġ":{"ha":865,"x_min":25,"x_max":853,"o":"m 701 990 q 640 1016 669 990 q 611 1074 611 1042 q 650 1156 611 1121 q 736 1190 689 1190 q 799 1160 771 1190 q 826 1096 826 1131 q 789 1021 826 1051 q 701 990 751 990 m 671 507 q 755 487 728 507 q 789 438 782 467 q 796 365 796 410 q 732 159 796 249 q 565 20 668 69 q 347 -29 463 -29 q 103 64 181 -29 q 25 292 25 157 q 110 597 25 451 q 322 830 196 742 q 558 918 447 918 q 783 856 714 918 q 853 676 853 794 q 822 606 853 635 q 738 576 790 576 q 681 599 696 576 q 667 656 667 621 l 668 700 q 640 749 668 725 q 589 772 613 772 q 418 702 511 772 q 261 513 325 632 q 197 256 197 394 q 247 151 197 192 q 374 111 297 111 q 488 144 428 111 q 588 233 547 176 q 629 353 629 289 q 572 340 610 350 q 480 319 518 326 q 404 313 442 313 q 338 324 360 313 q 317 367 317 336 q 327 415 317 388 q 353 456 338 443 q 513 490 422 474 q 671 507 604 507 z "},"Ḡ":{"ha":865,"x_min":25,"x_max":925,"o":"m 925 1099 q 897 1046 924 1064 q 829 1025 871 1028 l 539 1010 q 479 1004 500 1004 q 414 1060 418 1008 l 414 1071 q 434 1118 417 1101 q 489 1142 451 1135 q 596 1153 526 1150 l 858 1164 q 925 1108 924 1160 l 925 1099 m 671 507 q 755 487 728 507 q 789 438 782 467 q 796 365 796 410 q 732 159 796 249 q 565 20 668 69 q 347 -29 463 -29 q 103 64 181 -29 q 25 292 25 157 q 110 597 25 451 q 322 830 196 742 q 558 918 447 918 q 783 856 714 918 q 853 676 853 794 q 822 606 853 635 q 738 576 790 576 q 681 599 696 576 q 667 656 667 621 l 668 700 q 640 749 668 725 q 589 772 613 772 q 418 702 511 772 q 261 513 325 632 q 197 256 197 394 q 247 151 197 192 q 374 111 297 111 q 488 144 428 111 q 588 233 547 176 q 629 353 629 289 q 572 340 610 350 q 480 319 518 326 q 404 313 442 313 q 338 324 360 313 q 317 367 317 336 q 327 415 317 388 q 353 456 338 443 q 513 490 422 474 q 671 507 604 507 z "},"H":{"ha":983,"x_min":25,"x_max":967,"o":"m 674 406 q 286 347 400 372 l 211 50 q 183 -4 201 10 q 108 -18 164 -18 q 45 -3 65 -18 q 25 46 25 11 q 29 75 25 61 l 219 826 q 252 908 235 888 q 315 928 269 928 q 384 919 353 928 q 417 894 415 911 q 399 819 417 892 q 319 494 371 713 q 710 551 525 536 l 774 810 q 812 892 788 865 q 878 928 836 919 q 945 912 929 918 q 967 893 961 906 q 940 798 949 842 q 929 746 931 754 q 886 547 911 649 q 940 483 940 524 q 854 415 940 443 q 797 174 839 360 q 769 46 788 122 q 708 -31 750 -31 q 581 29 581 -31 q 674 406 581 42 z "},"Ħ":{"ha":1006,"x_min":39,"x_max":1071,"o":"m 242 826 q 274 908 257 888 q 338 928 292 928 q 406 919 375 928 q 439 894 438 911 q 431 858 439 890 q 406 761 419 821 l 792 801 q 832 890 806 860 q 900 928 858 919 q 967 912 951 918 q 989 893 983 906 q 968 826 979 868 l 986 829 l 1001 829 q 1071 778 1065 829 l 1071 768 q 1047 720 1071 735 q 979 701 1024 706 l 942 697 q 908 547 935 656 q 963 483 963 524 q 876 415 963 443 q 819 174 861 360 q 792 46 810 122 q 731 -31 772 -31 q 603 29 603 -31 q 696 406 603 42 q 308 347 422 372 l 233 50 q 205 -4 224 10 q 131 -18 186 -18 q 67 -3 88 -18 q 47 46 47 11 q 51 75 47 61 l 186 607 l 97 596 q 82 594 92 594 q 52 607 61 594 q 39 642 43 619 l 39 653 q 53 704 39 689 q 108 725 68 719 l 219 739 l 242 826 m 342 494 q 732 551 547 536 l 763 675 l 374 629 l 342 494 z "},"Ḫ":{"ha":1006,"x_min":47,"x_max":989,"o":"m 696 406 q 308 347 422 372 l 233 50 q 205 -4 224 10 q 131 -18 186 -18 q 67 -3 88 -18 q 47 46 47 11 q 51 75 47 61 l 242 826 q 274 908 257 888 q 338 928 292 928 q 406 919 375 928 q 439 894 438 911 q 421 819 439 892 q 342 494 393 713 q 732 551 547 536 l 796 810 q 834 892 810 865 q 900 928 858 919 q 967 912 951 918 q 989 893 983 906 q 962 798 971 842 q 951 746 953 754 q 908 547 933 649 q 963 483 963 524 q 876 415 963 443 q 819 174 861 360 q 792 46 810 122 q 731 -31 772 -31 q 603 29 603 -31 q 696 406 603 42 m 356 -317 q 219 -283 271 -317 q 168 -186 168 -249 q 242 -110 168 -110 q 281 -160 279 -110 q 298 -198 282 -186 q 364 -210 314 -210 q 434 -199 408 -210 q 475 -170 460 -189 q 508 -117 490 -151 q 531 -103 518 -108 q 556 -97 544 -97 q 617 -117 604 -97 q 529 -264 603 -214 q 356 -317 456 -314 z "},"Ĥ":{"ha":1006,"x_min":47,"x_max":989,"o":"m 700 1240 q 749 1227 728 1240 q 803 1172 771 1214 l 874 1081 q 888 1046 888 1063 q 866 1008 888 1024 q 815 992 844 992 q 763 1021 788 992 l 686 1113 q 563 1011 603 1040 q 506 982 524 982 q 456 994 478 982 q 435 1028 435 1007 q 440 1056 435 1043 q 464 1083 444 1068 l 494 1108 q 638 1224 599 1194 q 700 1240 658 1240 m 696 406 q 308 347 422 372 l 233 50 q 205 -4 224 10 q 131 -18 186 -18 q 67 -3 88 -18 q 47 46 47 11 q 51 75 47 61 l 242 826 q 274 908 257 888 q 338 928 292 928 q 406 919 375 928 q 439 894 438 911 q 421 819 439 892 q 342 494 393 713 q 732 551 547 536 l 796 810 q 834 892 810 865 q 900 928 858 919 q 967 912 951 918 q 989 893 983 906 q 962 798 971 842 q 951 746 953 754 q 908 547 933 649 q 963 483 963 524 q 876 415 963 443 q 819 174 861 360 q 792 46 810 122 q 731 -31 772 -31 q 603 29 603 -31 q 696 406 603 42 z "},"Ḥ":{"ha":1006,"x_min":47,"x_max":989,"o":"m 696 406 q 308 347 422 372 l 233 50 q 205 -4 224 10 q 131 -18 186 -18 q 67 -3 88 -18 q 47 46 47 11 q 51 75 47 61 l 242 826 q 274 908 257 888 q 338 928 292 928 q 406 919 375 928 q 439 894 438 911 q 421 819 439 892 q 342 494 393 713 q 732 551 547 536 l 796 810 q 834 892 810 865 q 900 928 858 919 q 967 912 951 918 q 989 893 983 906 q 962 798 971 842 q 951 746 953 754 q 908 547 933 649 q 963 483 963 524 q 876 415 963 443 q 819 174 861 360 q 792 46 810 122 q 731 -31 772 -31 q 603 29 603 -31 q 696 406 603 42 m 375 -299 q 314 -273 343 -299 q 285 -215 285 -247 q 324 -133 285 -168 q 410 -99 363 -99 q 472 -128 444 -99 q 500 -193 500 -158 q 463 -268 500 -237 q 375 -299 425 -299 z "},"I":{"ha":550,"x_min":-33,"x_max":619,"o":"m 168 719 q 126 749 140 729 q 111 797 111 769 q 165 861 111 838 q 565 918 364 901 q 619 854 619 894 q 594 806 619 829 q 538 772 569 782 l 461 763 q 353 314 438 658 l 314 158 l 421 169 q 475 106 475 146 q 450 57 475 81 q 393 24 425 33 l 338 17 q 24 -29 133 -6 q -19 1 -4 -19 q -33 49 -33 21 q 21 113 -33 89 q 126 132 90 126 l 279 739 q 168 719 222 731 z "},"Ĳ":{"ha":1201,"x_min":-33,"x_max":1236,"o":"m 1139 928 q 1205 919 1176 928 q 1236 894 1233 911 q 1181 626 1236 860 q 1078 213 1125 393 q 976 48 1051 113 q 776 -17 900 -17 q 616 22 675 -17 q 534 113 557 60 q 511 217 511 165 q 531 334 511 297 q 601 371 551 371 q 678 358 650 371 q 706 324 706 344 q 683 279 706 310 q 660 233 660 247 q 690 143 661 168 q 769 118 718 118 q 840 147 806 118 q 894 254 874 176 l 1029 775 q 881 747 939 760 q 838 777 853 757 q 824 825 824 797 q 878 889 824 865 q 1038 919 988 911 q 1139 928 1088 926 m 168 719 q 126 749 140 729 q 111 797 111 769 q 165 861 111 838 q 565 918 364 901 q 619 854 619 894 q 594 806 619 829 q 538 772 569 782 l 461 763 q 353 314 438 658 l 314 158 l 421 169 q 475 106 475 146 q 450 57 475 81 q 393 24 425 33 l 338 17 q 24 -29 133 -6 q -19 1 -4 -19 q -33 49 -33 21 q 21 113 -33 89 q 126 132 90 126 l 279 739 q 168 719 222 731 z "},"Í":{"ha":550,"x_min":-33,"x_max":619,"o":"m 235 1036 q 309 1118 254 1065 q 417 1212 364 1171 q 486 1253 471 1253 q 553 1226 515 1253 q 590 1178 590 1200 q 571 1142 590 1160 q 492 1082 551 1124 q 363 999 407 1022 q 282 976 318 976 q 243 986 256 976 q 231 1019 231 996 q 235 1036 231 1031 m 168 719 q 126 749 140 729 q 111 797 111 769 q 165 861 111 838 q 565 918 364 901 q 619 854 619 894 q 594 806 619 829 q 538 772 569 782 l 461 763 q 353 314 438 658 l 314 158 l 421 169 q 475 106 475 146 q 450 57 475 81 q 393 24 425 33 l 338 17 q 24 -29 133 -6 q -19 1 -4 -19 q -33 49 -33 21 q 21 113 -33 89 q 126 132 90 126 l 279 739 q 168 719 222 731 z "},"Ĭ":{"ha":550,"x_min":-33,"x_max":660,"o":"m 399 983 q 263 1017 314 983 q 211 1114 211 1051 q 285 1190 211 1190 q 332 1146 331 1190 q 347 1107 333 1118 q 410 1096 361 1096 q 479 1105 454 1096 q 519 1131 504 1114 q 551 1183 533 1149 q 574 1197 561 1192 q 599 1203 588 1203 q 660 1183 647 1203 q 572 1036 646 1086 q 399 983 499 986 m 168 719 q 126 749 140 729 q 111 797 111 769 q 165 861 111 838 q 565 918 364 901 q 619 854 619 894 q 594 806 619 829 q 538 772 569 782 l 461 763 q 353 314 438 658 l 314 158 l 421 169 q 475 106 475 146 q 450 57 475 81 q 393 24 425 33 l 338 17 q 24 -29 133 -6 q -19 1 -4 -19 q -33 49 -33 21 q 21 113 -33 89 q 126 132 90 126 l 279 739 q 168 719 222 731 z "},"Ǐ":{"ha":550,"x_min":-33,"x_max":667,"o":"m 401 990 q 352 1003 374 990 q 299 1058 331 1017 l 228 1150 q 214 1185 214 1168 q 235 1223 214 1207 q 286 1239 257 1239 q 339 1210 314 1239 l 415 1118 q 538 1219 499 1190 q 596 1249 578 1249 q 645 1236 624 1249 q 667 1203 667 1224 q 662 1175 667 1188 q 638 1147 657 1163 l 607 1122 q 464 1007 503 1036 q 401 990 443 990 m 168 719 q 126 749 140 729 q 111 797 111 769 q 165 861 111 838 q 565 918 364 901 q 619 854 619 894 q 594 806 619 829 q 538 772 569 782 l 461 763 q 353 314 438 658 l 314 158 l 421 169 q 475 106 475 146 q 450 57 475 81 q 393 24 425 33 l 338 17 q 24 -29 133 -6 q -19 1 -4 -19 q -33 49 -33 21 q 21 113 -33 89 q 126 132 90 126 l 279 739 q 168 719 222 731 z "},"Î":{"ha":550,"x_min":-33,"x_max":619,"o":"m 431 1239 q 480 1226 458 1239 q 533 1171 501 1213 l 604 1079 q 618 1044 618 1061 q 597 1006 618 1022 q 546 990 575 990 q 493 1019 518 990 l 417 1111 q 294 1010 333 1039 q 236 981 254 981 q 187 993 208 981 q 165 1026 165 1006 q 170 1054 165 1042 q 194 1082 175 1067 l 225 1107 q 368 1222 329 1193 q 431 1239 389 1239 m 168 719 q 126 749 140 729 q 111 797 111 769 q 165 861 111 838 q 565 918 364 901 q 619 854 619 894 q 594 806 619 829 q 538 772 569 782 l 461 763 q 353 314 438 658 l 314 158 l 421 169 q 475 106 475 146 q 450 57 475 81 q 393 24 425 33 l 338 17 q 24 -29 133 -6 q -19 1 -4 -19 q -33 49 -33 21 q 21 113 -33 89 q 126 132 90 126 l 279 739 q 168 719 222 731 z "},"Ȉ":{"ha":550,"x_min":-33,"x_max":619,"o":"m 358 1039 q 351 1002 358 1022 q 331 982 344 982 l 325 983 q 297 1002 311 988 q 261 1043 282 1017 q 208 1099 228 1081 q 164 1126 189 1118 q 140 1140 149 1132 q 132 1165 132 1147 q 149 1228 132 1197 q 196 1258 167 1258 q 350 1075 269 1258 q 358 1039 358 1057 m 601 1039 q 594 1002 601 1022 q 574 982 588 982 l 568 983 q 540 1002 554 988 q 504 1043 525 1017 q 451 1099 471 1081 q 407 1126 432 1118 q 383 1140 392 1132 q 375 1165 375 1147 q 392 1228 375 1197 q 439 1258 410 1258 q 593 1075 513 1258 q 601 1039 601 1057 m 168 719 q 126 749 140 729 q 111 797 111 769 q 165 861 111 838 q 565 918 364 901 q 619 854 619 894 q 594 806 619 829 q 538 772 569 782 l 461 763 q 353 314 438 658 l 314 158 l 421 169 q 475 106 475 146 q 450 57 475 81 q 393 24 425 33 l 338 17 q 24 -29 133 -6 q -19 1 -4 -19 q -33 49 -33 21 q 21 113 -33 89 q 126 132 90 126 l 279 739 q 168 719 222 731 z "},"Ï":{"ha":550,"x_min":-33,"x_max":669,"o":"m 546 971 q 482 999 514 971 q 450 1057 450 1026 q 486 1137 450 1106 q 569 1168 522 1168 q 638 1140 606 1168 q 669 1079 669 1113 q 633 1003 669 1035 q 546 971 596 971 m 229 965 q 168 991 197 965 q 139 1049 139 1017 q 178 1131 139 1096 q 264 1165 217 1165 q 326 1135 299 1165 q 354 1071 354 1106 q 317 996 354 1026 q 229 965 279 965 m 168 719 q 126 749 140 729 q 111 797 111 769 q 165 861 111 838 q 565 918 364 901 q 619 854 619 894 q 594 806 619 829 q 538 772 569 782 l 461 763 q 353 314 438 658 l 314 158 l 421 169 q 475 106 475 146 q 450 57 475 81 q 393 24 425 33 l 338 17 q 24 -29 133 -6 q -19 1 -4 -19 q -33 49 -33 21 q 21 113 -33 89 q 126 132 90 126 l 279 739 q 168 719 222 731 z "},"İ":{"ha":550,"x_min":-33,"x_max":619,"o":"m 396 985 q 335 1010 364 985 q 306 1068 306 1036 q 344 1150 306 1115 q 431 1185 383 1185 q 493 1155 465 1185 q 521 1090 521 1125 q 483 1015 521 1046 q 396 985 446 985 m 168 719 q 126 749 140 729 q 111 797 111 769 q 165 861 111 838 q 565 918 364 901 q 619 854 619 894 q 594 806 619 829 q 538 772 569 782 l 461 763 q 353 314 438 658 l 314 158 l 421 169 q 475 106 475 146 q 450 57 475 81 q 393 24 425 33 l 338 17 q 24 -29 133 -6 q -19 1 -4 -19 q -33 49 -33 21 q 21 113 -33 89 q 126 132 90 126 l 279 739 q 168 719 222 731 z "},"Ị":{"ha":550,"x_min":-33,"x_max":619,"o":"m 168 719 q 126 749 140 729 q 111 797 111 769 q 165 861 111 838 q 565 918 364 901 q 619 854 619 894 q 594 806 619 829 q 538 772 569 782 l 461 763 q 353 314 438 658 l 314 158 l 421 169 q 475 106 475 146 q 450 57 475 81 q 393 24 425 33 l 338 17 q 24 -29 133 -6 q -19 1 -4 -19 q -33 49 -33 21 q 21 113 -33 89 q 126 132 90 126 l 279 739 q 168 719 222 731 m 142 -299 q 81 -273 110 -299 q 51 -215 51 -247 q 90 -133 51 -168 q 176 -99 129 -99 q 239 -128 211 -99 q 267 -193 267 -158 q 229 -268 267 -237 q 142 -299 192 -299 z "},"Ì":{"ha":550,"x_min":-33,"x_max":619,"o":"m 501 1039 q 506 1022 506 1033 q 493 989 506 999 q 454 979 481 979 q 374 1002 418 979 q 244 1085 329 1025 q 165 1144 185 1126 q 146 1181 146 1163 q 183 1229 146 1203 q 250 1256 221 1256 q 319 1215 265 1256 q 427 1121 372 1174 q 501 1039 482 1068 m 168 719 q 126 749 140 729 q 111 797 111 769 q 165 861 111 838 q 565 918 364 901 q 619 854 619 894 q 594 806 619 829 q 538 772 569 782 l 461 763 q 353 314 438 658 l 314 158 l 421 169 q 475 106 475 146 q 450 57 475 81 q 393 24 425 33 l 338 17 q 24 -29 133 -6 q -19 1 -4 -19 q -33 49 -33 21 q 21 113 -33 89 q 126 132 90 126 l 279 739 q 168 719 222 731 z "},"Ỉ":{"ha":550,"x_min":-33,"x_max":629,"o":"m 454 1013 q 390 975 433 975 q 356 982 368 975 q 343 1001 343 989 q 365 1093 343 1011 q 389 1126 371 1115 q 442 1149 407 1138 q 493 1172 476 1160 q 510 1208 510 1183 q 498 1229 510 1219 q 458 1239 486 1239 q 415 1233 429 1239 q 399 1225 400 1226 q 387 1219 397 1224 q 361 1214 376 1214 q 337 1228 347 1214 q 326 1257 326 1242 q 372 1313 326 1297 q 478 1328 417 1328 q 583 1301 538 1328 q 629 1224 629 1275 q 596 1140 629 1171 q 510 1088 563 1108 q 475 1064 485 1078 q 461 1035 465 1050 q 454 1013 457 1021 m 168 719 q 126 749 140 729 q 111 797 111 769 q 165 861 111 838 q 565 918 364 901 q 619 854 619 894 q 594 806 619 829 q 538 772 569 782 l 461 763 q 353 314 438 658 l 314 158 l 421 169 q 475 106 475 146 q 450 57 475 81 q 393 24 425 33 l 338 17 q 24 -29 133 -6 q -19 1 -4 -19 q -33 49 -33 21 q 21 113 -33 89 q 126 132 90 126 l 279 739 q 168 719 222 731 z "},"Ȋ":{"ha":550,"x_min":-33,"x_max":667,"o":"m 469 1189 q 609 1158 551 1189 q 667 1068 667 1128 q 599 990 667 990 q 539 1029 542 990 q 461 1076 536 1076 q 317 999 340 1076 q 297 980 314 988 q 267 972 279 972 q 214 979 232 972 q 196 1006 196 986 q 469 1189 196 1176 m 168 719 q 126 749 140 729 q 111 797 111 769 q 165 861 111 838 q 565 918 364 901 q 619 854 619 894 q 594 806 619 829 q 538 772 569 782 l 461 763 q 353 314 438 658 l 314 158 l 421 169 q 475 106 475 146 q 450 57 475 81 q 393 24 425 33 l 338 17 q 24 -29 133 -6 q -19 1 -4 -19 q -33 49 -33 21 q 21 113 -33 89 q 126 132 90 126 l 279 739 q 168 719 222 731 z "},"Ī":{"ha":550,"x_min":-33,"x_max":663,"o":"m 663 1111 q 567 1038 658 1047 l 276 1006 q 217 1000 238 1000 q 151 1056 156 1004 l 151 1067 q 170 1111 153 1096 q 223 1133 188 1126 q 333 1149 258 1140 l 596 1176 q 663 1121 661 1172 l 663 1111 m 168 719 q 126 749 140 729 q 111 797 111 769 q 165 861 111 838 q 565 918 364 901 q 619 854 619 894 q 594 806 619 829 q 538 772 569 782 l 461 763 q 353 314 438 658 l 314 158 l 421 169 q 475 106 475 146 q 450 57 475 81 q 393 24 425 33 l 338 17 q 24 -29 133 -6 q -19 1 -4 -19 q -33 49 -33 21 q 21 113 -33 89 q 126 132 90 126 l 279 739 q 168 719 222 731 z "},"Į":{"ha":550,"x_min":-33,"x_max":619,"o":"m 565 918 q 619 854 619 894 q 594 806 619 829 q 538 772 569 782 l 461 763 q 353 314 438 658 l 314 158 l 421 169 q 475 106 475 146 q 454 63 475 83 l 456 63 q 381 -22 404 15 q 357 -99 357 -58 q 419 -161 357 -161 q 486 -153 451 -161 q 506 -181 506 -167 q 460 -229 506 -215 q 367 -243 414 -243 q 253 -208 300 -243 q 207 -99 207 -174 q 224 -45 207 -74 q 274 10 242 -17 q 24 -29 110 -10 q -19 1 -4 -19 q -33 49 -33 21 q 21 113 -33 89 q 126 132 90 126 l 279 739 q 168 719 222 731 q 126 749 140 729 q 111 797 111 769 q 165 861 111 838 q 565 918 364 901 z "},"Ĩ":{"ha":550,"x_min":-33,"x_max":685,"o":"m 333 1068 q 213 986 288 1068 q 189 1010 196 996 q 182 1061 182 1025 q 211 1119 182 1089 q 281 1170 240 1150 q 356 1190 322 1190 q 481 1142 417 1190 q 528 1113 507 1121 q 572 1104 549 1104 q 603 1113 589 1104 q 631 1135 617 1122 q 651 1156 644 1149 q 664 1161 657 1161 q 675 1154 669 1161 q 682 1147 681 1147 q 685 1135 685 1147 q 658 1062 685 1096 q 597 1007 632 1028 q 542 986 563 986 q 484 997 510 986 q 422 1031 458 1007 q 376 1060 396 1051 q 333 1068 356 1068 m 168 719 q 126 749 140 729 q 111 797 111 769 q 165 861 111 838 q 565 918 364 901 q 619 854 619 894 q 594 806 619 829 q 538 772 569 782 l 461 763 q 353 314 438 658 l 314 158 l 421 169 q 475 106 475 146 q 450 57 475 81 q 393 24 425 33 l 338 17 q 24 -29 133 -6 q -19 1 -4 -19 q -33 49 -33 21 q 21 113 -33 89 q 126 132 90 126 l 279 739 q 168 719 222 731 z "},"J":{"ha":651,"x_min":-39,"x_max":686,"o":"m 589 928 q 655 919 626 928 q 686 894 683 911 q 631 626 686 860 q 528 213 575 393 q 426 48 501 113 q 226 -17 350 -17 q 66 22 125 -17 q -16 113 7 60 q -39 217 -39 165 q -19 334 -39 297 q 51 371 1 371 q 128 358 100 371 q 156 324 156 344 q 133 279 156 310 q 110 233 110 247 q 140 143 111 168 q 219 118 168 118 q 290 147 256 118 q 344 254 324 176 l 479 775 q 331 747 389 760 q 288 777 303 757 q 274 825 274 797 q 328 889 274 865 q 488 919 438 911 q 589 928 538 926 z "},"Ĵ":{"ha":651,"x_min":-39,"x_max":778,"o":"m 590 1235 q 640 1222 618 1235 q 693 1167 661 1208 l 764 1075 q 778 1040 778 1057 q 756 1002 778 1018 q 706 986 735 986 q 653 1015 678 986 l 576 1107 q 453 1006 493 1035 q 396 976 414 976 q 347 989 368 976 q 325 1022 325 1001 q 330 1050 325 1038 q 354 1078 335 1063 l 385 1103 q 528 1218 489 1189 q 590 1235 549 1235 m 589 928 q 655 919 626 928 q 686 894 683 911 q 631 626 686 860 q 528 213 575 393 q 426 48 501 113 q 226 -17 350 -17 q 66 22 125 -17 q -16 113 7 60 q -39 217 -39 165 q -19 334 -39 297 q 51 371 1 371 q 128 358 100 371 q 156 324 156 344 q 133 279 156 310 q 110 233 110 247 q 140 143 111 168 q 219 118 168 118 q 290 147 256 118 q 344 254 324 176 l 479 775 q 331 747 389 760 q 288 777 303 757 q 274 825 274 797 q 328 889 274 865 q 488 919 438 911 q 589 928 538 926 z "},"K":{"ha":844,"x_min":13,"x_max":904,"o":"m 881 882 q 904 810 904 835 q 899 790 904 796 q 853 763 890 781 q 803 739 815 744 q 683 658 763 721 q 533 527 603 594 q 449 433 463 460 q 515 316 461 390 q 626 182 569 242 q 699 122 682 122 l 713 121 q 751 90 729 118 q 774 39 774 63 q 750 15 774 19 q 706 1 735 13 q 654 -8 679 -8 q 610 -1 625 -8 q 497 87 567 17 q 367 244 426 157 q 289 399 307 332 l 201 50 q 172 -4 192 10 q 96 -18 151 -18 q 33 -3 53 -18 q 13 46 13 11 q 17 75 13 61 l 185 722 l 181 869 q 216 907 186 893 q 271 921 246 921 q 345 891 308 921 q 383 818 382 861 q 314 501 383 788 q 459 663 363 568 q 653 831 556 757 q 806 914 750 904 q 846 908 819 914 q 881 882 872 901 z "},"Ķ":{"ha":844,"x_min":13,"x_max":904,"o":"m 881 882 q 904 810 904 835 q 899 790 904 796 q 853 763 890 781 q 803 739 815 744 q 683 658 763 721 q 533 527 603 594 q 449 433 463 460 q 515 316 461 390 q 626 182 569 242 q 699 122 682 122 l 713 121 q 751 90 729 118 q 774 39 774 63 q 750 15 774 19 q 706 1 735 13 q 654 -8 679 -8 q 610 -1 625 -8 q 497 87 567 17 q 367 244 426 157 q 289 399 307 332 l 201 50 q 172 -4 192 10 q 96 -18 151 -18 q 33 -3 53 -18 q 13 46 13 11 q 17 75 13 61 l 185 722 l 181 869 q 216 907 186 893 q 271 921 246 921 q 345 891 308 921 q 383 818 382 861 q 314 501 383 788 q 459 663 363 568 q 653 831 556 757 q 806 914 750 904 q 846 908 819 914 q 881 882 872 901 m 383 -78 q 442 -101 419 -78 q 465 -144 465 -124 q 429 -248 465 -193 q 325 -381 393 -303 q 247 -419 286 -419 q 208 -393 208 -419 q 220 -345 208 -367 q 256 -289 232 -324 q 292 -233 281 -257 q 304 -183 304 -210 q 301 -158 304 -174 q 299 -132 299 -143 q 315 -92 299 -107 q 383 -78 332 -78 z "},"L":{"ha":642,"x_min":32,"x_max":636,"o":"m 582 176 q 636 113 636 153 q 611 64 636 88 q 554 31 586 40 q 446 21 478 22 q 183 -8 260 6 q 131 -17 171 -17 q 62 19 92 -17 q 32 94 32 56 q 36 124 32 110 l 214 826 q 247 908 229 888 q 310 928 264 928 q 374 919 347 928 q 403 894 401 911 q 224 139 403 856 q 535 172 346 160 l 582 176 z "},"Ǉ":{"ha":1293,"x_min":32,"x_max":1328,"o":"m 1231 928 q 1297 919 1268 928 q 1328 894 1325 911 q 1272 626 1328 860 q 1169 213 1217 393 q 1067 48 1143 113 q 868 -17 992 -17 q 633 97 700 -17 q 603 58 626 76 q 554 31 581 39 q 446 21 478 22 q 183 -8 260 6 q 131 -17 171 -17 q 62 19 92 -17 q 32 94 32 56 q 36 124 32 110 l 214 826 q 247 908 229 888 q 310 928 264 928 q 374 919 347 928 q 403 894 401 911 q 224 139 403 856 q 535 172 346 160 l 582 176 q 610 161 596 171 q 603 217 603 186 q 623 334 603 297 q 693 371 643 371 q 769 358 742 371 q 797 324 797 344 q 775 279 797 310 q 751 233 751 247 q 781 143 753 168 q 861 118 810 118 q 931 147 897 118 q 986 254 965 176 l 1121 775 q 972 747 1031 760 q 930 777 944 757 q 915 825 915 797 q 969 889 915 865 q 1129 919 1079 911 q 1231 928 1179 926 z "},"Ĺ":{"ha":642,"x_min":32,"x_max":661,"o":"m 557 1261 q 624 1235 586 1261 q 661 1186 661 1208 q 642 1150 661 1168 q 563 1090 622 1132 q 433 1008 478 1031 q 353 985 389 985 q 314 994 326 985 q 301 1028 301 1004 q 306 1044 301 1039 q 380 1126 325 1074 q 488 1220 435 1179 q 557 1261 542 1261 m 582 176 q 636 113 636 153 q 611 64 636 88 q 554 31 586 40 q 446 21 478 22 q 183 -8 260 6 q 131 -17 171 -17 q 62 19 92 -17 q 32 94 32 56 q 36 124 32 110 l 214 826 q 247 908 229 888 q 310 928 264 928 q 374 919 347 928 q 403 894 401 911 q 224 139 403 856 q 535 172 346 160 l 582 176 z "},"Ľ":{"ha":642,"x_min":32,"x_max":767,"o":"m 582 176 q 636 113 636 153 q 611 64 636 88 q 554 31 586 40 q 446 21 478 22 q 183 -8 260 6 q 131 -17 171 -17 q 62 19 92 -17 q 32 94 32 56 q 36 124 32 110 l 214 826 q 247 908 229 888 q 310 928 264 928 q 374 919 347 928 q 403 894 401 911 q 224 139 403 856 q 535 172 346 160 l 582 176 m 549 581 q 510 607 510 581 q 522 655 510 633 q 557 711 533 676 q 594 767 582 743 q 606 817 606 790 q 603 842 606 826 q 600 868 600 857 q 617 908 600 893 q 685 922 633 922 q 744 899 721 922 q 767 856 767 876 q 731 752 767 807 q 626 619 694 697 q 549 581 588 581 z "},"Ļ":{"ha":642,"x_min":32,"x_max":636,"o":"m 582 176 q 636 113 636 153 q 611 64 636 88 q 554 31 586 40 q 446 21 478 22 q 183 -8 260 6 q 131 -17 171 -17 q 62 19 92 -17 q 32 94 32 56 q 36 124 32 110 l 214 826 q 247 908 229 888 q 310 928 264 928 q 374 919 347 928 q 403 894 401 911 q 224 139 403 856 q 535 172 346 160 l 582 176 m 317 -78 q 376 -101 353 -78 q 399 -144 399 -124 q 363 -248 399 -193 q 258 -381 326 -303 q 181 -419 219 -419 q 142 -393 142 -419 q 153 -345 142 -367 q 189 -289 165 -324 q 226 -233 214 -257 q 238 -183 238 -210 q 235 -158 238 -174 q 232 -132 232 -143 q 249 -92 232 -107 q 317 -78 265 -78 z "},"Ŀ":{"ha":642,"x_min":32,"x_max":636,"o":"m 582 176 q 636 113 636 153 q 611 64 636 88 q 554 31 586 40 q 446 21 478 22 q 183 -8 260 6 q 131 -17 171 -17 q 62 19 92 -17 q 32 94 32 56 q 36 124 32 110 l 214 826 q 247 908 229 888 q 310 928 264 928 q 374 919 347 928 q 403 894 401 911 q 224 139 403 856 q 535 172 346 160 l 582 176 m 507 422 q 446 448 475 422 q 417 506 417 474 q 456 588 417 553 q 542 622 494 622 q 604 592 576 622 q 632 528 632 563 q 594 453 632 483 q 507 422 557 422 z "},"Ḷ":{"ha":642,"x_min":32,"x_max":636,"o":"m 582 176 q 636 113 636 153 q 611 64 636 88 q 554 31 586 40 q 446 21 478 22 q 183 -8 260 6 q 131 -17 171 -17 q 62 19 92 -17 q 32 94 32 56 q 36 124 32 110 l 214 826 q 247 908 229 888 q 310 928 264 928 q 374 919 347 928 q 403 894 401 911 q 224 139 403 856 q 535 172 346 160 l 582 176 m 347 -99 q 410 -128 382 -99 q 438 -193 438 -158 q 400 -268 438 -237 q 313 -299 363 -299 q 251 -273 281 -299 q 222 -215 222 -247 q 261 -133 222 -168 q 347 -99 300 -99 z "},"Ḹ":{"ha":642,"x_min":32,"x_max":636,"o":"m 143 1004 q 78 1060 82 1008 l 78 1071 q 98 1118 81 1101 q 153 1142 115 1135 q 260 1153 190 1150 l 522 1164 q 589 1108 588 1160 l 589 1099 q 561 1046 588 1064 q 493 1025 535 1028 l 203 1010 q 143 1004 164 1004 m 582 176 q 636 113 636 153 q 611 64 636 88 q 554 31 586 40 q 446 21 478 22 q 183 -8 260 6 q 131 -17 171 -17 q 62 19 92 -17 q 32 94 32 56 q 36 124 32 110 l 214 826 q 247 908 229 888 q 310 928 264 928 q 374 919 347 928 q 403 894 401 911 q 224 139 403 856 q 535 172 346 160 l 582 176 m 329 -99 q 392 -128 364 -99 q 419 -193 419 -158 q 382 -268 419 -237 q 294 -299 344 -299 q 233 -273 263 -299 q 204 -215 204 -247 q 243 -133 204 -168 q 329 -99 282 -99 z "},"ǈ":{"ha":1093,"x_min":32,"x_max":1100,"o":"m 972 935 q 1062 903 1024 935 q 1100 831 1100 871 q 1061 761 1100 790 q 971 732 1022 732 q 895 758 921 732 q 869 825 869 783 q 897 901 869 868 q 972 935 924 935 m 554 31 q 446 21 478 22 q 183 -8 260 6 q 131 -17 171 -17 q 62 19 92 -17 q 32 94 32 56 q 36 124 32 110 l 214 826 q 247 908 229 888 q 310 928 264 928 q 374 919 347 928 q 403 894 401 911 q 224 139 403 856 q 535 172 346 160 l 582 176 q 636 113 636 153 q 611 64 636 88 q 554 31 586 40 m 940 676 q 1010 648 989 676 q 1036 579 1032 619 q 889 -12 944 200 q 779 -232 851 -158 q 575 -306 707 -306 q 466 -278 511 -306 q 399 -208 421 -250 q 378 -119 378 -165 q 394 -64 378 -85 q 460 -43 410 -43 q 485 -57 478 -43 q 499 -100 493 -71 q 522 -164 507 -142 q 581 -186 538 -186 q 663 -144 629 -186 q 715 -26 697 -103 l 867 593 l 829 635 q 825 644 825 639 q 856 667 825 658 q 940 676 886 676 z "},"Ḻ":{"ha":642,"x_min":32,"x_max":636,"o":"m 582 176 q 636 113 636 153 q 611 64 636 88 q 554 31 586 40 q 446 21 478 22 q 183 -8 260 6 q 131 -17 171 -17 q 62 19 92 -17 q 32 94 32 56 q 36 124 32 110 l 214 826 q 247 908 229 888 q 310 928 264 928 q 374 919 347 928 q 403 894 401 911 q 224 139 403 856 q 535 172 346 160 l 582 176 m 489 -103 q 539 -114 524 -106 q 556 -147 554 -122 l 556 -157 q 528 -210 554 -192 q 460 -231 501 -228 l 169 -246 q 110 -251 131 -251 q 44 -196 49 -247 l 44 -185 q 63 -142 46 -156 q 116 -122 81 -128 q 226 -114 151 -117 l 489 -103 z "},"Ł":{"ha":642,"x_min":26,"x_max":636,"o":"m 403 894 q 325 549 403 869 l 510 606 l 524 608 q 550 611 543 611 l 568 611 q 591 608 583 611 q 603 590 599 604 l 604 581 q 606 563 606 574 q 588 522 606 536 q 532 497 569 508 l 294 424 l 278 353 l 224 139 q 399 162 310 154 q 504 171 488 169 q 582 176 558 174 q 636 113 636 153 q 600 53 636 74 q 510 25 564 33 q 360 10 456 17 q 183 -8 238 1 q 131 -17 171 -17 q 62 19 92 -17 q 32 94 32 56 q 36 124 32 110 l 96 361 q 68 358 76 358 q 32 378 40 358 l 29 389 q 28 393 29 392 q 26 399 26 394 q 50 447 26 426 q 128 488 74 468 l 214 826 q 247 908 229 888 q 310 928 264 928 q 374 919 347 928 q 403 894 401 911 z "},"M":{"ha":1133,"x_min":19,"x_max":1124,"o":"m 1035 928 q 1102 912 1086 918 q 1124 893 1118 906 q 1047 574 1094 781 q 983 297 1000 368 q 926 46 953 156 q 865 -31 907 -31 q 738 29 738 -31 q 810 343 738 6 l 835 463 l 558 35 q 493 7 536 7 q 426 25 457 7 q 399 61 394 43 l 322 510 l 208 50 q 178 -4 199 10 q 103 -18 158 -18 q 40 -3 60 -18 q 19 46 19 11 q 24 75 19 61 l 214 826 q 247 908 229 888 q 310 928 264 928 q 376 919 347 928 q 407 894 406 911 l 407 892 l 518 201 q 715 518 578 297 q 929 863 851 739 q 960 908 943 897 q 1001 922 978 918 q 1035 928 1024 926 m 738 29 z "},"Ṃ":{"ha":1133,"x_min":19,"x_max":1124,"o":"m 1035 928 q 1102 912 1086 918 q 1124 893 1118 906 q 1047 574 1094 781 q 983 297 1000 368 q 926 46 953 156 q 865 -31 907 -31 q 738 29 738 -31 q 810 343 738 6 l 835 463 l 558 35 q 493 7 536 7 q 426 25 457 7 q 399 61 394 43 l 322 510 l 208 50 q 178 -4 199 10 q 103 -18 158 -18 q 40 -3 60 -18 q 19 46 19 11 q 24 75 19 61 l 214 826 q 247 908 229 888 q 310 928 264 928 q 376 919 347 928 q 407 894 406 911 l 407 892 l 518 201 q 715 518 578 297 q 929 863 851 739 q 960 908 943 897 q 1001 922 978 918 q 1035 928 1024 926 m 738 29 m 440 -99 q 503 -128 475 -99 q 531 -193 531 -158 q 493 -268 531 -237 q 406 -299 456 -299 q 344 -273 374 -299 q 315 -215 315 -247 q 354 -133 315 -168 q 440 -99 393 -99 z "},"N":{"ha":963,"x_min":6,"x_max":947,"o":"m 858 928 q 926 912 910 918 q 947 893 942 906 q 871 574 918 781 q 807 297 824 368 q 750 46 776 156 q 689 -31 731 -31 q 564 14 579 -31 l 561 11 l 335 617 l 249 267 q 194 50 224 171 q 165 -4 185 10 q 89 -18 144 -18 q 26 -3 46 -18 q 6 46 6 11 q 10 75 6 61 l 200 826 q 233 908 215 888 q 296 928 250 928 q 363 919 333 928 q 393 894 392 911 l 393 890 l 617 271 q 732 783 707 707 q 785 881 751 842 q 858 928 818 919 m 392 896 m 561 29 z "},"Ǌ":{"ha":1614,"x_min":6,"x_max":1649,"o":"m 858 928 q 926 912 910 918 q 947 893 942 906 q 871 574 918 781 q 807 297 824 368 q 750 46 776 156 q 689 -31 731 -31 q 564 14 579 -31 l 561 11 l 335 617 l 249 267 q 194 50 224 171 q 165 -4 185 10 q 89 -18 144 -18 q 26 -3 46 -18 q 6 46 6 11 q 10 75 6 61 l 200 826 q 233 908 215 888 q 296 928 250 928 q 363 919 333 928 q 393 894 392 911 l 393 890 l 617 271 q 732 783 707 707 q 785 881 751 842 q 858 928 818 919 m 1551 928 q 1617 919 1589 928 q 1649 894 1646 911 q 1593 626 1649 860 q 1490 213 1538 393 q 1388 48 1464 113 q 1189 -17 1313 -17 q 1028 22 1088 -17 q 947 113 969 60 q 924 217 924 165 q 944 334 924 297 q 1014 371 964 371 q 1090 358 1063 371 q 1118 324 1118 344 q 1096 279 1118 310 q 1072 233 1072 247 q 1102 143 1074 168 q 1182 118 1131 118 q 1252 147 1218 118 q 1307 254 1286 176 l 1442 775 q 1293 747 1351 760 q 1251 777 1265 757 q 1236 825 1236 797 q 1290 889 1236 865 q 1450 919 1400 911 q 1551 928 1500 926 m 392 896 m 561 29 z "},"Ń":{"ha":963,"x_min":6,"x_max":947,"o":"m 589 990 q 550 1000 563 990 q 538 1033 538 1010 q 542 1050 538 1044 q 616 1132 561 1079 q 724 1226 671 1185 q 793 1267 778 1267 q 860 1240 822 1267 q 897 1192 897 1214 q 878 1156 897 1174 q 799 1096 858 1138 q 669 1013 714 1036 q 589 990 625 990 m 858 928 q 926 912 910 918 q 947 893 942 906 q 871 574 918 781 q 807 297 824 368 q 750 46 776 156 q 689 -31 731 -31 q 564 14 579 -31 l 561 11 l 335 617 l 249 267 q 194 50 224 171 q 165 -4 185 10 q 89 -18 144 -18 q 26 -3 46 -18 q 6 46 6 11 q 10 75 6 61 l 200 826 q 233 908 215 888 q 296 928 250 928 q 363 919 333 928 q 393 894 392 911 l 393 890 l 617 271 q 732 783 707 707 q 785 881 751 842 q 858 928 818 919 m 392 896 m 561 29 z "},"Ň":{"ha":963,"x_min":6,"x_max":947,"o":"m 432 1150 q 418 1185 418 1168 q 440 1223 418 1207 q 490 1239 461 1239 q 543 1210 518 1239 l 619 1118 q 742 1219 703 1190 q 800 1249 782 1249 q 849 1236 828 1249 q 871 1203 871 1224 q 866 1175 871 1188 q 842 1147 861 1163 l 811 1122 q 668 1007 707 1036 q 606 990 647 990 q 556 1003 578 990 q 503 1058 535 1017 l 432 1150 m 858 928 q 926 912 910 918 q 947 893 942 906 q 871 574 918 781 q 807 297 824 368 q 750 46 776 156 q 689 -31 731 -31 q 564 14 579 -31 l 561 11 l 335 617 l 249 267 q 194 50 224 171 q 165 -4 185 10 q 89 -18 144 -18 q 26 -3 46 -18 q 6 46 6 11 q 10 75 6 61 l 200 826 q 233 908 215 888 q 296 928 250 928 q 363 919 333 928 q 393 894 392 911 l 393 890 l 617 271 q 732 783 707 707 q 785 881 751 842 q 858 928 818 919 m 392 896 m 561 29 z "},"Ņ":{"ha":963,"x_min":6,"x_max":947,"o":"m 858 928 q 926 912 910 918 q 947 893 942 906 q 871 574 918 781 q 807 297 824 368 q 750 46 776 156 q 689 -31 731 -31 q 564 14 579 -31 l 561 11 l 335 617 l 249 267 q 194 50 224 171 q 165 -4 185 10 q 89 -18 144 -18 q 26 -3 46 -18 q 6 46 6 11 q 10 75 6 61 l 200 826 q 233 908 215 888 q 296 928 250 928 q 363 919 333 928 q 393 894 392 911 l 393 890 l 617 271 q 732 783 707 707 q 785 881 751 842 q 858 928 818 919 m 392 896 m 561 29 m 404 -58 q 463 -81 440 -58 q 486 -125 486 -104 q 450 -228 486 -174 q 346 -361 414 -283 q 268 -400 307 -400 q 229 -374 229 -400 q 241 -326 229 -347 q 276 -269 253 -304 q 313 -214 301 -237 q 325 -164 325 -190 q 322 -139 325 -154 q 319 -112 319 -124 q 336 -73 319 -87 q 404 -58 353 -58 z "},"Ṅ":{"ha":963,"x_min":6,"x_max":947,"o":"m 606 989 q 544 1015 574 989 q 515 1072 515 1040 q 554 1154 515 1119 q 640 1189 593 1189 q 703 1159 675 1189 q 731 1094 731 1129 q 693 1019 731 1050 q 606 989 656 989 m 858 928 q 926 912 910 918 q 947 893 942 906 q 871 574 918 781 q 807 297 824 368 q 750 46 776 156 q 689 -31 731 -31 q 564 14 579 -31 l 561 11 l 335 617 l 249 267 q 194 50 224 171 q 165 -4 185 10 q 89 -18 144 -18 q 26 -3 46 -18 q 6 46 6 11 q 10 75 6 61 l 200 826 q 233 908 215 888 q 296 928 250 928 q 363 919 333 928 q 393 894 392 911 l 393 890 l 617 271 q 732 783 707 707 q 785 881 751 842 q 858 928 818 919 m 392 896 m 561 29 z "},"Ṇ":{"ha":963,"x_min":6,"x_max":947,"o":"m 858 928 q 926 912 910 918 q 947 893 942 906 q 871 574 918 781 q 807 297 824 368 q 750 46 776 156 q 689 -31 731 -31 q 564 14 579 -31 l 561 11 l 335 617 l 249 267 q 194 50 224 171 q 165 -4 185 10 q 89 -18 144 -18 q 26 -3 46 -18 q 6 46 6 11 q 10 75 6 61 l 200 826 q 233 908 215 888 q 296 928 250 928 q 363 919 333 928 q 393 894 392 911 l 393 890 l 617 271 q 732 783 707 707 q 785 881 751 842 q 858 928 818 919 m 392 896 m 561 29 m 374 -99 q 436 -128 408 -99 q 464 -193 464 -158 q 426 -268 464 -237 q 339 -299 389 -299 q 278 -273 307 -299 q 249 -215 249 -247 q 288 -133 249 -168 q 374 -99 326 -99 z "},"Ŋ":{"ha":963,"x_min":6,"x_max":947,"o":"m 668 -265 q 567 -430 644 -365 q 367 -494 490 -494 q 206 -456 265 -494 q 124 -365 147 -418 q 101 -261 101 -312 q 124 -221 107 -233 q 183 -208 140 -208 q 233 -211 214 -208 q 270 -322 235 -281 q 360 -362 306 -362 q 449 -332 401 -362 q 513 -224 496 -301 l 564 13 l 335 617 l 249 267 q 194 50 224 171 q 165 -4 185 10 q 89 -18 144 -18 q 26 -3 46 -18 q 6 46 6 11 q 10 75 6 61 l 200 826 q 233 908 215 888 q 296 928 250 928 q 363 919 333 928 q 393 894 392 911 l 393 892 q 469 678 418 821 q 572 392 521 535 l 617 269 q 732 783 708 710 q 785 881 751 842 q 858 928 818 919 q 926 912 910 918 q 947 893 942 906 l 668 -265 z "},"ǋ":{"ha":1414,"x_min":6,"x_max":1421,"o":"m 1293 935 q 1383 903 1344 935 q 1421 831 1421 871 q 1382 761 1421 790 q 1292 732 1343 732 q 1216 758 1242 732 q 1190 825 1190 783 q 1217 901 1190 868 q 1293 935 1244 935 m 750 46 q 689 -31 731 -31 q 564 14 579 -31 l 561 11 l 335 617 l 249 267 q 194 50 224 171 q 165 -4 185 10 q 89 -18 144 -18 q 26 -3 46 -18 q 6 46 6 11 q 10 75 6 61 l 200 826 q 233 908 215 888 q 296 928 250 928 q 363 919 333 928 q 393 894 392 911 l 393 890 l 617 271 q 732 783 707 707 q 785 881 751 842 q 858 928 818 919 q 926 912 910 918 q 947 893 942 906 q 871 574 918 781 q 807 297 824 368 q 750 46 776 156 m 392 896 m 1261 676 q 1331 648 1310 676 q 1357 579 1353 619 q 1210 -12 1265 200 q 1100 -232 1172 -158 q 896 -306 1028 -306 q 787 -278 832 -306 q 720 -208 742 -250 q 699 -119 699 -165 q 715 -64 699 -85 q 781 -43 731 -43 q 806 -57 799 -43 q 819 -100 814 -71 q 843 -164 828 -142 q 901 -186 858 -186 q 984 -144 950 -186 q 1036 -26 1018 -103 l 1188 593 l 1150 635 q 1146 644 1146 639 q 1176 667 1146 658 q 1261 676 1207 676 m 561 29 z "},"Ṉ":{"ha":963,"x_min":6,"x_max":947,"o":"m 858 928 q 926 912 910 918 q 947 893 942 906 q 871 574 918 781 q 807 297 824 368 q 750 46 776 156 q 689 -31 731 -31 q 564 14 579 -31 l 561 11 l 335 617 l 249 267 q 194 50 224 171 q 165 -4 185 10 q 89 -18 144 -18 q 26 -3 46 -18 q 6 46 6 11 q 10 75 6 61 l 200 826 q 233 908 215 888 q 296 928 250 928 q 363 919 333 928 q 393 894 392 911 l 393 890 l 617 271 q 732 783 707 707 q 785 881 751 842 q 858 928 818 919 m 392 896 m 561 29 m 558 -94 q 608 -106 593 -97 q 625 -139 624 -114 l 625 -149 q 597 -201 624 -183 q 529 -222 571 -219 l 239 -237 q 179 -243 200 -243 q 114 -187 118 -239 l 114 -176 q 133 -133 115 -147 q 185 -114 150 -119 q 296 -106 221 -108 l 558 -94 z "},"Ñ":{"ha":963,"x_min":6,"x_max":947,"o":"m 446 979 q 422 1003 429 989 q 415 1054 415 1018 q 444 1113 415 1082 q 515 1163 474 1143 q 589 1183 556 1183 q 714 1135 650 1183 q 761 1106 740 1114 q 806 1097 782 1097 q 836 1106 822 1097 q 864 1128 850 1115 q 885 1149 878 1142 q 897 1154 890 1154 q 908 1147 903 1154 q 915 1140 914 1140 q 918 1128 918 1140 q 892 1055 918 1089 q 831 1000 865 1021 q 775 979 796 979 q 717 990 743 979 q 656 1024 692 1000 q 609 1053 629 1044 q 567 1061 589 1061 q 446 979 521 1061 m 858 928 q 926 912 910 918 q 947 893 942 906 q 871 574 918 781 q 807 297 824 368 q 750 46 776 156 q 689 -31 731 -31 q 564 14 579 -31 l 561 11 l 335 617 l 249 267 q 194 50 224 171 q 165 -4 185 10 q 89 -18 144 -18 q 26 -3 46 -18 q 6 46 6 11 q 10 75 6 61 l 200 826 q 233 908 215 888 q 296 928 250 928 q 363 919 333 928 q 393 894 392 911 l 393 890 l 617 271 q 732 783 707 707 q 785 881 751 842 q 858 928 818 919 m 392 896 m 561 29 z "},"O":{"ha":900,"x_min":26,"x_max":849,"o":"m 356 -29 q 108 78 190 -29 q 26 368 26 185 q 92 649 26 519 q 274 854 157 778 q 536 931 390 931 q 763 834 678 931 q 849 546 849 738 q 785 276 849 410 q 610 56 722 142 q 356 -29 497 -29 m 375 96 q 508 172 443 96 q 615 368 574 249 q 656 611 656 488 q 624 748 656 706 q 514 790 593 790 q 358 714 426 790 q 253 524 290 638 q 215 303 215 410 q 238 193 215 240 q 298 121 261 146 q 375 96 335 96 z "},"Ó":{"ha":900,"x_min":26,"x_max":849,"o":"m 381 1038 q 455 1119 400 1067 q 563 1213 510 1172 q 632 1254 617 1254 q 699 1228 661 1254 q 736 1179 736 1201 q 717 1143 736 1161 q 638 1083 697 1125 q 508 1001 553 1024 q 428 978 464 978 q 389 988 401 978 q 376 1021 376 997 q 381 1038 376 1032 m 356 -29 q 108 78 190 -29 q 26 368 26 185 q 92 649 26 519 q 274 854 157 778 q 536 931 390 931 q 763 834 678 931 q 849 546 849 738 q 785 276 849 410 q 610 56 722 142 q 356 -29 497 -29 m 375 96 q 508 172 443 96 q 615 368 574 249 q 656 611 656 488 q 624 748 656 706 q 514 790 593 790 q 358 714 426 790 q 253 524 290 638 q 215 303 215 410 q 238 193 215 240 q 298 121 261 146 q 375 96 335 96 z "},"Ŏ":{"ha":900,"x_min":26,"x_max":882,"o":"m 621 982 q 485 1016 536 982 q 433 1113 433 1050 q 507 1189 433 1189 q 554 1144 553 1189 q 569 1106 556 1117 q 632 1094 583 1094 q 701 1103 676 1094 q 741 1130 726 1113 q 774 1182 756 1147 q 797 1196 783 1190 q 821 1201 810 1201 q 882 1182 869 1201 q 794 1035 868 1085 q 621 982 721 985 m 356 -29 q 108 78 190 -29 q 26 368 26 185 q 92 649 26 519 q 274 854 157 778 q 536 931 390 931 q 763 834 678 931 q 849 546 849 738 q 785 276 849 410 q 610 56 722 142 q 356 -29 497 -29 m 375 96 q 508 172 443 96 q 615 368 574 249 q 656 611 656 488 q 624 748 656 706 q 514 790 593 790 q 358 714 426 790 q 253 524 290 638 q 215 303 215 410 q 238 193 215 240 q 298 121 261 146 q 375 96 335 96 z "},"Ǒ":{"ha":900,"x_min":26,"x_max":858,"o":"m 593 990 q 544 1003 565 990 q 490 1058 522 1017 l 419 1150 q 406 1185 406 1168 q 427 1223 406 1207 q 478 1239 449 1239 q 531 1210 506 1239 l 607 1118 q 730 1219 690 1190 q 788 1249 769 1249 q 837 1236 815 1249 q 858 1203 858 1224 q 853 1175 858 1188 q 829 1147 849 1163 l 799 1122 q 656 1007 694 1036 q 593 990 635 990 m 356 -29 q 108 78 190 -29 q 26 368 26 185 q 92 649 26 519 q 274 854 157 778 q 536 931 390 931 q 763 834 678 931 q 849 546 849 738 q 785 276 849 410 q 610 56 722 142 q 356 -29 497 -29 m 375 96 q 508 172 443 96 q 615 368 574 249 q 656 611 656 488 q 624 748 656 706 q 514 790 593 790 q 358 714 426 790 q 253 524 290 638 q 215 303 215 410 q 238 193 215 240 q 298 121 261 146 q 375 96 335 96 z "},"Ô":{"ha":900,"x_min":26,"x_max":849,"o":"m 621 1232 q 670 1219 649 1232 q 724 1164 692 1206 l 794 1072 q 808 1038 808 1054 q 787 999 808 1015 q 736 983 765 983 q 683 1013 708 983 l 607 1104 q 484 1003 524 1032 q 426 974 444 974 q 377 986 399 974 q 356 1019 356 999 q 360 1047 356 1035 q 385 1075 365 1060 l 415 1100 q 558 1215 519 1186 q 621 1232 579 1232 m 356 -29 q 108 78 190 -29 q 26 368 26 185 q 92 649 26 519 q 274 854 157 778 q 536 931 390 931 q 763 834 678 931 q 849 546 849 738 q 785 276 849 410 q 610 56 722 142 q 356 -29 497 -29 m 375 96 q 508 172 443 96 q 615 368 574 249 q 656 611 656 488 q 624 748 656 706 q 514 790 593 790 q 358 714 426 790 q 253 524 290 638 q 215 303 215 410 q 238 193 215 240 q 298 121 261 146 q 375 96 335 96 z "},"Ố":{"ha":900,"x_min":26,"x_max":1017,"o":"m 781 1196 q 855 1297 813 1244 q 913 1350 897 1350 q 976 1331 935 1350 q 1017 1299 1017 1313 q 1003 1273 1017 1286 q 947 1232 989 1260 l 900 1199 q 849 1164 867 1174 q 814 1154 832 1154 q 786 1161 794 1154 q 778 1185 778 1168 q 781 1196 778 1190 m 635 1233 q 684 1220 663 1233 q 738 1165 706 1207 l 808 1074 q 822 1039 822 1056 q 801 1001 822 1017 q 750 985 779 985 q 697 1014 722 985 l 621 1106 q 498 1004 538 1033 q 440 975 458 975 q 391 988 413 975 q 369 1021 369 1000 q 374 1049 369 1036 q 399 1076 379 1061 l 429 1101 q 572 1217 533 1188 q 635 1233 593 1233 m 356 -29 q 108 78 190 -29 q 26 368 26 185 q 92 649 26 519 q 274 854 157 778 q 536 931 390 931 q 763 834 678 931 q 849 546 849 738 q 785 276 849 410 q 610 56 722 142 q 356 -29 497 -29 m 375 96 q 508 172 443 96 q 615 368 574 249 q 656 611 656 488 q 624 748 656 706 q 514 790 593 790 q 358 714 426 790 q 253 524 290 638 q 215 303 215 410 q 238 193 215 240 q 298 121 261 146 q 375 96 335 96 z "},"Ộ":{"ha":900,"x_min":26,"x_max":849,"o":"m 635 1233 q 684 1220 663 1233 q 738 1165 706 1207 l 808 1074 q 822 1039 822 1056 q 801 1001 822 1017 q 750 985 779 985 q 697 1014 722 985 l 621 1106 q 498 1004 538 1033 q 440 975 458 975 q 391 988 413 975 q 369 1021 369 1000 q 374 1049 369 1036 q 399 1076 379 1061 l 429 1101 q 572 1217 533 1188 q 635 1233 593 1233 m 356 -29 q 108 78 190 -29 q 26 368 26 185 q 92 649 26 519 q 274 854 157 778 q 536 931 390 931 q 763 834 678 931 q 849 546 849 738 q 785 276 849 410 q 610 56 722 142 q 356 -29 497 -29 m 375 96 q 508 172 443 96 q 615 368 574 249 q 656 611 656 488 q 624 748 656 706 q 514 790 593 790 q 358 714 426 790 q 253 524 290 638 q 215 303 215 410 q 238 193 215 240 q 298 121 261 146 q 375 96 335 96 m 265 -299 q 204 -273 233 -299 q 175 -215 175 -247 q 214 -133 175 -168 q 300 -99 253 -99 q 363 -128 335 -99 q 390 -193 390 -158 q 353 -268 390 -237 q 265 -299 315 -299 z "},"Ồ":{"ha":900,"x_min":26,"x_max":849,"o":"m 426 1196 q 429 1185 429 1190 q 421 1161 429 1168 q 393 1154 413 1154 q 358 1164 375 1154 q 307 1199 340 1174 l 260 1232 q 204 1273 218 1260 q 190 1299 190 1286 q 231 1331 190 1313 q 294 1350 272 1350 q 352 1297 310 1350 q 426 1196 394 1244 m 635 1233 q 684 1220 663 1233 q 738 1165 706 1207 l 808 1074 q 822 1039 822 1056 q 801 1001 822 1017 q 750 985 779 985 q 697 1014 722 985 l 621 1106 q 498 1004 538 1033 q 440 975 458 975 q 391 988 413 975 q 369 1021 369 1000 q 374 1049 369 1036 q 399 1076 379 1061 l 429 1101 q 572 1217 533 1188 q 635 1233 593 1233 m 356 -29 q 108 78 190 -29 q 26 368 26 185 q 92 649 26 519 q 274 854 157 778 q 536 931 390 931 q 763 834 678 931 q 849 546 849 738 q 785 276 849 410 q 610 56 722 142 q 356 -29 497 -29 m 375 96 q 508 172 443 96 q 615 368 574 249 q 656 611 656 488 q 624 748 656 706 q 514 790 593 790 q 358 714 426 790 q 253 524 290 638 q 215 303 215 410 q 238 193 215 240 q 298 121 261 146 q 375 96 335 96 z "},"Ổ":{"ha":900,"x_min":26,"x_max":1032,"o":"m 892 1181 q 842 1150 876 1150 q 813 1156 824 1150 q 803 1172 803 1163 q 821 1244 803 1178 q 840 1272 825 1263 q 882 1289 856 1281 q 923 1308 910 1299 q 936 1338 936 1317 q 927 1353 936 1346 q 896 1361 918 1361 q 847 1350 867 1361 q 818 1342 831 1342 q 799 1353 807 1342 q 790 1376 790 1364 q 826 1421 790 1408 q 911 1433 863 1433 q 996 1412 960 1433 q 1032 1350 1032 1390 q 935 1239 1032 1278 q 908 1222 915 1232 q 897 1199 900 1211 q 892 1181 894 1188 m 635 1233 q 684 1220 663 1233 q 738 1165 706 1207 l 808 1074 q 822 1039 822 1056 q 801 1001 822 1017 q 750 985 779 985 q 697 1014 722 985 l 621 1106 q 498 1004 538 1033 q 440 975 458 975 q 391 988 413 975 q 369 1021 369 1000 q 374 1049 369 1036 q 399 1076 379 1061 l 429 1101 q 572 1217 533 1188 q 635 1233 593 1233 m 356 -29 q 108 78 190 -29 q 26 368 26 185 q 92 649 26 519 q 274 854 157 778 q 536 931 390 931 q 763 834 678 931 q 849 546 849 738 q 785 276 849 410 q 610 56 722 142 q 356 -29 497 -29 m 375 96 q 508 172 443 96 q 615 368 574 249 q 656 611 656 488 q 624 748 656 706 q 514 790 593 790 q 358 714 426 790 q 253 524 290 638 q 215 303 215 410 q 238 193 215 240 q 298 121 261 146 q 375 96 335 96 z "},"Ỗ":{"ha":900,"x_min":26,"x_max":906,"o":"m 594 1306 q 488 1240 556 1306 q 468 1261 474 1247 q 463 1306 463 1275 q 488 1351 463 1328 q 549 1390 513 1375 q 615 1406 585 1406 q 725 1367 669 1406 q 767 1343 750 1350 q 804 1336 783 1336 q 832 1344 819 1336 q 856 1362 844 1351 q 875 1378 868 1372 q 886 1382 882 1382 q 897 1376 892 1382 q 903 1371 901 1371 q 906 1361 906 1371 q 882 1301 906 1329 q 827 1257 858 1274 q 776 1240 796 1240 q 728 1248 749 1240 q 672 1276 708 1256 q 631 1299 649 1293 q 594 1306 614 1306 m 625 986 q 489 1020 540 986 q 438 1117 438 1054 q 511 1193 438 1193 q 550 1143 549 1193 q 567 1105 551 1117 q 633 1093 583 1093 q 703 1103 678 1093 q 744 1133 729 1114 q 778 1186 760 1151 q 801 1200 788 1194 q 825 1206 814 1206 q 886 1186 874 1206 q 799 1039 872 1089 q 625 986 725 989 m 356 -29 q 108 78 190 -29 q 26 368 26 185 q 92 649 26 519 q 274 854 157 778 q 536 931 390 931 q 763 834 678 931 q 849 546 849 738 q 785 276 849 410 q 610 56 722 142 q 356 -29 497 -29 m 375 96 q 508 172 443 96 q 615 368 574 249 q 656 611 656 488 q 624 748 656 706 q 514 790 593 790 q 358 714 426 790 q 253 524 290 638 q 215 303 215 410 q 238 193 215 240 q 298 121 261 146 q 375 96 335 96 z "},"Ȍ":{"ha":900,"x_min":26,"x_max":849,"o":"m 546 1039 q 539 1002 546 1022 q 518 982 532 982 l 513 983 q 484 1002 499 988 q 449 1043 469 1017 q 396 1099 415 1081 q 351 1126 376 1118 q 328 1140 336 1132 q 319 1165 319 1147 q 337 1228 319 1197 q 383 1258 354 1258 q 538 1075 457 1258 q 546 1039 546 1057 m 789 1039 q 782 1002 789 1022 q 761 982 775 982 l 756 983 q 727 1002 742 988 q 692 1043 713 1017 q 639 1099 658 1081 q 594 1126 619 1118 q 571 1140 579 1132 q 563 1165 563 1147 q 580 1228 563 1197 q 626 1258 597 1258 q 781 1075 700 1258 q 789 1039 789 1057 m 356 -29 q 108 78 190 -29 q 26 368 26 185 q 92 649 26 519 q 274 854 157 778 q 536 931 390 931 q 763 834 678 931 q 849 546 849 738 q 785 276 849 410 q 610 56 722 142 q 356 -29 497 -29 m 375 96 q 508 172 443 96 q 615 368 574 249 q 656 611 656 488 q 624 748 656 706 q 514 790 593 790 q 358 714 426 790 q 253 524 290 638 q 215 303 215 410 q 238 193 215 240 q 298 121 261 146 q 375 96 335 96 z "},"Ö":{"ha":900,"x_min":26,"x_max":849,"o":"m 725 975 q 661 1003 693 975 q 629 1061 629 1031 q 665 1141 629 1110 q 749 1172 701 1172 q 817 1144 785 1172 q 849 1083 849 1117 q 812 1007 849 1039 q 725 975 775 975 m 408 969 q 347 995 376 969 q 318 1053 318 1021 q 357 1135 318 1100 q 443 1169 396 1169 q 506 1140 478 1169 q 533 1075 533 1110 q 496 1000 533 1031 q 408 969 458 969 m 356 -29 q 108 78 190 -29 q 26 368 26 185 q 92 649 26 519 q 274 854 157 778 q 536 931 390 931 q 763 834 678 931 q 849 546 849 738 q 785 276 849 410 q 610 56 722 142 q 356 -29 497 -29 m 375 96 q 508 172 443 96 q 615 368 574 249 q 656 611 656 488 q 624 748 656 706 q 514 790 593 790 q 358 714 426 790 q 253 524 290 638 q 215 303 215 410 q 238 193 215 240 q 298 121 261 146 q 375 96 335 96 z "},"Ọ":{"ha":900,"x_min":26,"x_max":849,"o":"m 356 -29 q 108 78 190 -29 q 26 368 26 185 q 92 649 26 519 q 274 854 157 778 q 536 931 390 931 q 763 834 678 931 q 849 546 849 738 q 785 276 849 410 q 610 56 722 142 q 356 -29 497 -29 m 375 96 q 508 172 443 96 q 615 368 574 249 q 656 611 656 488 q 624 748 656 706 q 514 790 593 790 q 358 714 426 790 q 253 524 290 638 q 215 303 215 410 q 238 193 215 240 q 298 121 261 146 q 375 96 335 96 m 265 -299 q 204 -273 233 -299 q 175 -215 175 -247 q 214 -133 175 -168 q 300 -99 253 -99 q 363 -128 335 -99 q 390 -193 390 -158 q 353 -268 390 -237 q 265 -299 315 -299 z "},"Ò":{"ha":900,"x_min":26,"x_max":849,"o":"m 711 1043 q 715 1026 715 1038 q 703 993 715 1003 q 664 983 690 983 q 583 1006 628 983 q 454 1089 539 1029 q 375 1149 394 1131 q 356 1185 356 1167 q 393 1233 356 1207 q 460 1260 431 1260 q 528 1219 475 1260 q 637 1125 582 1178 q 711 1043 692 1072 m 356 -29 q 108 78 190 -29 q 26 368 26 185 q 92 649 26 519 q 274 854 157 778 q 536 931 390 931 q 763 834 678 931 q 849 546 849 738 q 785 276 849 410 q 610 56 722 142 q 356 -29 497 -29 m 375 96 q 508 172 443 96 q 615 368 574 249 q 656 611 656 488 q 624 748 656 706 q 514 790 593 790 q 358 714 426 790 q 253 524 290 638 q 215 303 215 410 q 238 193 215 240 q 298 121 261 146 q 375 96 335 96 z "},"Ỏ":{"ha":900,"x_min":26,"x_max":849,"o":"m 625 1004 q 561 967 604 967 q 526 974 539 967 q 514 993 514 981 q 536 1085 514 1003 q 560 1118 542 1107 q 613 1140 578 1129 q 664 1163 647 1151 q 681 1200 681 1175 q 669 1221 681 1211 q 629 1231 657 1231 q 585 1224 600 1231 q 569 1217 571 1218 q 558 1210 568 1215 q 532 1206 547 1206 q 508 1219 518 1206 q 497 1249 497 1233 q 542 1304 497 1289 q 649 1319 588 1319 q 754 1293 708 1319 q 800 1215 800 1267 q 767 1131 800 1163 q 681 1079 733 1100 q 646 1056 656 1069 q 632 1027 636 1042 q 625 1004 628 1013 m 356 -29 q 108 78 190 -29 q 26 368 26 185 q 92 649 26 519 q 274 854 157 778 q 536 931 390 931 q 763 834 678 931 q 849 546 849 738 q 785 276 849 410 q 610 56 722 142 q 356 -29 497 -29 m 375 96 q 508 172 443 96 q 615 368 574 249 q 656 611 656 488 q 624 748 656 706 q 514 790 593 790 q 358 714 426 790 q 253 524 290 638 q 215 303 215 410 q 238 193 215 240 q 298 121 261 146 q 375 96 335 96 z "},"Ơ":{"ha":944,"x_min":26,"x_max":1069,"o":"m 356 -29 q 108 78 190 -29 q 26 368 26 185 q 92 649 26 519 q 274 854 157 778 q 536 931 390 931 q 735 863 654 931 q 839 660 815 794 q 910 698 889 671 q 931 782 931 725 q 926 813 931 794 q 921 840 921 832 q 937 887 921 864 q 978 910 953 910 l 1011 910 q 1069 833 1069 910 q 1042 717 1069 771 q 963 628 1014 663 q 847 592 913 594 l 849 546 q 785 276 849 410 q 610 56 722 142 q 356 -29 497 -29 m 375 96 q 508 172 443 96 q 615 368 574 249 q 656 611 656 488 q 624 748 656 706 q 514 790 593 790 q 358 714 426 790 q 253 524 290 638 q 215 303 215 410 q 238 193 215 240 q 298 121 261 146 q 375 96 335 96 z "},"Ớ":{"ha":944,"x_min":26,"x_max":1069,"o":"m 472 1043 q 547 1125 492 1072 q 655 1219 601 1178 q 724 1260 708 1260 q 790 1233 753 1260 q 828 1185 828 1207 q 808 1149 828 1167 q 729 1089 789 1131 q 600 1006 644 1029 q 519 983 556 983 q 481 993 493 983 q 468 1026 468 1003 q 472 1043 468 1038 m 356 -29 q 108 78 190 -29 q 26 368 26 185 q 92 649 26 519 q 274 854 157 778 q 536 931 390 931 q 735 863 654 931 q 839 660 815 794 q 910 698 889 671 q 931 782 931 725 q 926 813 931 794 q 921 840 921 832 q 937 887 921 864 q 978 910 953 910 l 1011 910 q 1069 833 1069 910 q 1042 717 1069 771 q 963 628 1014 663 q 847 592 913 594 l 849 546 q 785 276 849 410 q 610 56 722 142 q 356 -29 497 -29 m 375 96 q 508 172 443 96 q 615 368 574 249 q 656 611 656 488 q 624 748 656 706 q 514 790 593 790 q 358 714 426 790 q 253 524 290 638 q 215 303 215 410 q 238 193 215 240 q 298 121 261 146 q 375 96 335 96 z "},"Ợ":{"ha":944,"x_min":26,"x_max":1069,"o":"m 356 -29 q 108 78 190 -29 q 26 368 26 185 q 92 649 26 519 q 274 854 157 778 q 536 931 390 931 q 735 863 654 931 q 839 660 815 794 q 910 698 889 671 q 931 782 931 725 q 926 813 931 794 q 921 840 921 832 q 937 887 921 864 q 978 910 953 910 l 1011 910 q 1069 833 1069 910 q 1042 717 1069 771 q 963 628 1014 663 q 847 592 913 594 l 849 546 q 785 276 849 410 q 610 56 722 142 q 356 -29 497 -29 m 375 96 q 508 172 443 96 q 615 368 574 249 q 656 611 656 488 q 624 748 656 706 q 514 790 593 790 q 358 714 426 790 q 253 524 290 638 q 215 303 215 410 q 238 193 215 240 q 298 121 261 146 q 375 96 335 96 m 265 -299 q 204 -273 233 -299 q 175 -215 175 -247 q 214 -133 175 -168 q 300 -99 253 -99 q 363 -128 335 -99 q 390 -193 390 -158 q 353 -268 390 -237 q 265 -299 315 -299 z "},"Ờ":{"ha":944,"x_min":26,"x_max":1069,"o":"m 713 1039 q 717 1022 717 1033 q 704 989 717 999 q 665 979 692 979 q 585 1002 629 979 q 456 1085 540 1025 q 376 1144 396 1126 q 357 1181 357 1163 q 394 1229 357 1203 q 461 1256 432 1256 q 530 1215 476 1256 q 638 1121 583 1174 q 713 1039 693 1068 m 356 -29 q 108 78 190 -29 q 26 368 26 185 q 92 649 26 519 q 274 854 157 778 q 536 931 390 931 q 735 863 654 931 q 839 660 815 794 q 910 698 889 671 q 931 782 931 725 q 926 813 931 794 q 921 840 921 832 q 937 887 921 864 q 978 910 953 910 l 1011 910 q 1069 833 1069 910 q 1042 717 1069 771 q 963 628 1014 663 q 847 592 913 594 l 849 546 q 785 276 849 410 q 610 56 722 142 q 356 -29 497 -29 m 375 96 q 508 172 443 96 q 615 368 574 249 q 656 611 656 488 q 624 748 656 706 q 514 790 593 790 q 358 714 426 790 q 253 524 290 638 q 215 303 215 410 q 238 193 215 240 q 298 121 261 146 q 375 96 335 96 z "},"Ở":{"ha":944,"x_min":26,"x_max":1069,"o":"m 615 1024 q 551 986 594 986 q 517 993 529 986 q 504 1013 504 1000 q 526 1104 504 1022 q 550 1138 532 1126 q 603 1160 568 1149 q 654 1183 638 1171 q 671 1219 671 1194 q 659 1240 671 1231 q 619 1250 647 1250 q 576 1244 590 1250 q 560 1236 561 1238 q 548 1230 558 1235 q 522 1225 538 1225 q 498 1239 508 1225 q 488 1268 488 1253 q 533 1324 488 1308 q 639 1339 578 1339 q 744 1313 699 1339 q 790 1235 790 1286 q 757 1151 790 1182 q 671 1099 724 1119 q 636 1075 646 1089 q 622 1047 626 1061 q 615 1024 618 1032 m 356 -29 q 108 78 190 -29 q 26 368 26 185 q 92 649 26 519 q 274 854 157 778 q 536 931 390 931 q 735 863 654 931 q 839 660 815 794 q 910 698 889 671 q 931 782 931 725 q 926 813 931 794 q 921 840 921 832 q 937 887 921 864 q 978 910 953 910 l 1011 910 q 1069 833 1069 910 q 1042 717 1069 771 q 963 628 1014 663 q 847 592 913 594 l 849 546 q 785 276 849 410 q 610 56 722 142 q 356 -29 497 -29 m 375 96 q 508 172 443 96 q 615 368 574 249 q 656 611 656 488 q 624 748 656 706 q 514 790 593 790 q 358 714 426 790 q 253 524 290 638 q 215 303 215 410 q 238 193 215 240 q 298 121 261 146 q 375 96 335 96 z "},"Ỡ":{"ha":944,"x_min":26,"x_max":1069,"o":"m 503 1071 q 382 989 457 1071 q 358 1013 365 999 q 351 1064 351 1028 q 381 1122 351 1092 q 451 1173 410 1153 q 525 1193 492 1193 q 650 1144 586 1193 q 697 1115 676 1124 q 742 1107 718 1107 q 772 1116 758 1107 q 800 1138 786 1125 q 821 1158 814 1151 q 833 1164 826 1164 q 844 1157 839 1164 q 851 1150 850 1150 q 854 1138 854 1150 q 828 1065 854 1099 q 767 1010 801 1031 q 711 989 732 989 q 653 999 679 989 q 592 1033 628 1010 q 545 1063 565 1054 q 503 1071 525 1071 m 356 -29 q 108 78 190 -29 q 26 368 26 185 q 92 649 26 519 q 274 854 157 778 q 536 931 390 931 q 735 863 654 931 q 839 660 815 794 q 910 698 889 671 q 931 782 931 725 q 926 813 931 794 q 921 840 921 832 q 937 887 921 864 q 978 910 953 910 l 1011 910 q 1069 833 1069 910 q 1042 717 1069 771 q 963 628 1014 663 q 847 592 913 594 l 849 546 q 785 276 849 410 q 610 56 722 142 q 356 -29 497 -29 m 375 96 q 508 172 443 96 q 615 368 574 249 q 656 611 656 488 q 624 748 656 706 q 514 790 593 790 q 358 714 426 790 q 253 524 290 638 q 215 303 215 410 q 238 193 215 240 q 298 121 261 146 q 375 96 335 96 z "},"Ő":{"ha":900,"x_min":26,"x_max":879,"o":"m 456 974 q 424 993 424 974 q 431 1023 424 1007 q 458 1071 439 1039 q 496 1137 483 1110 q 508 1190 508 1164 q 520 1225 508 1213 q 572 1238 532 1238 q 630 1222 614 1238 q 646 1186 646 1206 q 611 1096 646 1144 q 518 997 576 1047 q 456 974 492 974 m 688 974 q 657 993 657 974 q 693 1071 657 1017 q 730 1138 718 1113 q 742 1190 742 1164 q 753 1225 742 1213 q 806 1238 765 1238 q 863 1222 847 1238 q 879 1186 879 1206 q 751 997 879 1110 q 688 974 724 974 m 356 -29 q 108 78 190 -29 q 26 368 26 185 q 92 649 26 519 q 274 854 157 778 q 536 931 390 931 q 763 834 678 931 q 849 546 849 738 q 785 276 849 410 q 610 56 722 142 q 356 -29 497 -29 m 375 96 q 508 172 443 96 q 615 368 574 249 q 656 611 656 488 q 624 748 656 706 q 514 790 593 790 q 358 714 426 790 q 253 524 290 638 q 215 303 215 410 q 238 193 215 240 q 298 121 261 146 q 375 96 335 96 z "},"Ȏ":{"ha":900,"x_min":26,"x_max":849,"o":"m 629 1189 q 769 1158 711 1189 q 826 1068 826 1128 q 758 990 826 990 q 699 1029 701 990 q 621 1076 696 1076 q 476 999 500 1076 q 456 980 474 988 q 426 972 439 972 q 374 979 392 972 q 356 1006 356 986 q 629 1189 356 1176 m 356 -29 q 108 78 190 -29 q 26 368 26 185 q 92 649 26 519 q 274 854 157 778 q 536 931 390 931 q 763 834 678 931 q 849 546 849 738 q 785 276 849 410 q 610 56 722 142 q 356 -29 497 -29 m 375 96 q 508 172 443 96 q 615 368 574 249 q 656 611 656 488 q 624 748 656 706 q 514 790 593 790 q 358 714 426 790 q 253 524 290 638 q 215 303 215 410 q 238 193 215 240 q 298 121 261 146 q 375 96 335 96 z "},"Ō":{"ha":900,"x_min":26,"x_max":849,"o":"m 828 1092 q 800 1039 826 1057 q 732 1018 774 1021 l 442 1003 q 382 997 403 997 q 317 1053 321 1001 l 317 1064 q 337 1111 319 1094 q 392 1135 354 1128 q 499 1146 429 1143 l 761 1157 q 828 1101 826 1153 l 828 1092 m 356 -29 q 108 78 190 -29 q 26 368 26 185 q 92 649 26 519 q 274 854 157 778 q 536 931 390 931 q 763 834 678 931 q 849 546 849 738 q 785 276 849 410 q 610 56 722 142 q 356 -29 497 -29 m 375 96 q 508 172 443 96 q 615 368 574 249 q 656 611 656 488 q 624 748 656 706 q 514 790 593 790 q 358 714 426 790 q 253 524 290 638 q 215 303 215 410 q 238 193 215 240 q 298 121 261 146 q 375 96 335 96 z "},"Ǫ":{"ha":900,"x_min":26,"x_max":849,"o":"m 457 -17 q 396 -90 415 -57 q 376 -161 376 -124 q 439 -224 376 -224 q 506 -215 469 -224 q 525 -243 525 -229 q 479 -292 525 -278 q 386 -306 433 -306 q 273 -271 319 -306 q 226 -161 226 -236 q 253 -94 226 -129 q 328 -28 281 -58 q 101 88 176 -18 q 26 368 26 193 q 92 649 26 519 q 274 854 157 778 q 536 931 390 931 q 763 834 678 931 q 849 546 849 738 q 800 307 849 426 q 662 100 751 188 q 457 -17 572 13 m 215 303 q 238 193 215 240 q 298 121 261 146 q 375 96 335 96 q 508 172 443 96 q 615 368 574 249 q 656 611 656 488 q 624 748 656 706 q 514 790 593 790 q 358 714 426 790 q 253 524 290 638 q 215 303 215 410 z "},"Ø":{"ha":900,"x_min":26,"x_max":849,"o":"m 101 -50 q 51 -35 65 -50 q 38 10 38 -21 q 93 93 38 19 q 26 358 26 193 q 92 636 26 510 q 274 837 157 763 q 536 911 390 911 q 665 886 607 911 q 731 949 703 931 q 789 968 760 968 q 813 963 807 968 q 819 946 819 957 l 818 913 q 803 864 818 886 l 765 811 q 849 526 849 710 q 786 262 849 390 q 610 52 724 133 q 356 -29 497 -29 q 185 10 256 -29 q 101 -50 136 -50 m 215 293 q 217 251 215 264 q 447 564 308 371 q 590 763 565 729 q 514 771 565 771 q 358 697 426 771 q 252 512 289 624 q 215 293 215 400 m 375 96 q 513 167 443 96 q 626 354 582 239 q 671 592 671 469 q 668 661 671 625 q 596 565 654 640 l 275 135 q 375 96 318 96 z "},"Ǿ":{"ha":900,"x_min":26,"x_max":875,"o":"m 519 1050 q 594 1132 539 1079 q 702 1226 649 1185 q 771 1267 756 1267 q 838 1240 800 1267 q 875 1192 875 1214 q 856 1156 875 1174 q 776 1096 836 1138 q 647 1013 692 1036 q 567 990 603 990 q 528 1000 540 990 q 515 1033 515 1010 q 519 1050 515 1044 m 101 -50 q 51 -35 65 -50 q 38 10 38 -21 q 93 93 38 19 q 26 358 26 193 q 92 636 26 510 q 274 837 157 763 q 536 911 390 911 q 665 886 607 911 q 731 949 703 931 q 789 968 760 968 q 813 963 807 968 q 819 946 819 957 l 818 913 q 803 864 818 886 l 765 811 q 849 526 849 710 q 786 262 849 390 q 610 52 724 133 q 356 -29 497 -29 q 185 10 256 -29 q 101 -50 136 -50 m 215 293 q 217 251 215 264 q 447 564 308 371 q 590 763 565 729 q 514 771 565 771 q 358 697 426 771 q 252 512 289 624 q 215 293 215 400 m 375 96 q 513 167 443 96 q 626 354 582 239 q 671 592 671 469 q 668 661 671 625 q 596 565 654 640 l 275 135 q 375 96 318 96 z "},"Õ":{"ha":900,"x_min":26,"x_max":868,"o":"m 517 1058 q 396 976 471 1058 q 372 1001 379 986 q 365 1051 365 1015 q 394 1110 365 1079 q 465 1160 424 1140 q 539 1181 506 1181 q 664 1132 600 1181 q 711 1103 690 1111 q 756 1094 732 1094 q 786 1103 772 1094 q 814 1126 800 1113 q 835 1146 828 1139 q 847 1151 840 1151 q 858 1144 853 1151 q 865 1138 864 1138 q 868 1125 868 1138 q 842 1052 868 1086 q 781 997 815 1018 q 725 976 746 976 q 667 987 693 976 q 606 1021 642 997 q 559 1050 579 1042 q 517 1058 539 1058 m 356 -29 q 108 78 190 -29 q 26 368 26 185 q 92 649 26 519 q 274 854 157 778 q 536 931 390 931 q 763 834 678 931 q 849 546 849 738 q 785 276 849 410 q 610 56 722 142 q 356 -29 497 -29 m 375 96 q 508 172 443 96 q 615 368 574 249 q 656 611 656 488 q 624 748 656 706 q 514 790 593 790 q 358 714 426 790 q 253 524 290 638 q 215 303 215 410 q 238 193 215 240 q 298 121 261 146 q 375 96 335 96 z "},"Œ":{"ha":1189,"x_min":26,"x_max":1276,"o":"m 960 404 q 756 376 839 390 l 713 203 l 696 140 q 1049 189 851 171 q 1103 125 1103 165 q 1078 76 1103 100 q 1021 43 1053 53 l 935 32 q 651 -7 758 13 q 594 -17 638 -17 q 536 8 564 -17 q 356 -29 447 -29 q 108 74 190 -29 q 26 358 26 176 q 92 636 26 510 q 274 837 157 763 q 536 911 390 911 q 620 897 571 911 q 692 865 669 882 q 746 894 710 889 q 1008 924 858 911 q 1226 939 1157 938 q 1276 872 1276 913 q 1249 826 1276 847 q 1189 796 1222 804 q 1167 794 1179 794 q 1143 793 1156 794 q 840 769 893 774 q 782 522 815 671 q 929 544 871 536 q 1060 558 988 553 q 1114 494 1114 535 q 1089 446 1114 469 q 1032 413 1064 422 l 960 404 m 375 96 q 442 112 400 96 q 507 150 483 128 l 643 692 q 598 751 629 732 q 514 771 567 771 q 358 697 426 771 q 252 512 289 624 q 215 293 215 400 q 238 185 215 231 q 297 118 261 140 q 375 96 333 96 z "},"P":{"ha":843,"x_min":40,"x_max":826,"o":"m 69 764 q 81 795 69 783 q 114 817 93 807 q 165 842 121 821 q 249 874 208 863 q 287 919 261 901 q 353 938 313 938 q 392 928 376 938 q 413 906 407 919 q 536 922 464 922 q 692 884 626 922 q 792 779 758 846 q 826 629 826 713 q 822 583 826 613 q 336 258 765 258 q 279 260 297 258 l 261 193 q 232 83 232 86 q 198 8 221 35 q 124 -18 175 -18 q 60 -3 81 -18 q 40 46 40 11 q 44 75 40 61 l 213 724 q 103 667 140 703 q 78 710 88 683 q 69 764 69 738 m 308 389 q 356 388 325 388 q 565 438 488 388 q 664 592 642 488 q 668 626 668 615 q 625 742 668 704 q 504 781 582 781 q 397 761 463 781 q 308 389 343 546 z "},"Þ":{"ha":815,"x_min":6,"x_max":768,"o":"m 6 621 q 17 652 6 640 q 50 674 29 664 q 101 699 57 678 q 185 731 144 719 l 228 893 q 258 926 233 914 q 315 939 283 939 q 370 926 347 939 q 393 889 393 913 l 364 763 q 418 776 394 772 q 472 779 442 779 q 621 742 553 779 q 728 643 689 706 q 768 508 768 581 q 689 288 768 368 q 499 178 610 208 q 279 147 389 147 q 208 149 226 147 l 192 83 q 174 28 182 47 q 146 -4 165 10 q 90 -18 126 -18 q 31 -4 49 -18 q 13 46 13 10 q 17 75 13 61 l 149 581 q 39 524 76 560 q 15 567 24 540 q 6 621 6 594 m 246 278 q 299 276 263 276 q 453 301 383 276 q 563 374 522 326 q 604 483 604 421 q 561 599 604 561 q 440 638 518 638 q 331 618 396 638 l 246 278 z "},"Q":{"ha":900,"x_min":26,"x_max":849,"o":"m 356 -29 q 108 74 190 -29 q 26 358 26 176 q 92 636 26 510 q 274 837 157 763 q 536 911 390 911 q 763 815 678 911 q 849 526 849 718 q 813 324 849 424 q 710 144 776 224 q 828 19 828 33 q 806 -38 828 -17 q 746 -60 785 -60 q 599 44 717 -60 q 356 -29 488 -29 m 375 96 q 496 146 435 96 q 412 256 453 196 q 371 332 371 315 q 385 384 371 369 q 433 399 400 399 q 490 349 438 399 q 586 258 511 328 q 642 399 622 322 q 663 560 663 476 q 627 714 663 657 q 514 771 592 771 q 356 704 425 771 q 247 534 286 638 q 208 325 208 431 q 233 209 208 261 q 296 126 257 157 q 375 96 335 96 z "},"R":{"ha":843,"x_min":13,"x_max":811,"o":"m 750 110 q 789 79 767 107 q 811 28 811 51 q 788 4 811 13 q 760 -6 779 1 q 726 -17 742 -14 q 692 -19 711 -19 q 647 -12 663 -19 q 546 65 608 4 q 425 205 483 126 q 339 351 367 283 l 331 351 q 274 353 292 351 q 204 83 232 199 q 170 8 193 35 q 96 -18 147 -18 q 33 -3 53 -18 q 13 46 13 11 q 17 75 13 61 l 185 724 q 75 667 113 703 q 51 710 60 683 q 42 764 42 738 q 53 795 42 783 q 86 817 65 807 q 137 842 93 821 q 221 874 181 863 q 259 919 233 901 q 325 938 285 938 q 364 928 349 938 q 385 906 379 919 q 508 922 436 922 q 663 887 597 922 q 764 796 729 851 q 799 683 799 740 q 717 481 799 557 q 508 374 636 406 q 586 261 538 324 q 678 155 635 199 q 736 111 722 111 l 750 110 m 369 761 q 303 482 329 600 q 350 481 319 481 q 483 501 417 481 q 595 561 550 521 q 640 661 640 601 q 596 748 640 715 q 476 781 551 781 q 369 761 435 781 z "},"Ŕ":{"ha":843,"x_min":13,"x_max":811,"o":"m 475 990 q 436 1000 449 990 q 424 1033 424 1010 q 428 1050 424 1044 q 502 1132 447 1079 q 610 1226 557 1185 q 679 1267 664 1267 q 746 1240 708 1267 q 783 1192 783 1214 q 764 1156 783 1174 q 685 1096 744 1138 q 556 1013 600 1036 q 475 990 511 990 m 750 110 q 789 79 767 107 q 811 28 811 51 q 788 4 811 13 q 760 -6 779 1 q 726 -17 742 -14 q 692 -19 711 -19 q 647 -12 663 -19 q 546 65 608 4 q 425 205 483 126 q 339 351 367 283 l 331 351 q 274 353 292 351 q 204 83 232 199 q 170 8 193 35 q 96 -18 147 -18 q 33 -3 53 -18 q 13 46 13 11 q 17 75 13 61 l 185 724 q 75 667 113 703 q 51 710 60 683 q 42 764 42 738 q 53 795 42 783 q 86 817 65 807 q 137 842 93 821 q 221 874 181 863 q 259 919 233 901 q 325 938 285 938 q 364 928 349 938 q 385 906 379 919 q 508 922 436 922 q 663 887 597 922 q 764 796 729 851 q 799 683 799 740 q 717 481 799 557 q 508 374 636 406 q 586 261 538 324 q 678 155 635 199 q 736 111 722 111 l 750 110 m 369 761 q 303 482 329 600 q 350 481 319 481 q 483 501 417 481 q 595 561 550 521 q 640 661 640 601 q 596 748 640 715 q 476 781 551 781 q 369 761 435 781 z "},"Ř":{"ha":843,"x_min":13,"x_max":811,"o":"m 346 1142 q 332 1176 332 1160 q 353 1215 332 1199 q 404 1231 375 1231 q 457 1201 432 1231 l 533 1110 q 656 1211 617 1182 q 714 1240 696 1240 q 763 1228 742 1240 q 785 1194 785 1215 q 780 1167 785 1179 q 756 1139 775 1154 l 725 1114 q 582 999 621 1028 q 519 982 561 982 q 470 995 492 982 q 417 1050 449 1008 l 346 1142 m 750 110 q 789 79 767 107 q 811 28 811 51 q 788 4 811 13 q 760 -6 779 1 q 726 -17 742 -14 q 692 -19 711 -19 q 647 -12 663 -19 q 546 65 608 4 q 425 205 483 126 q 339 351 367 283 l 331 351 q 274 353 292 351 q 204 83 232 199 q 170 8 193 35 q 96 -18 147 -18 q 33 -3 53 -18 q 13 46 13 11 q 17 75 13 61 l 185 724 q 75 667 113 703 q 51 710 60 683 q 42 764 42 738 q 53 795 42 783 q 86 817 65 807 q 137 842 93 821 q 221 874 181 863 q 259 919 233 901 q 325 938 285 938 q 364 928 349 938 q 385 906 379 919 q 508 922 436 922 q 663 887 597 922 q 764 796 729 851 q 799 683 799 740 q 717 481 799 557 q 508 374 636 406 q 586 261 538 324 q 678 155 635 199 q 736 111 722 111 l 750 110 m 369 761 q 303 482 329 600 q 350 481 319 481 q 483 501 417 481 q 595 561 550 521 q 640 661 640 601 q 596 748 640 715 q 476 781 551 781 q 369 761 435 781 z "},"Ŗ":{"ha":843,"x_min":13,"x_max":811,"o":"m 750 110 q 789 79 767 107 q 811 28 811 51 q 788 4 811 13 q 760 -6 779 1 q 726 -17 742 -14 q 692 -19 711 -19 q 647 -12 663 -19 q 546 65 608 4 q 425 205 483 126 q 339 351 367 283 l 331 351 q 274 353 292 351 q 204 83 232 199 q 170 8 193 35 q 96 -18 147 -18 q 33 -3 53 -18 q 13 46 13 11 q 17 75 13 61 l 185 724 q 75 667 113 703 q 51 710 60 683 q 42 764 42 738 q 53 795 42 783 q 86 817 65 807 q 137 842 93 821 q 221 874 181 863 q 259 919 233 901 q 325 938 285 938 q 364 928 349 938 q 385 906 379 919 q 508 922 436 922 q 663 887 597 922 q 764 796 729 851 q 799 683 799 740 q 717 481 799 557 q 508 374 636 406 q 586 261 538 324 q 678 155 635 199 q 736 111 722 111 l 750 110 m 369 761 q 303 482 329 600 q 350 481 319 481 q 483 501 417 481 q 595 561 550 521 q 640 661 640 601 q 596 748 640 715 q 476 781 551 781 q 369 761 435 781 m 383 -78 q 442 -101 419 -78 q 465 -144 465 -124 q 429 -248 465 -193 q 325 -381 393 -303 q 247 -419 286 -419 q 208 -393 208 -419 q 220 -345 208 -367 q 256 -289 232 -324 q 292 -233 281 -257 q 304 -183 304 -210 q 301 -158 304 -174 q 299 -132 299 -143 q 315 -92 299 -107 q 383 -78 332 -78 z "},"Ȑ":{"ha":843,"x_min":13,"x_max":811,"o":"m 218 1126 q 194 1140 203 1132 q 186 1165 186 1147 q 203 1228 186 1197 q 250 1258 221 1258 q 404 1075 324 1258 q 413 1039 413 1057 q 406 1002 413 1022 q 385 982 399 982 l 379 983 q 351 1002 365 988 q 315 1043 336 1017 q 263 1099 282 1081 q 218 1126 243 1118 m 461 1126 q 438 1140 446 1132 q 429 1165 429 1147 q 447 1228 429 1197 q 493 1258 464 1258 q 647 1075 567 1258 q 656 1039 656 1057 q 649 1002 656 1022 q 628 982 642 982 l 622 983 q 594 1002 608 988 q 558 1043 579 1017 q 506 1099 525 1081 q 461 1126 486 1118 m 750 110 q 789 79 767 107 q 811 28 811 51 q 788 4 811 13 q 760 -6 779 1 q 726 -17 742 -14 q 692 -19 711 -19 q 647 -12 663 -19 q 546 65 608 4 q 425 205 483 126 q 339 351 367 283 l 331 351 q 274 353 292 351 q 204 83 232 199 q 170 8 193 35 q 96 -18 147 -18 q 33 -3 53 -18 q 13 46 13 11 q 17 75 13 61 l 185 724 q 75 667 113 703 q 51 710 60 683 q 42 764 42 738 q 53 795 42 783 q 86 817 65 807 q 137 842 93 821 q 221 874 181 863 q 259 919 233 901 q 325 938 285 938 q 364 928 349 938 q 385 906 379 919 q 508 922 436 922 q 663 887 597 922 q 764 796 729 851 q 799 683 799 740 q 717 481 799 557 q 508 374 636 406 q 586 261 538 324 q 678 155 635 199 q 736 111 722 111 l 750 110 m 369 761 q 303 482 329 600 q 350 481 319 481 q 483 501 417 481 q 595 561 550 521 q 640 661 640 601 q 596 748 640 715 q 476 781 551 781 q 369 761 435 781 z "},"Ṛ":{"ha":843,"x_min":13,"x_max":811,"o":"m 750 110 q 789 79 767 107 q 811 28 811 51 q 788 4 811 13 q 760 -6 779 1 q 726 -17 742 -14 q 692 -19 711 -19 q 647 -12 663 -19 q 546 65 608 4 q 425 205 483 126 q 339 351 367 283 l 331 351 q 274 353 292 351 q 204 83 232 199 q 170 8 193 35 q 96 -18 147 -18 q 33 -3 53 -18 q 13 46 13 11 q 17 75 13 61 l 185 724 q 75 667 113 703 q 51 710 60 683 q 42 764 42 738 q 53 795 42 783 q 86 817 65 807 q 137 842 93 821 q 221 874 181 863 q 259 919 233 901 q 325 938 285 938 q 364 928 349 938 q 385 906 379 919 q 508 922 436 922 q 663 887 597 922 q 764 796 729 851 q 799 683 799 740 q 717 481 799 557 q 508 374 636 406 q 586 261 538 324 q 678 155 635 199 q 736 111 722 111 l 750 110 m 369 761 q 303 482 329 600 q 350 481 319 481 q 483 501 417 481 q 595 561 550 521 q 640 661 640 601 q 596 748 640 715 q 476 781 551 781 q 369 761 435 781 m 383 -99 q 446 -128 418 -99 q 474 -193 474 -158 q 436 -268 474 -237 q 349 -299 399 -299 q 288 -273 317 -299 q 258 -215 258 -247 q 297 -133 258 -168 q 383 -99 336 -99 z "},"Ṝ":{"ha":843,"x_min":13,"x_max":811,"o":"m 321 1004 q 256 1060 260 1008 l 256 1071 q 276 1118 258 1101 q 331 1142 293 1135 q 438 1153 368 1150 l 700 1164 q 767 1108 765 1160 l 767 1099 q 739 1046 765 1064 q 671 1025 713 1028 l 381 1010 q 321 1004 342 1004 m 750 110 q 789 79 767 107 q 811 28 811 51 q 788 4 811 13 q 760 -6 779 1 q 726 -17 742 -14 q 692 -19 711 -19 q 647 -12 663 -19 q 546 65 608 4 q 425 205 483 126 q 339 351 367 283 l 331 351 q 274 353 292 351 q 204 83 232 199 q 170 8 193 35 q 96 -18 147 -18 q 33 -3 53 -18 q 13 46 13 11 q 17 75 13 61 l 185 724 q 75 667 113 703 q 51 710 60 683 q 42 764 42 738 q 53 795 42 783 q 86 817 65 807 q 137 842 93 821 q 221 874 181 863 q 259 919 233 901 q 325 938 285 938 q 364 928 349 938 q 385 906 379 919 q 508 922 436 922 q 663 887 597 922 q 764 796 729 851 q 799 683 799 740 q 717 481 799 557 q 508 374 636 406 q 586 261 538 324 q 678 155 635 199 q 736 111 722 111 l 750 110 m 369 761 q 303 482 329 600 q 350 481 319 481 q 483 501 417 481 q 595 561 550 521 q 640 661 640 601 q 596 748 640 715 q 476 781 551 781 q 369 761 435 781 m 383 -99 q 446 -128 418 -99 q 474 -193 474 -158 q 436 -268 474 -237 q 349 -299 399 -299 q 288 -273 317 -299 q 258 -215 258 -247 q 297 -133 258 -168 q 383 -99 336 -99 z "},"Ȓ":{"ha":843,"x_min":13,"x_max":811,"o":"m 350 972 q 297 979 315 972 q 279 1006 279 986 q 553 1189 279 1176 q 692 1158 635 1189 q 750 1068 750 1128 q 682 990 750 990 q 622 1029 625 990 q 544 1076 619 1076 q 400 999 424 1076 q 380 980 397 988 q 350 972 363 972 m 750 110 q 789 79 767 107 q 811 28 811 51 q 788 4 811 13 q 760 -6 779 1 q 726 -17 742 -14 q 692 -19 711 -19 q 647 -12 663 -19 q 546 65 608 4 q 425 205 483 126 q 339 351 367 283 l 331 351 q 274 353 292 351 q 204 83 232 199 q 170 8 193 35 q 96 -18 147 -18 q 33 -3 53 -18 q 13 46 13 11 q 17 75 13 61 l 185 724 q 75 667 113 703 q 51 710 60 683 q 42 764 42 738 q 53 795 42 783 q 86 817 65 807 q 137 842 93 821 q 221 874 181 863 q 259 919 233 901 q 325 938 285 938 q 364 928 349 938 q 385 906 379 919 q 508 922 436 922 q 663 887 597 922 q 764 796 729 851 q 799 683 799 740 q 717 481 799 557 q 508 374 636 406 q 586 261 538 324 q 678 155 635 199 q 736 111 722 111 l 750 110 m 369 761 q 303 482 329 600 q 350 481 319 481 q 483 501 417 481 q 595 561 550 521 q 640 661 640 601 q 596 748 640 715 q 476 781 551 781 q 369 761 435 781 z "},"Ṟ":{"ha":843,"x_min":13,"x_max":811,"o":"m 750 110 q 789 79 767 107 q 811 28 811 51 q 788 4 811 13 q 760 -6 779 1 q 726 -17 742 -14 q 692 -19 711 -19 q 647 -12 663 -19 q 546 65 608 4 q 425 205 483 126 q 339 351 367 283 l 331 351 q 274 353 292 351 q 204 83 232 199 q 170 8 193 35 q 96 -18 147 -18 q 33 -3 53 -18 q 13 46 13 11 q 17 75 13 61 l 185 724 q 75 667 113 703 q 51 710 60 683 q 42 764 42 738 q 53 795 42 783 q 86 817 65 807 q 137 842 93 821 q 221 874 181 863 q 259 919 233 901 q 325 938 285 938 q 364 928 349 938 q 385 906 379 919 q 508 922 436 922 q 663 887 597 922 q 764 796 729 851 q 799 683 799 740 q 717 481 799 557 q 508 374 636 406 q 586 261 538 324 q 678 155 635 199 q 736 111 722 111 l 750 110 m 369 761 q 303 482 329 600 q 350 481 319 481 q 483 501 417 481 q 595 561 550 521 q 640 661 640 601 q 596 748 640 715 q 476 781 551 781 q 369 761 435 781 m 519 -94 q 569 -106 554 -97 q 586 -139 585 -114 l 586 -149 q 558 -201 585 -183 q 490 -222 532 -219 l 200 -237 q 140 -243 161 -243 q 75 -187 79 -239 l 75 -176 q 94 -133 76 -147 q 147 -114 111 -119 q 257 -106 182 -108 l 519 -94 z "},"S":{"ha":872,"x_min":13,"x_max":846,"o":"m 676 732 q 623 772 669 754 q 501 789 576 789 q 374 743 419 789 q 328 628 328 697 q 359 562 328 585 q 456 511 390 539 l 506 490 l 547 471 q 666 410 622 438 q 740 336 710 383 q 771 215 771 289 q 719 78 771 136 q 574 -9 667 21 q 357 -39 481 -39 q 185 -10 265 -39 q 59 61 106 18 q 13 146 13 104 q 47 212 13 186 q 146 247 82 238 q 193 175 153 207 q 287 124 233 143 q 381 106 340 106 q 512 135 454 106 q 569 215 569 164 q 528 287 569 258 q 406 349 488 315 l 332 382 q 189 482 242 426 q 136 629 136 538 q 193 794 136 731 q 331 885 250 857 q 490 913 413 913 q 694 881 614 913 q 810 800 774 849 q 846 700 846 751 q 831 629 846 671 q 788 557 817 588 q 719 526 760 526 q 650 599 650 526 q 663 672 653 621 q 676 732 672 722 z "},"Ś":{"ha":872,"x_min":13,"x_max":921,"o":"m 565 1047 q 640 1129 585 1076 q 748 1223 694 1182 q 817 1264 801 1264 q 883 1238 846 1264 q 921 1189 921 1211 q 901 1153 921 1171 q 822 1093 882 1135 q 693 1010 738 1033 q 613 988 649 988 q 574 997 586 988 q 561 1031 561 1007 q 565 1047 561 1042 m 676 732 q 623 772 669 754 q 501 789 576 789 q 374 743 419 789 q 328 628 328 697 q 359 562 328 585 q 456 511 390 539 l 506 490 l 547 471 q 666 410 622 438 q 740 336 710 383 q 771 215 771 289 q 719 78 771 136 q 574 -9 667 21 q 357 -39 481 -39 q 185 -10 265 -39 q 59 61 106 18 q 13 146 13 104 q 47 212 13 186 q 146 247 82 238 q 193 175 153 207 q 287 124 233 143 q 381 106 340 106 q 512 135 454 106 q 569 215 569 164 q 528 287 569 258 q 406 349 488 315 l 332 382 q 189 482 242 426 q 136 629 136 538 q 193 794 136 731 q 331 885 250 857 q 490 913 413 913 q 694 881 614 913 q 810 800 774 849 q 846 700 846 751 q 831 629 846 671 q 788 557 817 588 q 719 526 760 526 q 650 599 650 526 q 663 672 653 621 q 676 732 672 722 z "},"Š":{"ha":872,"x_min":13,"x_max":874,"o":"m 608 978 q 559 991 581 978 q 506 1046 538 1004 l 435 1138 q 421 1172 421 1156 q 442 1210 421 1194 q 493 1226 464 1226 q 546 1197 521 1226 l 622 1106 q 745 1207 706 1178 q 803 1236 785 1236 q 852 1224 831 1236 q 874 1190 874 1211 q 869 1163 874 1175 q 844 1135 864 1150 l 814 1110 q 671 994 710 1024 q 608 978 650 978 m 676 732 q 623 772 669 754 q 501 789 576 789 q 374 743 419 789 q 328 628 328 697 q 359 562 328 585 q 456 511 390 539 l 506 490 l 547 471 q 666 410 622 438 q 740 336 710 383 q 771 215 771 289 q 719 78 771 136 q 574 -9 667 21 q 357 -39 481 -39 q 185 -10 265 -39 q 59 61 106 18 q 13 146 13 104 q 47 212 13 186 q 146 247 82 238 q 193 175 153 207 q 287 124 233 143 q 381 106 340 106 q 512 135 454 106 q 569 215 569 164 q 528 287 569 258 q 406 349 488 315 l 332 382 q 189 482 242 426 q 136 629 136 538 q 193 794 136 731 q 331 885 250 857 q 490 913 413 913 q 694 881 614 913 q 810 800 774 849 q 846 700 846 751 q 831 629 846 671 q 788 557 817 588 q 719 526 760 526 q 650 599 650 526 q 663 672 653 621 q 676 732 672 722 z "},"Ş":{"ha":872,"x_min":13,"x_max":846,"o":"m 719 526 q 650 599 650 526 q 663 672 653 621 q 676 732 672 722 q 623 772 669 754 q 501 789 576 789 q 374 743 419 789 q 328 628 328 697 q 359 562 328 585 q 456 511 390 539 l 506 490 l 547 471 q 666 410 622 438 q 740 336 710 383 q 771 215 771 289 q 672 38 771 104 q 407 -37 574 -28 q 358 -117 375 -86 q 406 -112 383 -112 q 503 -144 458 -112 q 547 -217 547 -175 q 482 -329 547 -289 q 306 -369 417 -369 q 194 -339 247 -369 q 142 -267 142 -308 q 159 -255 142 -261 q 197 -249 176 -249 q 232 -253 218 -249 q 264 -267 246 -258 q 291 -279 281 -275 q 317 -283 301 -283 q 388 -268 363 -283 q 413 -225 413 -253 q 397 -196 413 -206 q 358 -186 382 -186 q 340 -189 350 -186 q 325 -193 329 -192 q 290 -200 307 -200 q 231 -195 251 -200 q 210 -182 210 -190 q 288 -35 210 -142 q 148 4 211 -25 q 49 72 85 33 q 13 146 13 110 q 47 212 13 186 q 146 247 82 238 q 193 175 153 207 q 287 124 233 143 q 381 106 340 106 q 512 135 454 106 q 569 215 569 164 q 528 287 569 258 q 406 349 488 315 l 332 382 q 189 482 242 426 q 136 629 136 538 q 193 794 136 731 q 331 885 250 857 q 490 913 413 913 q 694 881 614 913 q 810 800 774 849 q 846 700 846 751 q 831 629 846 671 q 788 557 817 588 q 719 526 760 526 z "},"Ŝ":{"ha":872,"x_min":13,"x_max":861,"o":"m 674 1238 q 723 1224 701 1238 q 776 1169 744 1211 l 847 1078 q 861 1043 861 1060 q 840 1005 861 1021 q 789 989 818 989 q 736 1018 761 989 l 660 1110 q 537 1008 576 1038 q 479 979 497 979 q 430 992 451 979 q 408 1025 408 1004 q 413 1053 408 1040 q 438 1081 418 1065 l 468 1106 q 611 1221 572 1192 q 674 1238 632 1238 m 676 732 q 623 772 669 754 q 501 789 576 789 q 374 743 419 789 q 328 628 328 697 q 359 562 328 585 q 456 511 390 539 l 506 490 l 547 471 q 666 410 622 438 q 740 336 710 383 q 771 215 771 289 q 719 78 771 136 q 574 -9 667 21 q 357 -39 481 -39 q 185 -10 265 -39 q 59 61 106 18 q 13 146 13 104 q 47 212 13 186 q 146 247 82 238 q 193 175 153 207 q 287 124 233 143 q 381 106 340 106 q 512 135 454 106 q 569 215 569 164 q 528 287 569 258 q 406 349 488 315 l 332 382 q 189 482 242 426 q 136 629 136 538 q 193 794 136 731 q 331 885 250 857 q 490 913 413 913 q 694 881 614 913 q 810 800 774 849 q 846 700 846 751 q 831 629 846 671 q 788 557 817 588 q 719 526 760 526 q 650 599 650 526 q 663 672 653 621 q 676 732 672 722 z "},"Ș":{"ha":872,"x_min":13,"x_max":846,"o":"m 676 732 q 623 772 669 754 q 501 789 576 789 q 374 743 419 789 q 328 628 328 697 q 359 562 328 585 q 456 511 390 539 l 506 490 l 547 471 q 666 410 622 438 q 740 336 710 383 q 771 215 771 289 q 719 78 771 136 q 574 -9 667 21 q 357 -39 481 -39 q 185 -10 265 -39 q 59 61 106 18 q 13 146 13 104 q 47 212 13 186 q 146 247 82 238 q 193 175 153 207 q 287 124 233 143 q 381 106 340 106 q 512 135 454 106 q 569 215 569 164 q 528 287 569 258 q 406 349 488 315 l 332 382 q 189 482 242 426 q 136 629 136 538 q 193 794 136 731 q 331 885 250 857 q 490 913 413 913 q 694 881 614 913 q 810 800 774 849 q 846 700 846 751 q 831 629 846 671 q 788 557 817 588 q 719 526 760 526 q 650 599 650 526 q 663 672 653 621 q 676 732 672 722 m 249 -357 q 217 -335 217 -357 q 226 -295 217 -312 q 257 -247 235 -278 q 288 -200 278 -218 q 299 -158 299 -182 q 296 -135 299 -149 q 293 -112 293 -122 q 308 -80 293 -92 q 367 -68 322 -68 q 415 -87 396 -68 q 435 -125 435 -107 q 403 -215 435 -167 q 314 -325 371 -262 q 249 -357 288 -357 z "},"Ṡ":{"ha":872,"x_min":13,"x_max":846,"o":"m 588 989 q 526 1015 556 989 q 497 1072 497 1040 q 536 1154 497 1119 q 622 1189 575 1189 q 685 1159 657 1189 q 713 1094 713 1129 q 675 1019 713 1050 q 588 989 638 989 m 676 732 q 623 772 669 754 q 501 789 576 789 q 374 743 419 789 q 328 628 328 697 q 359 562 328 585 q 456 511 390 539 l 506 490 l 547 471 q 666 410 622 438 q 740 336 710 383 q 771 215 771 289 q 719 78 771 136 q 574 -9 667 21 q 357 -39 481 -39 q 185 -10 265 -39 q 59 61 106 18 q 13 146 13 104 q 47 212 13 186 q 146 247 82 238 q 193 175 153 207 q 287 124 233 143 q 381 106 340 106 q 512 135 454 106 q 569 215 569 164 q 528 287 569 258 q 406 349 488 315 l 332 382 q 189 482 242 426 q 136 629 136 538 q 193 794 136 731 q 331 885 250 857 q 490 913 413 913 q 694 881 614 913 q 810 800 774 849 q 846 700 846 751 q 831 629 846 671 q 788 557 817 588 q 719 526 760 526 q 650 599 650 526 q 663 672 653 621 q 676 732 672 722 z "},"Ṣ":{"ha":872,"x_min":13,"x_max":846,"o":"m 676 732 q 623 772 669 754 q 501 789 576 789 q 374 743 419 789 q 328 628 328 697 q 359 562 328 585 q 456 511 390 539 l 506 490 l 547 471 q 666 410 622 438 q 740 336 710 383 q 771 215 771 289 q 719 78 771 136 q 574 -9 667 21 q 357 -39 481 -39 q 185 -10 265 -39 q 59 61 106 18 q 13 146 13 104 q 47 212 13 186 q 146 247 82 238 q 193 175 153 207 q 287 124 233 143 q 381 106 340 106 q 512 135 454 106 q 569 215 569 164 q 528 287 569 258 q 406 349 488 315 l 332 382 q 189 482 242 426 q 136 629 136 538 q 193 794 136 731 q 331 885 250 857 q 490 913 413 913 q 694 881 614 913 q 810 800 774 849 q 846 700 846 751 q 831 629 846 671 q 788 557 817 588 q 719 526 760 526 q 650 599 650 526 q 663 672 653 621 q 676 732 672 722 m 271 -299 q 210 -273 239 -299 q 181 -215 181 -247 q 219 -133 181 -168 q 306 -99 258 -99 q 368 -128 340 -99 q 396 -193 396 -158 q 358 -268 396 -237 q 271 -299 321 -299 z "},"ẞ":{"ha":958,"x_min":57,"x_max":919,"o":"m 740 703 q 705 769 740 739 q 581 800 669 800 q 465 769 513 800 q 408 701 418 739 l 221 -47 q 185 -86 210 -69 q 133 -103 161 -103 q 83 -84 108 -103 q 57 -35 57 -65 l 57 -26 l 235 674 q 355 868 268 807 q 583 929 442 929 q 814 867 744 929 q 883 713 883 804 q 837 606 883 647 q 711 522 790 564 q 649 484 668 497 q 631 457 631 471 q 656 413 631 429 q 735 375 681 396 q 829 331 793 351 q 892 270 865 310 q 919 169 919 231 q 837 16 919 69 q 615 -37 754 -37 q 489 -17 547 -37 q 397 37 431 4 q 360 101 363 69 q 389 156 360 135 q 471 185 418 178 q 500 133 472 157 q 566 94 528 108 q 632 79 604 79 q 718 105 679 79 q 757 165 757 131 q 633 267 757 229 q 520 340 556 290 q 485 450 485 390 q 522 527 485 494 q 632 604 558 560 q 713 656 686 635 q 740 703 740 678 z "},"Ə":{"ha":876,"x_min":26,"x_max":825,"o":"m 825 646 q 747 310 825 460 q 535 74 668 160 q 247 -11 403 -11 q 90 52 154 -11 q 26 238 26 115 q 106 388 26 326 q 290 484 185 449 q 553 557 396 519 l 636 578 q 643 653 643 622 q 609 740 643 710 q 485 771 575 771 q 423 757 461 771 q 351 722 385 743 q 308 676 318 700 q 263 596 290 638 q 204 554 235 554 q 112 585 136 554 q 86 653 88 617 q 165 780 106 717 q 313 885 224 843 q 510 926 403 926 q 749 850 674 926 q 825 646 825 774 m 597 415 q 320 335 447 385 q 193 236 193 286 q 219 156 193 176 q 290 135 246 135 q 403 181 340 135 q 521 292 467 226 q 597 415 575 358 z "},"T":{"ha":772,"x_min":79,"x_max":838,"o":"m 378 83 q 344 8 367 35 q 269 -18 321 -18 q 206 -3 226 -18 q 186 46 186 11 q 190 75 186 61 l 360 747 q 269 738 358 747 q 136 724 163 729 q 94 753 108 733 q 79 801 79 774 q 95 844 79 824 q 133 874 111 864 q 328 897 203 888 q 649 918 453 907 q 783 926 749 922 q 822 897 806 917 q 838 854 838 876 q 813 806 838 829 q 756 772 788 782 l 513 760 q 528 722 528 754 q 525 697 528 706 q 460 424 501 592 q 406 196 419 256 q 390 133 397 161 q 378 83 383 106 z "},"Ŧ":{"ha":772,"x_min":79,"x_max":838,"o":"m 378 83 q 344 8 367 35 q 269 -18 321 -18 q 206 -3 226 -18 q 186 46 186 11 q 190 75 186 61 l 260 353 q 158 338 192 344 q 116 367 131 347 q 101 415 101 388 q 156 479 101 456 q 299 503 242 496 l 358 739 q 316 734 339 736 q 272 729 293 732 q 136 714 150 717 q 94 744 108 724 q 79 792 79 764 q 133 856 79 832 q 481 899 247 879 q 743 922 715 919 q 764 924 754 924 q 783 925 774 924 q 838 861 838 901 q 813 813 838 836 q 756 779 788 789 l 540 763 q 483 519 525 696 q 522 522 506 521 q 553 525 539 524 q 644 532 640 532 q 699 468 699 508 q 674 419 699 443 q 617 386 649 396 l 447 369 l 378 83 z "},"Ť":{"ha":772,"x_min":79,"x_max":838,"o":"m 501 981 q 452 994 474 981 q 399 1049 431 1007 l 328 1140 q 314 1175 314 1158 q 335 1213 314 1197 q 386 1229 357 1229 q 439 1200 414 1229 l 515 1108 q 638 1210 599 1181 q 696 1239 678 1239 q 745 1226 724 1239 q 767 1193 767 1214 q 762 1165 767 1178 q 738 1138 757 1153 l 707 1113 q 564 997 603 1026 q 501 981 543 981 m 378 83 q 344 8 367 35 q 269 -18 321 -18 q 206 -3 226 -18 q 186 46 186 11 q 190 75 186 61 l 360 747 q 269 738 358 747 q 136 724 163 729 q 94 753 108 733 q 79 801 79 774 q 95 844 79 824 q 133 874 111 864 q 328 897 203 888 q 649 918 453 907 q 783 926 749 922 q 822 897 806 917 q 838 854 838 876 q 813 806 838 829 q 756 772 788 782 l 513 760 q 528 722 528 754 q 525 697 528 706 q 460 424 501 592 q 406 196 419 256 q 390 133 397 161 q 378 83 383 106 z "},"Ţ":{"ha":772,"x_min":50,"x_max":838,"o":"m 783 926 q 822 897 806 917 q 838 854 838 876 q 813 806 838 829 q 756 772 788 782 l 513 760 q 528 722 528 754 q 525 697 528 706 q 460 424 501 592 q 406 196 419 256 q 390 133 397 161 q 378 83 383 106 q 357 26 369 49 q 321 -8 344 4 q 267 -94 290 -50 q 314 -90 292 -90 q 411 -122 367 -90 q 456 -194 456 -153 q 390 -307 456 -267 q 214 -347 325 -347 q 103 -317 156 -347 q 50 -244 50 -286 q 67 -233 50 -239 q 106 -226 85 -226 q 140 -231 126 -226 q 172 -244 154 -236 q 199 -257 189 -253 q 225 -261 210 -261 q 296 -246 271 -261 q 321 -203 321 -231 q 306 -174 321 -183 q 267 -164 290 -164 q 248 -167 258 -164 q 233 -171 238 -169 q 199 -178 215 -178 q 139 -173 160 -178 q 118 -160 118 -168 q 204 -1 118 -117 q 186 46 186 13 q 190 75 186 61 l 360 747 q 269 738 358 747 q 136 724 163 729 q 94 753 108 733 q 79 801 79 774 q 95 844 79 824 q 133 874 111 864 q 328 897 203 888 q 649 918 453 907 q 783 926 749 922 z "},"Ț":{"ha":772,"x_min":57,"x_max":838,"o":"m 378 83 q 344 8 367 35 q 269 -18 321 -18 q 206 -3 226 -18 q 186 46 186 11 q 190 75 186 61 l 360 747 q 269 738 358 747 q 136 724 163 729 q 94 753 108 733 q 79 801 79 774 q 95 844 79 824 q 133 874 111 864 q 328 897 203 888 q 649 918 453 907 q 783 926 749 922 q 822 897 806 917 q 838 854 838 876 q 813 806 838 829 q 756 772 788 782 l 513 760 q 528 722 528 754 q 525 697 528 706 q 460 424 501 592 q 406 196 419 256 q 390 133 397 161 q 378 83 383 106 m 96 -419 q 57 -393 57 -419 q 69 -345 57 -367 q 104 -289 81 -324 q 141 -233 129 -257 q 153 -183 153 -210 q 150 -158 153 -174 q 147 -132 147 -143 q 164 -92 147 -107 q 232 -78 181 -78 q 291 -101 268 -78 q 314 -144 314 -124 q 278 -248 314 -193 q 174 -381 242 -303 q 96 -419 135 -419 z "},"Ṭ":{"ha":772,"x_min":79,"x_max":838,"o":"m 378 83 q 344 8 367 35 q 269 -18 321 -18 q 206 -3 226 -18 q 186 46 186 11 q 190 75 186 61 l 360 747 q 269 738 358 747 q 136 724 163 729 q 94 753 108 733 q 79 801 79 774 q 95 844 79 824 q 133 874 111 864 q 328 897 203 888 q 649 918 453 907 q 783 926 749 922 q 822 897 806 917 q 838 854 838 876 q 813 806 838 829 q 756 772 788 782 l 513 760 q 528 722 528 754 q 525 697 528 706 q 460 424 501 592 q 406 196 419 256 q 390 133 397 161 q 378 83 383 106 m 199 -299 q 138 -273 167 -299 q 108 -215 108 -247 q 147 -133 108 -168 q 233 -99 186 -99 q 296 -128 268 -99 q 324 -193 324 -158 q 286 -268 324 -237 q 199 -299 249 -299 z "},"Ṯ":{"ha":772,"x_min":-28,"x_max":838,"o":"m 378 83 q 344 8 367 35 q 269 -18 321 -18 q 206 -3 226 -18 q 186 46 186 11 q 190 75 186 61 l 360 747 q 269 738 358 747 q 136 724 163 729 q 94 753 108 733 q 79 801 79 774 q 95 844 79 824 q 133 874 111 864 q 328 897 203 888 q 649 918 453 907 q 783 926 749 922 q 822 897 806 917 q 838 854 838 876 q 813 806 838 829 q 756 772 788 782 l 513 760 q 528 722 528 754 q 525 697 528 706 q 460 424 501 592 q 406 196 419 256 q 390 133 397 161 q 378 83 383 106 m 483 -149 q 456 -201 482 -183 q 388 -222 429 -219 l 97 -237 q 38 -243 58 -243 q -28 -187 -24 -239 l -28 -176 q -9 -133 -26 -147 q 44 -114 8 -119 q 154 -106 79 -108 l 417 -94 q 467 -106 451 -97 q 483 -139 482 -114 l 483 -149 z "},"U":{"ha":919,"x_min":32,"x_max":939,"o":"m 160 821 q 192 902 175 882 q 256 922 210 922 q 320 914 293 922 q 349 889 347 906 q 356 867 356 885 q 340 778 356 838 q 296 622 325 718 q 242 426 263 507 q 215 289 221 346 l 214 269 q 242 178 214 214 q 310 127 269 143 q 389 111 350 111 q 529 152 478 111 q 608 265 581 193 q 658 460 635 336 q 697 640 671 522 q 732 783 724 758 q 747 839 744 819 q 765 888 756 871 q 793 917 774 904 q 808 920 799 918 q 824 922 818 922 q 902 914 871 922 q 939 893 933 906 q 881 649 918 811 q 828 393 844 488 q 369 -29 751 -29 q 196 10 272 -29 q 76 117 119 49 q 32 274 32 186 q 44 365 32 318 l 160 821 z "},"Ú":{"ha":919,"x_min":32,"x_max":939,"o":"m 460 1043 q 534 1125 479 1072 q 642 1219 589 1178 q 711 1260 696 1260 q 778 1233 740 1260 q 815 1185 815 1207 q 796 1149 815 1167 q 717 1089 776 1131 q 588 1006 632 1029 q 507 983 543 983 q 468 993 481 983 q 456 1026 456 1003 q 460 1043 456 1038 m 160 821 q 192 902 175 882 q 256 922 210 922 q 320 914 293 922 q 349 889 347 906 q 356 867 356 885 q 340 778 356 838 q 296 622 325 718 q 242 426 263 507 q 215 289 221 346 l 214 269 q 242 178 214 214 q 310 127 269 143 q 389 111 350 111 q 529 152 478 111 q 608 265 581 193 q 658 460 635 336 q 697 640 671 522 q 732 783 724 758 q 747 839 744 819 q 765 888 756 871 q 793 917 774 904 q 808 920 799 918 q 824 922 818 922 q 902 914 871 922 q 939 893 933 906 q 881 649 918 811 q 828 393 844 488 q 369 -29 751 -29 q 196 10 272 -29 q 76 117 119 49 q 32 274 32 186 q 44 365 32 318 l 160 821 z "},"Ŭ":{"ha":919,"x_min":32,"x_max":939,"o":"m 582 982 q 446 1016 497 982 q 394 1113 394 1050 q 468 1189 394 1189 q 515 1144 514 1189 q 531 1106 517 1117 q 593 1094 544 1094 q 663 1103 638 1094 q 702 1130 688 1113 q 735 1182 717 1147 q 758 1196 744 1190 q 782 1201 771 1201 q 843 1182 831 1201 q 756 1035 829 1085 q 582 982 682 985 m 160 821 q 192 902 175 882 q 256 922 210 922 q 320 914 293 922 q 349 889 347 906 q 356 867 356 885 q 340 778 356 838 q 296 622 325 718 q 242 426 263 507 q 215 289 221 346 l 214 269 q 242 178 214 214 q 310 127 269 143 q 389 111 350 111 q 529 152 478 111 q 608 265 581 193 q 658 460 635 336 q 697 640 671 522 q 732 783 724 758 q 747 839 744 819 q 765 888 756 871 q 793 917 774 904 q 808 920 799 918 q 824 922 818 922 q 902 914 871 922 q 939 893 933 906 q 881 649 918 811 q 828 393 844 488 q 369 -29 751 -29 q 196 10 272 -29 q 76 117 119 49 q 32 274 32 186 q 44 365 32 318 l 160 821 z "},"Ǔ":{"ha":919,"x_min":32,"x_max":939,"o":"m 569 990 q 520 1003 542 990 q 467 1058 499 1017 l 396 1150 q 382 1185 382 1168 q 403 1223 382 1207 q 454 1239 425 1239 q 507 1210 482 1239 l 583 1118 q 706 1219 667 1190 q 764 1249 746 1249 q 813 1236 792 1249 q 835 1203 835 1224 q 830 1175 835 1188 q 806 1147 825 1163 l 775 1122 q 632 1007 671 1036 q 569 990 611 990 m 160 821 q 192 902 175 882 q 256 922 210 922 q 320 914 293 922 q 349 889 347 906 q 356 867 356 885 q 340 778 356 838 q 296 622 325 718 q 242 426 263 507 q 215 289 221 346 l 214 269 q 242 178 214 214 q 310 127 269 143 q 389 111 350 111 q 529 152 478 111 q 608 265 581 193 q 658 460 635 336 q 697 640 671 522 q 732 783 724 758 q 747 839 744 819 q 765 888 756 871 q 793 917 774 904 q 808 920 799 918 q 824 922 818 922 q 902 914 871 922 q 939 893 933 906 q 881 649 918 811 q 828 393 844 488 q 369 -29 751 -29 q 196 10 272 -29 q 76 117 119 49 q 32 274 32 186 q 44 365 32 318 l 160 821 z "},"Û":{"ha":919,"x_min":32,"x_max":939,"o":"m 629 1235 q 678 1222 657 1235 q 732 1167 700 1208 l 803 1075 q 817 1040 817 1057 q 795 1002 817 1018 q 744 986 774 986 q 692 1015 717 986 l 615 1107 q 492 1006 532 1035 q 435 976 453 976 q 385 989 407 976 q 364 1022 364 1001 q 369 1050 364 1038 q 393 1078 374 1063 l 424 1103 q 567 1218 528 1189 q 629 1235 588 1235 m 160 821 q 192 902 175 882 q 256 922 210 922 q 320 914 293 922 q 349 889 347 906 q 356 867 356 885 q 340 778 356 838 q 296 622 325 718 q 242 426 263 507 q 215 289 221 346 l 214 269 q 242 178 214 214 q 310 127 269 143 q 389 111 350 111 q 529 152 478 111 q 608 265 581 193 q 658 460 635 336 q 697 640 671 522 q 732 783 724 758 q 747 839 744 819 q 765 888 756 871 q 793 917 774 904 q 808 920 799 918 q 824 922 818 922 q 902 914 871 922 q 939 893 933 906 q 881 649 918 811 q 828 393 844 488 q 369 -29 751 -29 q 196 10 272 -29 q 76 117 119 49 q 32 274 32 186 q 44 365 32 318 l 160 821 z "},"Ȕ":{"ha":919,"x_min":32,"x_max":939,"o":"m 568 1039 q 561 1002 568 1022 q 540 982 554 982 l 535 983 q 506 1002 521 988 q 471 1043 492 1017 q 418 1099 438 1081 q 374 1126 399 1118 q 350 1140 358 1132 q 342 1165 342 1147 q 359 1228 342 1197 q 406 1258 376 1258 q 560 1075 479 1258 q 568 1039 568 1057 m 811 1039 q 804 1002 811 1022 q 783 982 797 982 l 778 983 q 749 1002 764 988 q 714 1043 735 1017 q 661 1099 681 1081 q 617 1126 642 1118 q 593 1140 601 1132 q 585 1165 585 1147 q 602 1228 585 1197 q 649 1258 619 1258 q 803 1075 722 1258 q 811 1039 811 1057 m 160 821 q 192 902 175 882 q 256 922 210 922 q 320 914 293 922 q 349 889 347 906 q 356 867 356 885 q 340 778 356 838 q 296 622 325 718 q 242 426 263 507 q 215 289 221 346 l 214 269 q 242 178 214 214 q 310 127 269 143 q 389 111 350 111 q 529 152 478 111 q 608 265 581 193 q 658 460 635 336 q 697 640 671 522 q 732 783 724 758 q 747 839 744 819 q 765 888 756 871 q 793 917 774 904 q 808 920 799 918 q 824 922 818 922 q 902 914 871 922 q 939 893 933 906 q 881 649 918 811 q 828 393 844 488 q 369 -29 751 -29 q 196 10 272 -29 q 76 117 119 49 q 32 274 32 186 q 44 365 32 318 l 160 821 z "},"Ü":{"ha":919,"x_min":32,"x_max":939,"o":"m 726 975 q 663 1003 694 975 q 631 1061 631 1031 q 667 1141 631 1110 q 750 1172 703 1172 q 818 1144 786 1172 q 850 1083 850 1117 q 813 1007 850 1039 q 726 975 776 975 m 410 969 q 349 995 378 969 q 319 1053 319 1021 q 358 1135 319 1100 q 444 1169 397 1169 q 507 1140 479 1169 q 535 1075 535 1110 q 497 1000 535 1031 q 410 969 460 969 m 160 821 q 192 902 175 882 q 256 922 210 922 q 320 914 293 922 q 349 889 347 906 q 356 867 356 885 q 340 778 356 838 q 296 622 325 718 q 242 426 263 507 q 215 289 221 346 l 214 269 q 242 178 214 214 q 310 127 269 143 q 389 111 350 111 q 529 152 478 111 q 608 265 581 193 q 658 460 635 336 q 697 640 671 522 q 732 783 724 758 q 747 839 744 819 q 765 888 756 871 q 793 917 774 904 q 808 920 799 918 q 824 922 818 922 q 902 914 871 922 q 939 893 933 906 q 881 649 918 811 q 828 393 844 488 q 369 -29 751 -29 q 196 10 272 -29 q 76 117 119 49 q 32 274 32 186 q 44 365 32 318 l 160 821 z "},"Ǘ":{"ha":919,"x_min":32,"x_max":939,"o":"m 588 1250 q 689 1352 611 1285 q 785 1419 767 1419 q 837 1399 807 1419 q 867 1360 867 1378 q 856 1337 867 1347 q 822 1310 844 1326 q 790 1288 800 1294 q 689 1222 724 1240 q 625 1203 654 1203 q 594 1210 604 1203 q 585 1236 585 1218 q 588 1250 585 1242 m 761 996 q 700 1022 731 996 q 669 1078 669 1049 q 704 1154 669 1124 q 785 1185 739 1185 q 849 1158 818 1185 q 881 1100 881 1131 q 845 1026 881 1057 q 761 996 810 996 m 444 990 q 386 1015 414 990 q 358 1069 358 1040 q 396 1149 358 1115 q 478 1182 433 1182 q 538 1153 511 1182 q 565 1092 565 1125 q 529 1020 565 1050 q 444 990 493 990 m 160 821 q 192 902 175 882 q 256 922 210 922 q 320 914 293 922 q 349 889 347 906 q 356 867 356 885 q 340 778 356 838 q 296 622 325 718 q 242 426 263 507 q 215 289 221 346 l 214 269 q 242 178 214 214 q 310 127 269 143 q 389 111 350 111 q 529 152 478 111 q 608 265 581 193 q 658 460 635 336 q 697 640 671 522 q 732 783 724 758 q 747 839 744 819 q 765 888 756 871 q 793 917 774 904 q 808 920 799 918 q 824 922 818 922 q 902 914 871 922 q 939 893 933 906 q 881 649 918 811 q 828 393 844 488 q 369 -29 751 -29 q 196 10 272 -29 q 76 117 119 49 q 32 274 32 186 q 44 365 32 318 l 160 821 z "},"Ǚ":{"ha":919,"x_min":32,"x_max":939,"o":"m 624 1189 q 577 1200 597 1189 q 525 1250 557 1211 l 457 1329 q 444 1360 444 1346 q 465 1394 444 1379 q 513 1410 486 1410 q 539 1402 525 1410 q 564 1383 553 1394 l 638 1301 q 753 1390 714 1364 q 811 1417 793 1417 q 858 1406 838 1417 q 878 1378 878 1396 q 847 1327 878 1356 q 742 1244 815 1299 q 683 1203 729 1236 q 624 1189 665 1189 m 760 996 q 699 1022 729 996 q 668 1078 668 1049 q 703 1154 668 1124 q 783 1185 738 1185 q 848 1158 817 1185 q 879 1100 879 1131 q 844 1026 879 1057 q 760 996 808 996 m 443 990 q 385 1015 413 990 q 357 1069 357 1040 q 394 1149 357 1115 q 476 1182 432 1182 q 537 1153 510 1182 q 564 1092 564 1125 q 528 1020 564 1050 q 443 990 492 990 m 160 821 q 192 902 175 882 q 256 922 210 922 q 320 914 293 922 q 349 889 347 906 q 356 867 356 885 q 340 778 356 838 q 296 622 325 718 q 242 426 263 507 q 215 289 221 346 l 214 269 q 242 178 214 214 q 310 127 269 143 q 389 111 350 111 q 529 152 478 111 q 608 265 581 193 q 658 460 635 336 q 697 640 671 522 q 732 783 724 758 q 747 839 744 819 q 765 888 756 871 q 793 917 774 904 q 808 920 799 918 q 824 922 818 922 q 902 914 871 922 q 939 893 933 906 q 881 649 918 811 q 828 393 844 488 q 369 -29 751 -29 q 196 10 272 -29 q 76 117 119 49 q 32 274 32 186 q 44 365 32 318 l 160 821 z "},"Ǜ":{"ha":919,"x_min":32,"x_max":939,"o":"m 697 1250 q 700 1236 700 1242 q 690 1210 700 1218 q 660 1203 681 1203 q 596 1222 631 1203 q 494 1288 561 1240 q 460 1313 485 1294 q 426 1340 435 1331 q 418 1360 418 1350 q 448 1399 418 1378 q 500 1419 478 1419 q 596 1352 518 1419 q 697 1250 674 1285 m 768 996 q 707 1022 738 996 q 676 1078 676 1049 q 711 1154 676 1124 q 792 1185 746 1185 q 856 1158 825 1185 q 888 1100 888 1131 q 852 1026 888 1057 q 768 996 817 996 m 451 990 q 393 1015 421 990 q 365 1069 365 1040 q 403 1149 365 1115 q 485 1182 440 1182 q 545 1153 518 1182 q 572 1092 572 1125 q 536 1020 572 1050 q 451 990 500 990 m 160 821 q 192 902 175 882 q 256 922 210 922 q 320 914 293 922 q 349 889 347 906 q 356 867 356 885 q 340 778 356 838 q 296 622 325 718 q 242 426 263 507 q 215 289 221 346 l 214 269 q 242 178 214 214 q 310 127 269 143 q 389 111 350 111 q 529 152 478 111 q 608 265 581 193 q 658 460 635 336 q 697 640 671 522 q 732 783 724 758 q 747 839 744 819 q 765 888 756 871 q 793 917 774 904 q 808 920 799 918 q 824 922 818 922 q 902 914 871 922 q 939 893 933 906 q 881 649 918 811 q 828 393 844 488 q 369 -29 751 -29 q 196 10 272 -29 q 76 117 119 49 q 32 274 32 186 q 44 365 32 318 l 160 821 z "},"Ǖ":{"ha":919,"x_min":32,"x_max":939,"o":"m 888 1339 q 860 1286 886 1304 q 792 1265 833 1268 l 501 1250 q 442 1244 463 1244 q 376 1300 381 1249 l 376 1311 q 397 1358 379 1342 q 451 1383 414 1375 q 558 1393 489 1390 l 821 1404 q 888 1349 886 1400 l 888 1339 m 764 989 q 700 1017 732 989 q 668 1075 668 1044 q 704 1155 668 1124 q 788 1186 740 1186 q 856 1158 824 1186 q 888 1097 888 1131 q 851 1021 888 1053 q 764 989 814 989 m 447 983 q 386 1009 415 983 q 357 1067 357 1035 q 396 1149 357 1114 q 482 1183 435 1183 q 544 1153 517 1183 q 572 1089 572 1124 q 535 1014 572 1044 q 447 983 497 983 m 160 821 q 192 902 175 882 q 256 922 210 922 q 320 914 293 922 q 349 889 347 906 q 356 867 356 885 q 340 778 356 838 q 296 622 325 718 q 242 426 263 507 q 215 289 221 346 l 214 269 q 242 178 214 214 q 310 127 269 143 q 389 111 350 111 q 529 152 478 111 q 608 265 581 193 q 658 460 635 336 q 697 640 671 522 q 732 783 724 758 q 747 839 744 819 q 765 888 756 871 q 793 917 774 904 q 808 920 799 918 q 824 922 818 922 q 902 914 871 922 q 939 893 933 906 q 881 649 918 811 q 828 393 844 488 q 369 -29 751 -29 q 196 10 272 -29 q 76 117 119 49 q 32 274 32 186 q 44 365 32 318 l 160 821 z "},"Ụ":{"ha":919,"x_min":32,"x_max":939,"o":"m 160 821 q 192 902 175 882 q 256 922 210 922 q 320 914 293 922 q 349 889 347 906 q 356 867 356 885 q 340 778 356 838 q 296 622 325 718 q 242 426 263 507 q 215 289 221 346 l 214 269 q 242 178 214 214 q 310 127 269 143 q 389 111 350 111 q 529 152 478 111 q 608 265 581 193 q 658 460 635 336 q 697 640 671 522 q 732 783 724 758 q 747 839 744 819 q 765 888 756 871 q 793 917 774 904 q 808 920 799 918 q 824 922 818 922 q 902 914 871 922 q 939 893 933 906 q 881 649 918 811 q 828 393 844 488 q 369 -29 751 -29 q 196 10 272 -29 q 76 117 119 49 q 32 274 32 186 q 44 365 32 318 l 160 821 m 278 -299 q 217 -273 246 -299 q 188 -215 188 -247 q 226 -133 188 -168 q 313 -99 265 -99 q 375 -128 347 -99 q 403 -193 403 -158 q 365 -268 403 -237 q 278 -299 328 -299 z "},"Ù":{"ha":919,"x_min":32,"x_max":939,"o":"m 699 1043 q 703 1026 703 1038 q 690 993 703 1003 q 651 983 678 983 q 571 1006 615 983 q 442 1089 526 1029 q 363 1149 382 1131 q 343 1185 343 1167 q 381 1233 343 1207 q 447 1260 418 1260 q 516 1219 463 1260 q 624 1125 569 1178 q 699 1043 679 1072 m 160 821 q 192 902 175 882 q 256 922 210 922 q 320 914 293 922 q 349 889 347 906 q 356 867 356 885 q 340 778 356 838 q 296 622 325 718 q 242 426 263 507 q 215 289 221 346 l 214 269 q 242 178 214 214 q 310 127 269 143 q 389 111 350 111 q 529 152 478 111 q 608 265 581 193 q 658 460 635 336 q 697 640 671 522 q 732 783 724 758 q 747 839 744 819 q 765 888 756 871 q 793 917 774 904 q 808 920 799 918 q 824 922 818 922 q 902 914 871 922 q 939 893 933 906 q 881 649 918 811 q 828 393 844 488 q 369 -29 751 -29 q 196 10 272 -29 q 76 117 119 49 q 32 274 32 186 q 44 365 32 318 l 160 821 z "},"Ủ":{"ha":919,"x_min":32,"x_max":939,"o":"m 626 1015 q 563 978 606 978 q 528 985 540 978 q 515 1004 515 992 q 538 1096 515 1014 q 561 1129 543 1118 q 614 1151 579 1140 q 665 1174 649 1163 q 682 1211 682 1186 q 670 1232 682 1222 q 631 1242 658 1242 q 587 1235 601 1242 q 571 1228 572 1229 q 559 1222 569 1226 q 533 1217 549 1217 q 509 1231 519 1217 q 499 1260 499 1244 q 544 1315 499 1300 q 650 1331 589 1331 q 756 1304 710 1331 q 801 1226 801 1278 q 768 1142 801 1174 q 682 1090 735 1111 q 647 1067 657 1081 q 633 1038 638 1053 q 626 1015 629 1024 m 160 821 q 192 902 175 882 q 256 922 210 922 q 320 914 293 922 q 349 889 347 906 q 356 867 356 885 q 340 778 356 838 q 296 622 325 718 q 242 426 263 507 q 215 289 221 346 l 214 269 q 242 178 214 214 q 310 127 269 143 q 389 111 350 111 q 529 152 478 111 q 608 265 581 193 q 658 460 635 336 q 697 640 671 522 q 732 783 724 758 q 747 839 744 819 q 765 888 756 871 q 793 917 774 904 q 808 920 799 918 q 824 922 818 922 q 902 914 871 922 q 939 893 933 906 q 881 649 918 811 q 828 393 844 488 q 369 -29 751 -29 q 196 10 272 -29 q 76 117 119 49 q 32 274 32 186 q 44 365 32 318 l 160 821 z "},"Ư":{"ha":1058,"x_min":32,"x_max":1158,"o":"m 1158 838 q 1128 718 1158 774 q 1044 629 1099 663 q 919 596 990 596 q 869 601 886 596 q 828 393 842 469 q 369 -29 751 -29 q 196 10 272 -29 q 76 117 119 49 q 32 274 32 186 q 44 365 32 318 l 160 821 q 192 902 175 882 q 256 922 210 922 q 320 914 293 922 q 349 889 347 906 q 356 867 356 885 q 340 778 356 838 q 296 622 325 718 q 242 426 263 507 q 215 289 221 346 l 214 269 q 242 178 214 214 q 310 127 269 143 q 389 111 350 111 q 529 152 478 111 q 608 265 581 193 q 658 460 635 336 q 697 640 671 522 q 732 783 724 758 q 747 839 744 819 q 765 888 756 871 q 793 917 774 904 q 808 920 799 918 q 824 922 818 922 q 902 914 871 922 q 939 893 933 906 q 883 664 915 806 q 955 676 928 668 q 1001 710 982 685 q 1019 786 1019 736 q 1015 817 1019 799 q 1010 844 1010 836 q 1026 891 1010 868 q 1067 914 1042 914 l 1100 914 q 1158 838 1158 914 z "},"Ứ":{"ha":1058,"x_min":32,"x_max":1158,"o":"m 481 1036 q 555 1118 500 1065 q 663 1212 610 1171 q 732 1253 717 1253 q 799 1226 761 1253 q 836 1178 836 1200 q 817 1142 836 1160 q 738 1082 797 1124 q 608 999 653 1022 q 528 976 564 976 q 489 986 501 976 q 476 1019 476 996 q 481 1036 476 1031 m 1158 838 q 1128 718 1158 774 q 1044 629 1099 663 q 919 596 990 596 q 869 601 886 596 q 828 393 842 469 q 369 -29 751 -29 q 196 10 272 -29 q 76 117 119 49 q 32 274 32 186 q 44 365 32 318 l 160 821 q 192 902 175 882 q 256 922 210 922 q 320 914 293 922 q 349 889 347 906 q 356 867 356 885 q 340 778 356 838 q 296 622 325 718 q 242 426 263 507 q 215 289 221 346 l 214 269 q 242 178 214 214 q 310 127 269 143 q 389 111 350 111 q 529 152 478 111 q 608 265 581 193 q 658 460 635 336 q 697 640 671 522 q 732 783 724 758 q 747 839 744 819 q 765 888 756 871 q 793 917 774 904 q 808 920 799 918 q 824 922 818 922 q 902 914 871 922 q 939 893 933 906 q 883 664 915 806 q 955 676 928 668 q 1001 710 982 685 q 1019 786 1019 736 q 1015 817 1019 799 q 1010 844 1010 836 q 1026 891 1010 868 q 1067 914 1042 914 l 1100 914 q 1158 838 1158 914 z "},"Ự":{"ha":1058,"x_min":32,"x_max":1158,"o":"m 1158 838 q 1128 718 1158 774 q 1044 629 1099 663 q 919 596 990 596 q 869 601 886 596 q 828 393 842 469 q 369 -29 751 -29 q 196 10 272 -29 q 76 117 119 49 q 32 274 32 186 q 44 365 32 318 l 160 821 q 192 902 175 882 q 256 922 210 922 q 320 914 293 922 q 349 889 347 906 q 356 867 356 885 q 340 778 356 838 q 296 622 325 718 q 242 426 263 507 q 215 289 221 346 l 214 269 q 242 178 214 214 q 310 127 269 143 q 389 111 350 111 q 529 152 478 111 q 608 265 581 193 q 658 460 635 336 q 697 640 671 522 q 732 783 724 758 q 747 839 744 819 q 765 888 756 871 q 793 917 774 904 q 808 920 799 918 q 824 922 818 922 q 902 914 871 922 q 939 893 933 906 q 883 664 915 806 q 955 676 928 668 q 1001 710 982 685 q 1019 786 1019 736 q 1015 817 1019 799 q 1010 844 1010 836 q 1026 891 1010 868 q 1067 914 1042 914 l 1100 914 q 1158 838 1158 914 m 274 -299 q 213 -273 242 -299 q 183 -215 183 -247 q 222 -133 183 -168 q 308 -99 261 -99 q 371 -128 343 -99 q 399 -193 399 -158 q 361 -268 399 -237 q 274 -299 324 -299 z "},"Ừ":{"ha":1058,"x_min":32,"x_max":1158,"o":"m 726 1040 q 731 1024 731 1035 q 718 990 731 1000 q 679 981 706 981 q 599 1003 643 981 q 469 1086 554 1026 q 390 1146 410 1128 q 371 1182 371 1164 q 408 1231 371 1204 q 475 1257 446 1257 q 544 1216 490 1257 q 652 1122 597 1175 q 726 1040 707 1069 m 1158 838 q 1128 718 1158 774 q 1044 629 1099 663 q 919 596 990 596 q 869 601 886 596 q 828 393 842 469 q 369 -29 751 -29 q 196 10 272 -29 q 76 117 119 49 q 32 274 32 186 q 44 365 32 318 l 160 821 q 192 902 175 882 q 256 922 210 922 q 320 914 293 922 q 349 889 347 906 q 356 867 356 885 q 340 778 356 838 q 296 622 325 718 q 242 426 263 507 q 215 289 221 346 l 214 269 q 242 178 214 214 q 310 127 269 143 q 389 111 350 111 q 529 152 478 111 q 608 265 581 193 q 658 460 635 336 q 697 640 671 522 q 732 783 724 758 q 747 839 744 819 q 765 888 756 871 q 793 917 774 904 q 808 920 799 918 q 824 922 818 922 q 902 914 871 922 q 939 893 933 906 q 883 664 915 806 q 955 676 928 668 q 1001 710 982 685 q 1019 786 1019 736 q 1015 817 1019 799 q 1010 844 1010 836 q 1026 891 1010 868 q 1067 914 1042 914 l 1100 914 q 1158 838 1158 914 z "},"Ử":{"ha":1058,"x_min":32,"x_max":1158,"o":"m 646 1017 q 582 979 625 979 q 547 986 560 979 q 535 1006 535 993 q 557 1097 535 1015 q 581 1131 563 1119 q 633 1153 599 1142 q 685 1176 668 1164 q 701 1213 701 1188 q 690 1233 701 1224 q 650 1243 678 1243 q 606 1237 621 1243 q 590 1229 592 1231 q 578 1223 589 1228 q 553 1218 568 1218 q 528 1232 539 1218 q 518 1261 518 1246 q 563 1317 518 1301 q 669 1332 608 1332 q 775 1306 729 1332 q 821 1228 821 1279 q 788 1144 821 1175 q 701 1092 754 1113 q 667 1068 676 1082 q 653 1040 657 1054 q 646 1017 649 1025 m 1158 838 q 1128 718 1158 774 q 1044 629 1099 663 q 919 596 990 596 q 869 601 886 596 q 828 393 842 469 q 369 -29 751 -29 q 196 10 272 -29 q 76 117 119 49 q 32 274 32 186 q 44 365 32 318 l 160 821 q 192 902 175 882 q 256 922 210 922 q 320 914 293 922 q 349 889 347 906 q 356 867 356 885 q 340 778 356 838 q 296 622 325 718 q 242 426 263 507 q 215 289 221 346 l 214 269 q 242 178 214 214 q 310 127 269 143 q 389 111 350 111 q 529 152 478 111 q 608 265 581 193 q 658 460 635 336 q 697 640 671 522 q 732 783 724 758 q 747 839 744 819 q 765 888 756 871 q 793 917 774 904 q 808 920 799 918 q 824 922 818 922 q 902 914 871 922 q 939 893 933 906 q 883 664 915 806 q 955 676 928 668 q 1001 710 982 685 q 1019 786 1019 736 q 1015 817 1019 799 q 1010 844 1010 836 q 1026 891 1010 868 q 1067 914 1042 914 l 1100 914 q 1158 838 1158 914 z "},"Ữ":{"ha":1058,"x_min":32,"x_max":1158,"o":"m 518 1064 q 397 982 472 1064 q 374 1006 381 992 q 367 1057 367 1021 q 396 1115 367 1085 q 466 1166 425 1146 q 540 1186 507 1186 q 665 1138 601 1186 q 713 1108 692 1117 q 757 1100 733 1100 q 788 1109 774 1100 q 815 1131 801 1118 q 836 1151 829 1144 q 849 1157 842 1157 q 860 1150 854 1157 q 867 1143 865 1143 q 869 1131 869 1143 q 843 1058 869 1092 q 782 1003 817 1024 q 726 982 747 982 q 669 992 694 982 q 607 1026 643 1003 q 560 1056 581 1047 q 518 1064 540 1064 m 1158 838 q 1128 718 1158 774 q 1044 629 1099 663 q 919 596 990 596 q 869 601 886 596 q 828 393 842 469 q 369 -29 751 -29 q 196 10 272 -29 q 76 117 119 49 q 32 274 32 186 q 44 365 32 318 l 160 821 q 192 902 175 882 q 256 922 210 922 q 320 914 293 922 q 349 889 347 906 q 356 867 356 885 q 340 778 356 838 q 296 622 325 718 q 242 426 263 507 q 215 289 221 346 l 214 269 q 242 178 214 214 q 310 127 269 143 q 389 111 350 111 q 529 152 478 111 q 608 265 581 193 q 658 460 635 336 q 697 640 671 522 q 732 783 724 758 q 747 839 744 819 q 765 888 756 871 q 793 917 774 904 q 808 920 799 918 q 824 922 818 922 q 902 914 871 922 q 939 893 933 906 q 883 664 915 806 q 955 676 928 668 q 1001 710 982 685 q 1019 786 1019 736 q 1015 817 1019 799 q 1010 844 1010 836 q 1026 891 1010 868 q 1067 914 1042 914 l 1100 914 q 1158 838 1158 914 z "},"Ű":{"ha":919,"x_min":32,"x_max":939,"o":"m 438 974 q 406 993 406 974 q 413 1023 406 1007 q 440 1071 421 1039 q 478 1137 465 1110 q 490 1190 490 1164 q 502 1225 490 1213 q 554 1238 514 1238 q 612 1222 596 1238 q 628 1186 628 1206 q 593 1096 628 1144 q 500 997 558 1047 q 438 974 474 974 m 669 974 q 639 993 639 974 q 675 1071 639 1017 q 712 1138 700 1113 q 724 1190 724 1164 q 735 1225 724 1213 q 788 1238 747 1238 q 845 1222 829 1238 q 861 1186 861 1206 q 733 997 861 1110 q 669 974 706 974 m 160 821 q 192 902 175 882 q 256 922 210 922 q 320 914 293 922 q 349 889 347 906 q 356 867 356 885 q 340 778 356 838 q 296 622 325 718 q 242 426 263 507 q 215 289 221 346 l 214 269 q 242 178 214 214 q 310 127 269 143 q 389 111 350 111 q 529 152 478 111 q 608 265 581 193 q 658 460 635 336 q 697 640 671 522 q 732 783 724 758 q 747 839 744 819 q 765 888 756 871 q 793 917 774 904 q 808 920 799 918 q 824 922 818 922 q 902 914 871 922 q 939 893 933 906 q 881 649 918 811 q 828 393 844 488 q 369 -29 751 -29 q 196 10 272 -29 q 76 117 119 49 q 32 274 32 186 q 44 365 32 318 l 160 821 z "},"Ȗ":{"ha":919,"x_min":32,"x_max":939,"o":"m 629 1189 q 769 1158 711 1189 q 826 1068 826 1128 q 758 990 826 990 q 699 1029 701 990 q 621 1076 696 1076 q 476 999 500 1076 q 456 980 474 988 q 426 972 439 972 q 374 979 392 972 q 356 1006 356 986 q 629 1189 356 1176 m 160 821 q 192 902 175 882 q 256 922 210 922 q 320 914 293 922 q 349 889 347 906 q 356 867 356 885 q 340 778 356 838 q 296 622 325 718 q 242 426 263 507 q 215 289 221 346 l 214 269 q 242 178 214 214 q 310 127 269 143 q 389 111 350 111 q 529 152 478 111 q 608 265 581 193 q 658 460 635 336 q 697 640 671 522 q 732 783 724 758 q 747 839 744 819 q 765 888 756 871 q 793 917 774 904 q 808 920 799 918 q 824 922 818 922 q 902 914 871 922 q 939 893 933 906 q 881 649 918 811 q 828 393 844 488 q 369 -29 751 -29 q 196 10 272 -29 q 76 117 119 49 q 32 274 32 186 q 44 365 32 318 l 160 821 z "},"Ū":{"ha":919,"x_min":32,"x_max":939,"o":"m 851 1085 q 824 1032 850 1050 q 756 1011 797 1014 l 465 996 q 406 990 426 990 q 340 1046 344 994 l 340 1057 q 360 1104 343 1088 q 415 1128 378 1121 q 522 1139 453 1136 l 785 1150 q 851 1094 850 1146 l 851 1085 m 160 821 q 192 902 175 882 q 256 922 210 922 q 320 914 293 922 q 349 889 347 906 q 356 867 356 885 q 340 778 356 838 q 296 622 325 718 q 242 426 263 507 q 215 289 221 346 l 214 269 q 242 178 214 214 q 310 127 269 143 q 389 111 350 111 q 529 152 478 111 q 608 265 581 193 q 658 460 635 336 q 697 640 671 522 q 732 783 724 758 q 747 839 744 819 q 765 888 756 871 q 793 917 774 904 q 808 920 799 918 q 824 922 818 922 q 902 914 871 922 q 939 893 933 906 q 881 649 918 811 q 828 393 844 488 q 369 -29 751 -29 q 196 10 272 -29 q 76 117 119 49 q 32 274 32 186 q 44 365 32 318 l 160 821 z "},"Ų":{"ha":919,"x_min":32,"x_max":939,"o":"m 824 922 q 902 914 871 922 q 939 893 933 906 q 881 649 918 811 q 828 393 844 488 q 549 0 772 83 q 474 -84 497 -47 q 450 -161 450 -121 q 513 -224 450 -224 q 579 -215 544 -224 q 599 -243 599 -229 q 553 -292 599 -278 q 460 -306 507 -306 q 347 -271 393 -306 q 300 -161 300 -236 q 327 -94 300 -129 q 401 -28 354 -58 q 369 -29 392 -29 q 196 10 272 -29 q 76 117 119 49 q 32 274 32 186 q 44 365 32 318 l 160 821 q 192 902 175 882 q 256 922 210 922 q 320 914 293 922 q 349 889 347 906 q 356 867 356 885 q 340 778 356 838 q 296 622 325 718 q 242 426 263 507 q 215 289 221 346 l 214 269 q 242 178 214 214 q 310 127 269 143 q 389 111 350 111 q 529 152 478 111 q 608 265 581 193 q 658 460 635 336 q 697 640 671 522 q 732 783 724 758 q 747 839 744 819 q 765 888 756 871 q 793 917 774 904 q 808 920 799 918 q 824 922 818 922 z "},"Ů":{"ha":919,"x_min":32,"x_max":939,"o":"m 574 978 q 478 1016 514 978 q 443 1111 443 1054 q 498 1229 443 1185 q 639 1274 553 1274 q 730 1233 690 1274 q 769 1132 769 1193 q 742 1055 769 1090 q 670 999 715 1019 q 574 978 625 978 m 590 1050 q 649 1073 624 1050 q 674 1139 674 1096 q 659 1178 674 1164 q 622 1193 644 1193 q 533 1106 533 1193 q 551 1065 533 1081 q 590 1050 569 1050 m 160 821 q 192 902 175 882 q 256 922 210 922 q 320 914 293 922 q 349 889 347 906 q 356 867 356 885 q 340 778 356 838 q 296 622 325 718 q 242 426 263 507 q 215 289 221 346 l 214 269 q 242 178 214 214 q 310 127 269 143 q 389 111 350 111 q 529 152 478 111 q 608 265 581 193 q 658 460 635 336 q 697 640 671 522 q 732 783 724 758 q 747 839 744 819 q 765 888 756 871 q 793 917 774 904 q 808 920 799 918 q 824 922 818 922 q 902 914 871 922 q 939 893 933 906 q 881 649 918 811 q 828 393 844 488 q 369 -29 751 -29 q 196 10 272 -29 q 76 117 119 49 q 32 274 32 186 q 44 365 32 318 l 160 821 z "},"Ũ":{"ha":919,"x_min":32,"x_max":939,"o":"m 524 1072 q 403 990 478 1072 q 379 1015 386 1000 q 372 1065 372 1029 q 401 1124 372 1093 q 472 1174 431 1154 q 546 1194 513 1194 q 671 1146 607 1194 q 718 1117 697 1125 q 763 1108 739 1108 q 793 1117 779 1108 q 821 1140 807 1126 q 842 1160 835 1153 q 854 1165 847 1165 q 865 1158 860 1165 q 872 1151 871 1151 q 875 1139 875 1151 q 849 1066 875 1100 q 788 1011 822 1032 q 732 990 753 990 q 674 1001 700 990 q 613 1035 649 1011 q 566 1064 586 1056 q 524 1072 546 1072 m 160 821 q 192 902 175 882 q 256 922 210 922 q 320 914 293 922 q 349 889 347 906 q 356 867 356 885 q 340 778 356 838 q 296 622 325 718 q 242 426 263 507 q 215 289 221 346 l 214 269 q 242 178 214 214 q 310 127 269 143 q 389 111 350 111 q 529 152 478 111 q 608 265 581 193 q 658 460 635 336 q 697 640 671 522 q 732 783 724 758 q 747 839 744 819 q 765 888 756 871 q 793 917 774 904 q 808 920 799 918 q 824 922 818 922 q 902 914 871 922 q 939 893 933 906 q 881 649 918 811 q 828 393 844 488 q 369 -29 751 -29 q 196 10 272 -29 q 76 117 119 49 q 32 274 32 186 q 44 365 32 318 l 160 821 z "},"V":{"ha":825,"x_min":90,"x_max":832,"o":"m 238 -29 q 160 -3 182 -17 q 131 34 138 11 q 122 111 125 57 q 108 367 119 193 q 99 546 107 394 q 90 836 90 697 q 120 892 90 869 q 196 915 150 915 q 257 892 238 915 q 276 822 276 869 l 278 269 l 278 132 q 532 648 389 378 q 715 918 675 918 q 799 894 767 918 q 832 839 831 871 q 764 711 824 821 l 699 596 l 651 508 q 456 154 511 251 q 363 17 400 57 q 312 -16 346 -3 q 238 -29 278 -29 z "},"W":{"ha":1071,"x_min":63,"x_max":1088,"o":"m 525 418 q 425 181 482 281 q 307 28 368 81 q 190 -25 246 -25 q 63 238 63 -25 q 101 558 63 399 q 188 831 140 717 q 224 888 201 867 q 286 910 246 910 q 346 891 324 910 q 368 835 368 872 l 367 818 q 350 772 367 815 q 276 557 308 660 q 235 361 243 454 q 231 268 231 314 q 240 194 231 222 q 268 165 250 165 q 366 281 308 165 q 476 559 424 397 q 554 843 529 721 q 586 888 560 869 q 632 906 613 906 q 683 888 667 906 q 699 835 699 871 l 697 815 q 694 800 697 810 q 689 775 692 790 q 608 303 622 458 q 607 269 607 292 q 620 194 607 222 q 654 165 633 165 q 792 377 722 165 q 915 847 861 589 q 940 884 921 872 q 985 896 958 896 q 1053 882 1018 896 q 1088 851 1088 868 l 1065 754 q 962 365 1014 526 q 826 90 910 204 q 622 -25 742 -25 q 506 189 506 -25 q 531 418 506 288 l 525 418 z "},"Ẃ":{"ha":1071,"x_min":63,"x_max":1088,"o":"m 572 1050 q 647 1132 592 1079 q 755 1226 701 1185 q 824 1267 808 1267 q 890 1240 853 1267 q 928 1192 928 1214 q 908 1156 928 1174 q 829 1096 889 1138 q 700 1013 744 1036 q 619 990 656 990 q 581 1000 593 990 q 568 1033 568 1010 q 572 1050 568 1044 m 525 418 q 425 181 482 281 q 307 28 368 81 q 190 -25 246 -25 q 63 238 63 -25 q 101 558 63 399 q 188 831 140 717 q 224 888 201 867 q 286 910 246 910 q 346 891 324 910 q 368 835 368 872 l 367 818 q 350 772 367 815 q 276 557 308 660 q 235 361 243 454 q 231 268 231 314 q 240 194 231 222 q 268 165 250 165 q 366 281 308 165 q 476 559 424 397 q 554 843 529 721 q 586 888 560 869 q 632 906 613 906 q 683 888 667 906 q 699 835 699 871 l 697 815 q 694 800 697 810 q 689 775 692 790 q 608 303 622 458 q 607 269 607 292 q 620 194 607 222 q 654 165 633 165 q 792 377 722 165 q 915 847 861 589 q 940 884 921 872 q 985 896 958 896 q 1053 882 1018 896 q 1088 851 1088 868 l 1065 754 q 962 365 1014 526 q 826 90 910 204 q 622 -25 742 -25 q 506 189 506 -25 q 531 418 506 288 l 525 418 z "},"Ŵ":{"ha":1071,"x_min":63,"x_max":1088,"o":"m 717 1244 q 766 1231 744 1244 q 819 1176 788 1218 l 890 1085 q 904 1050 904 1067 q 883 1012 904 1028 q 832 996 861 996 q 779 1025 804 996 l 703 1117 q 580 1015 619 1044 q 522 986 540 986 q 473 999 494 986 q 451 1032 451 1011 q 456 1060 451 1047 q 481 1088 461 1072 l 511 1113 q 654 1228 615 1199 q 717 1244 675 1244 m 525 418 q 425 181 482 281 q 307 28 368 81 q 190 -25 246 -25 q 63 238 63 -25 q 101 558 63 399 q 188 831 140 717 q 224 888 201 867 q 286 910 246 910 q 346 891 324 910 q 368 835 368 872 l 367 818 q 350 772 367 815 q 276 557 308 660 q 235 361 243 454 q 231 268 231 314 q 240 194 231 222 q 268 165 250 165 q 366 281 308 165 q 476 559 424 397 q 554 843 529 721 q 586 888 560 869 q 632 906 613 906 q 683 888 667 906 q 699 835 699 871 l 697 815 q 694 800 697 810 q 689 775 692 790 q 608 303 622 458 q 607 269 607 292 q 620 194 607 222 q 654 165 633 165 q 792 377 722 165 q 915 847 861 589 q 940 884 921 872 q 985 896 958 896 q 1053 882 1018 896 q 1088 851 1088 868 l 1065 754 q 962 365 1014 526 q 826 90 910 204 q 622 -25 742 -25 q 506 189 506 -25 q 531 418 506 288 l 525 418 z "},"Ẅ":{"ha":1071,"x_min":63,"x_max":1088,"o":"m 824 996 q 760 1024 792 996 q 728 1082 728 1051 q 764 1162 728 1131 q 847 1193 800 1193 q 915 1165 883 1193 q 947 1104 947 1138 q 910 1028 947 1060 q 824 996 874 996 m 507 990 q 446 1016 475 990 q 417 1074 417 1042 q 456 1156 417 1121 q 542 1190 494 1190 q 604 1160 576 1190 q 632 1096 632 1131 q 594 1021 632 1051 q 507 990 557 990 m 525 418 q 425 181 482 281 q 307 28 368 81 q 190 -25 246 -25 q 63 238 63 -25 q 101 558 63 399 q 188 831 140 717 q 224 888 201 867 q 286 910 246 910 q 346 891 324 910 q 368 835 368 872 l 367 818 q 350 772 367 815 q 276 557 308 660 q 235 361 243 454 q 231 268 231 314 q 240 194 231 222 q 268 165 250 165 q 366 281 308 165 q 476 559 424 397 q 554 843 529 721 q 586 888 560 869 q 632 906 613 906 q 683 888 667 906 q 699 835 699 871 l 697 815 q 694 800 697 810 q 689 775 692 790 q 608 303 622 458 q 607 269 607 292 q 620 194 607 222 q 654 165 633 165 q 792 377 722 165 q 915 847 861 589 q 940 884 921 872 q 985 896 958 896 q 1053 882 1018 896 q 1088 851 1088 868 l 1065 754 q 962 365 1014 526 q 826 90 910 204 q 622 -25 742 -25 q 506 189 506 -25 q 531 418 506 288 l 525 418 z "},"Ẁ":{"ha":1071,"x_min":63,"x_max":1088,"o":"m 771 1050 q 775 1033 775 1044 q 763 1000 775 1010 q 724 990 750 990 q 643 1013 688 990 q 514 1096 599 1036 q 435 1156 454 1138 q 415 1192 415 1174 q 453 1240 415 1214 q 519 1267 490 1267 q 588 1226 535 1267 q 697 1132 642 1185 q 771 1050 751 1079 m 525 418 q 425 181 482 281 q 307 28 368 81 q 190 -25 246 -25 q 63 238 63 -25 q 101 558 63 399 q 188 831 140 717 q 224 888 201 867 q 286 910 246 910 q 346 891 324 910 q 368 835 368 872 l 367 818 q 350 772 367 815 q 276 557 308 660 q 235 361 243 454 q 231 268 231 314 q 240 194 231 222 q 268 165 250 165 q 366 281 308 165 q 476 559 424 397 q 554 843 529 721 q 586 888 560 869 q 632 906 613 906 q 683 888 667 906 q 699 835 699 871 l 697 815 q 694 800 697 810 q 689 775 692 790 q 608 303 622 458 q 607 269 607 292 q 620 194 607 222 q 654 165 633 165 q 792 377 722 165 q 915 847 861 589 q 940 884 921 872 q 985 896 958 896 q 1053 882 1018 896 q 1088 851 1088 868 l 1065 754 q 962 365 1014 526 q 826 90 910 204 q 622 -25 742 -25 q 506 189 506 -25 q 531 418 506 288 l 525 418 z "},"X":{"ha":917,"x_min":-42,"x_max":879,"o":"m 804 933 q 879 856 879 933 q 878 831 879 838 l 875 815 q 866 797 874 804 q 836 778 858 790 q 814 764 831 774 q 783 742 797 754 q 514 442 742 701 l 582 321 q 629 239 599 294 l 676 154 q 710 64 710 96 l 710 57 q 686 15 708 32 q 635 0 664 0 q 542 75 603 0 q 389 303 479 151 q 92 -7 140 25 q 29 -28 58 -28 q 17 -25 21 -28 q 6 -14 13 -22 q -12 3 -1 -6 q -42 50 -42 25 l -42 56 q -33 76 -37 71 l -4 101 q 310 444 50 149 q 208 667 247 565 q 169 831 169 769 q 171 851 169 844 q 181 888 174 876 q 203 903 189 899 q 286 917 247 917 q 338 902 313 917 q 365 863 364 888 q 364 838 364 854 q 438 590 364 747 q 689 867 625 806 q 804 933 758 933 z "},"Y":{"ha":771,"x_min":90,"x_max":839,"o":"m 715 917 q 803 901 768 917 q 839 867 838 886 q 764 776 828 850 l 706 711 q 485 458 565 544 q 363 340 406 371 q 338 328 354 335 q 292 118 331 276 l 276 57 q 248 3 267 17 q 174 -11 229 -11 q 114 3 132 -11 q 96 53 96 17 q 100 82 96 68 l 156 304 q 161 328 158 311 q 131 351 138 336 q 122 400 125 365 q 108 565 114 506 q 99 681 107 585 q 90 865 90 778 q 120 901 90 886 q 196 915 150 915 q 257 901 238 915 q 276 856 276 886 l 278 501 l 278 414 q 533 744 390 572 q 715 917 675 917 z "},"Ý":{"ha":771,"x_min":90,"x_max":839,"o":"m 404 983 q 365 993 378 983 q 353 1026 353 1003 q 357 1043 353 1038 q 431 1125 376 1072 q 540 1219 486 1178 q 608 1260 593 1260 q 675 1233 638 1260 q 713 1185 713 1207 q 693 1149 713 1167 q 614 1089 674 1131 q 485 1006 529 1029 q 404 983 440 983 m 715 917 q 803 901 768 917 q 839 867 838 886 q 764 776 828 850 l 706 711 q 485 458 565 544 q 363 340 406 371 q 338 328 354 335 q 292 118 331 276 l 276 57 q 248 3 267 17 q 174 -11 229 -11 q 114 3 132 -11 q 96 53 96 17 q 100 82 96 68 l 156 304 q 161 328 158 311 q 131 351 138 336 q 122 400 125 365 q 108 565 114 506 q 99 681 107 585 q 90 865 90 778 q 120 901 90 886 q 196 915 150 915 q 257 901 238 915 q 276 856 276 886 l 278 501 l 278 414 q 533 744 390 572 q 715 917 675 917 z "},"Ŷ":{"ha":771,"x_min":90,"x_max":839,"o":"m 339 982 q 290 994 311 982 q 268 1028 268 1007 q 273 1056 268 1043 q 297 1083 278 1068 l 328 1108 q 471 1224 432 1194 q 533 1240 492 1240 q 583 1227 561 1240 q 636 1172 604 1214 l 707 1081 q 721 1046 721 1063 q 699 1008 721 1024 q 649 992 678 992 q 596 1021 621 992 l 519 1113 q 397 1011 436 1040 q 339 982 357 982 m 715 917 q 803 901 768 917 q 839 867 838 886 q 764 776 828 850 l 706 711 q 485 458 565 544 q 363 340 406 371 q 338 328 354 335 q 292 118 331 276 l 276 57 q 248 3 267 17 q 174 -11 229 -11 q 114 3 132 -11 q 96 53 96 17 q 100 82 96 68 l 156 304 q 161 328 158 311 q 131 351 138 336 q 122 400 125 365 q 108 565 114 506 q 99 681 107 585 q 90 865 90 778 q 120 901 90 886 q 196 915 150 915 q 257 901 238 915 q 276 856 276 886 l 278 501 l 278 414 q 533 744 390 572 q 715 917 675 917 z "},"Ÿ":{"ha":771,"x_min":90,"x_max":839,"o":"m 640 983 q 576 1011 608 983 q 544 1069 544 1039 q 581 1149 544 1118 q 664 1181 617 1181 q 732 1153 700 1181 q 764 1092 764 1125 q 727 1015 764 1047 q 640 983 690 983 m 324 978 q 263 1003 292 978 q 233 1061 233 1029 q 272 1143 233 1108 q 358 1178 311 1178 q 421 1148 393 1178 q 449 1083 449 1118 q 411 1008 449 1039 q 324 978 374 978 m 715 917 q 803 901 768 917 q 839 867 838 886 q 764 776 828 850 l 706 711 q 485 458 565 544 q 363 340 406 371 q 338 328 354 335 q 292 118 331 276 l 276 57 q 248 3 267 17 q 174 -11 229 -11 q 114 3 132 -11 q 96 53 96 17 q 100 82 96 68 l 156 304 q 161 328 158 311 q 131 351 138 336 q 122 400 125 365 q 108 565 114 506 q 99 681 107 585 q 90 865 90 778 q 120 901 90 886 q 196 915 150 915 q 257 901 238 915 q 276 856 276 886 l 278 501 l 278 414 q 533 744 390 572 q 715 917 675 917 z "}}}
